<svg width="512" height="512" version="1.1" xmlns="http://www.w3.org/2000/svg" desc="Created with imagetracer.js version 1.2.6" ><path fill="rgb(208,67,81)" stroke="rgb(208,67,81)" stroke-width="1" opacity="1" d="M 245.5 23 L 246 38.5 L 245 38.5 L 245.5 23 Z " /><path fill="rgb(208,67,81)" stroke="rgb(208,67,81)" stroke-width="1" opacity="1" d="M 266.5 23 L 267 38.5 L 266 38.5 L 266.5 23 Z " /><path fill="rgb(208,67,81)" stroke="rgb(208,67,81)" stroke-width="1" opacity="1" d="M 232 53 L 279.5 53 L 280 53.5 L 280 68.5 L 278.5 68 L 267.5 67 L 266.5 66 L 245.5 66 L 232.5 69 L 232 53 Z " /><path fill="rgb(208,67,81)" stroke="rgb(208,67,81)" stroke-width="1" opacity="1" d="M 255.5 85 L 258 86.5 L 256.5 86 L 254.5 87 L 255.5 85 Z " /><path fill="rgb(208,67,81)" stroke="rgb(208,67,81)" stroke-width="1" opacity="1" d="M 258.5 88 L 259.5 90 L 258.5 88 Z " /><path fill="rgb(208,67,81)" stroke="rgb(208,67,81)" stroke-width="1" opacity="1" d="M 215.5 90 L 214.5 92 L 215.5 90 Z " /><path fill="rgb(208,67,81)" stroke="rgb(208,67,81)" stroke-width="1" opacity="1" d="M 206.5 96 L 205.5 98 L 206.5 96 Z " /><path fill="rgb(208,67,81)" stroke="rgb(208,67,81)" stroke-width="1" opacity="1" d="M 305.5 96 L 306.5 98 L 305.5 96 Z " /><path fill="rgb(208,67,81)" stroke="rgb(208,67,81)" stroke-width="1" opacity="1" d="M 201.5 100 L 193.5 109 L 201.5 100 Z " /><path fill="rgb(208,67,81)" stroke="rgb(208,67,81)" stroke-width="1" opacity="1" d="M 310.5 100 L 318.5 109 L 310.5 100 Z " /><path fill="rgb(208,67,81)" stroke="rgb(208,67,81)" stroke-width="1" opacity="1" d="M 190.5 112 L 189.5 114 L 190.5 112 Z " /><path fill="rgb(208,67,81)" stroke="rgb(208,67,81)" stroke-width="1" opacity="1" d="M 321.5 112 L 322.5 114 L 321.5 112 Z " /><path fill="rgb(208,67,81)" stroke="rgb(208,67,81)" stroke-width="1" opacity="1" d="M 187.5 116 L 186.5 118 L 187.5 116 Z " /><path fill="rgb(208,67,81)" stroke="rgb(208,67,81)" stroke-width="1" opacity="1" d="M 324.5 116 L 325.5 118 L 324.5 116 Z " /><path fill="rgb(208,67,81)" stroke="rgb(208,67,81)" stroke-width="1" opacity="1" d="M 184.5 121 L 183.5 123 L 184.5 121 Z " /><path fill="rgb(208,67,81)" stroke="rgb(208,67,81)" stroke-width="1" opacity="1" d="M 327.5 121 L 328.5 123 L 327.5 121 Z " /><path fill="rgb(208,67,81)" stroke="rgb(208,67,81)" stroke-width="1" opacity="1" d="M 231.5 142 L 232 144.5 L 231 144.5 L 231.5 142 Z " /><path fill="rgb(208,67,81)" stroke="rgb(208,67,81)" stroke-width="1" opacity="1" d="M 295.5 144 L 296 146.5 L 295 146.5 L 295.5 144 Z " /><path fill="rgb(208,67,81)" stroke="rgb(208,67,81)" stroke-width="1" opacity="1" d="M 281.5 148 L 282 150.5 L 281 150.5 L 281.5 148 Z " /><path fill="rgb(208,67,81)" stroke="rgb(208,67,81)" stroke-width="1" opacity="1" d="M 215.5 150 L 216 152.5 L 215 152.5 L 215.5 150 Z " /><path fill="rgb(208,67,81)" stroke="rgb(208,67,81)" stroke-width="1" opacity="1" d="M 296.5 151 L 297 153.5 L 296 153.5 L 296.5 151 Z " /><path fill="rgb(208,67,81)" stroke="rgb(208,67,81)" stroke-width="1" opacity="1" d="M 173.5 153 L 174 155.5 L 173 155.5 L 173.5 153 Z " /><path fill="rgb(208,67,81)" stroke="rgb(208,67,81)" stroke-width="1" opacity="1" d="M 338.5 153 L 339 155.5 L 338 155.5 L 338.5 153 Z " /><path fill="rgb(208,67,81)" stroke="rgb(208,67,81)" stroke-width="1" opacity="1" d="M 173.5 207 L 204 207 L 204 268.5 L 203 268.5 L 203 208 L 173.5 208 L 173.5 207 Z " /><path fill="rgb(208,67,81)" stroke="rgb(208,67,81)" stroke-width="1" opacity="1" d="M 218.5 207 L 249 207.5 L 218.5 208 L 218.5 207 Z " /><path fill="rgb(208,67,81)" stroke="rgb(208,67,81)" stroke-width="1" opacity="1" d="M 263.5 207 L 294 207.5 L 263.5 208 L 263.5 207 Z " /><path fill="rgb(208,67,81)" stroke="rgb(208,67,81)" stroke-width="1" opacity="1" d="M 308 207 L 339 207.5 L 309 208 L 308.5 269 L 308 207 Z " /><path fill="rgb(208,67,81)" stroke="rgb(208,67,81)" stroke-width="1" opacity="1" d="M 123.5 255 L 124 366 L 157.5 366 L 158 365.5 L 158 255.5 L 159 255.5 L 159 365.5 L 157.5 367 L 124.5 367 L 123 365.5 L 123.5 255 Z " /><path fill="rgb(208,67,81)" stroke="rgb(208,67,81)" stroke-width="1" opacity="1" d="M 388.5 255 L 389 365.5 L 387.5 367 L 354.5 367 L 354.5 366 L 387.5 366 L 388 365.5 L 388.5 255 Z " /><path fill="rgb(208,67,81)" stroke="rgb(208,67,81)" stroke-width="1" opacity="1" d="M 286.5 267 L 287.5 269 L 286.5 267 Z " /><path fill="rgb(208,67,81)" stroke="rgb(208,67,81)" stroke-width="1" opacity="1" d="M 202.5 270 L 201.5 272 L 202.5 270 Z " /><path fill="rgb(208,67,81)" stroke="rgb(208,67,81)" stroke-width="1" opacity="1" d="M 309.5 270 L 310.5 272 L 309.5 270 Z " /><path fill="rgb(208,67,81)" stroke="rgb(208,67,81)" stroke-width="1" opacity="1" d="M 219.5 272 L 217.5 275 L 219.5 272 Z " /><path fill="rgb(208,67,81)" stroke="rgb(208,67,81)" stroke-width="1" opacity="1" d="M 292.5 272 L 294.5 275 L 292.5 272 Z " /><path fill="rgb(208,67,81)" stroke="rgb(208,67,81)" stroke-width="1" opacity="1" d="M 198.5 276 L 197.5 278 L 198.5 276 Z " /><path fill="rgb(208,67,81)" stroke="rgb(208,67,81)" stroke-width="1" opacity="1" d="M 313.5 276 L 314.5 278 L 313.5 276 Z " /><path fill="rgb(208,67,81)" stroke="rgb(208,67,81)" stroke-width="1" opacity="1" d="M 232.5 286 L 231.5 288 L 232.5 286 Z " /><path fill="rgb(208,67,81)" stroke="rgb(208,67,81)" stroke-width="1" opacity="1" d="M 279.5 286 L 280.5 288 L 279.5 286 Z " /><path fill="rgb(208,67,81)" stroke="rgb(208,67,81)" stroke-width="1" opacity="1" d="M 61 299 L 73 299 L 73 323 L 61 323 L 61 299 Z " /><path fill="rgb(208,67,81)" stroke="rgb(208,67,81)" stroke-width="1" opacity="1" d="M 244 299 L 268 299 L 268 323 L 244 323 L 244 299 Z " /><path fill="rgb(208,67,81)" stroke="rgb(208,67,81)" stroke-width="1" opacity="1" d="M 439 299 L 451 299 L 451 323 L 439 323 L 439 299 Z " /><path fill="rgb(208,67,81)" stroke="rgb(208,67,81)" stroke-width="1" opacity="1" d="M 189.5 300 L 190 302.5 L 189 302.5 L 189.5 300 Z " /><path fill="rgb(208,67,81)" stroke="rgb(208,67,81)" stroke-width="1" opacity="1" d="M 322.5 300 L 323 302.5 L 322 302.5 L 322.5 300 Z " /><path fill="rgb(208,67,81)" stroke="rgb(208,67,81)" stroke-width="1" opacity="1" d="M 308.5 304 L 309 306.5 L 308 306.5 L 308.5 304 Z " /><path fill="rgb(208,67,81)" stroke="rgb(208,67,81)" stroke-width="1" opacity="1" d="M 203.5 315 L 204 317.5 L 203 317.5 L 203.5 315 Z " /><path fill="rgb(208,67,81)" stroke="rgb(208,67,81)" stroke-width="1" opacity="1" d="M 308.5 315 L 309 317.5 L 308 317.5 L 308.5 315 Z " /><path fill="rgb(208,67,81)" stroke="rgb(208,67,81)" stroke-width="1" opacity="1" d="M 322.5 318 L 323 320.5 L 322 320.5 L 322.5 318 Z " /><path fill="rgb(208,67,81)" stroke="rgb(208,67,81)" stroke-width="1" opacity="1" d="M 297.5 343 L 296.5 345 L 297.5 343 Z " /><path fill="rgb(208,67,81)" stroke="rgb(208,67,81)" stroke-width="1" opacity="1" d="M 202.5 351 L 204 352.5 L 204 413.5 L 203 413.5 L 203 352.5 L 202.5 351 Z " /><path fill="rgb(208,67,81)" stroke="rgb(208,67,81)" stroke-width="1" opacity="1" d="M 222.5 351 L 223.5 353 L 222.5 351 Z " /><path fill="rgb(208,67,81)" stroke="rgb(208,67,81)" stroke-width="1" opacity="1" d="M 289.5 351 L 288.5 353 L 289.5 351 Z " /><path fill="rgb(208,67,81)" stroke="rgb(208,67,81)" stroke-width="1" opacity="1" d="M 309.5 351 L 309 352.5 L 308.5 414 L 308 352.5 L 309.5 351 Z " /><path fill="rgb(208,67,81)" stroke="rgb(208,67,81)" stroke-width="1" opacity="1" d="M 251.5 363 L 261 363.5 L 251.5 364 L 251.5 363 Z " /><path fill="rgb(208,67,81)" stroke="rgb(208,67,81)" stroke-width="1" opacity="1" d="M 220.5 367 L 221.5 369 L 220.5 367 Z " /><path fill="rgb(208,67,81)" stroke="rgb(208,67,81)" stroke-width="1" opacity="1" d="M 141.5 428 L 371 428.5 L 141.5 429 L 141.5 428 Z " /><path fill="rgb(208,67,81)" stroke="rgb(208,67,81)" stroke-width="1" opacity="1" d="M 111 466 L 400.5 466 L 401 466.5 L 401 489 L 111.5 489 L 111 488.5 L 111 466 Z " /><path fill="rgb(0,0,0)" stroke="rgb(0,0,0)" stroke-width="1" opacity="0" d="M 0 0 L 512 0 L 512 512 L 0 512 L 0 0 Z M 237 9 L 235 10 L 231 15 L 231 39 L 222 40 L 218 45 L 218 74 Q 203 79 192 90 Q 175 104 166 126 Q 160 139 159 156 L 133 156 L 127 161 L 127 203 L 128 205 L 132 207 L 159 207 L 159 241 L 115 241 L 113 242 L 109 248 L 109 260 L 77 260 L 73 265 L 73 285 L 52 285 L 50 286 L 47 289 L 47 333 L 53 337 L 73 337 L 73 358 L 78 362 L 109 362 Q 107 373 111 379 L 116 381 L 159 381 L 159 414 L 133 414 L 127 419 L 127 452 L 102 452 L 97 458 L 97 498 L 98 500 L 103 503 L 410 503 L 412 502 L 415 498 L 415 458 L 411 452 L 385 452 L 385 419 L 380 414 L 353 414 L 353 381 L 397 381 L 401 379 L 403 374 L 403 362 L 435 362 L 439 358 L 439 337 L 460 337 L 462 336 L 465 333 L 465 289 L 461 285 L 439 285 L 439 265 L 438 263 L 435 260 L 403 260 L 403 248 L 402 245 L 398 241 L 353 241 L 353 207 L 381 207 L 383 206 L 385 203 L 385 161 L 380 156 L 353 156 Q 349 119 328 98 Q 314 82 294 74 L 294 45 L 293 43 Q 290 38 281 39 L 281 15 L 280 13 L 276 9 L 237 9 Z " /><path fill="rgb(48,18,21)" stroke="rgb(48,18,21)" stroke-width="1" opacity="1" d="M 245.5 39 L 267 39.5 L 245.5 40 L 245.5 39 Z " /><path fill="rgb(48,18,21)" stroke="rgb(48,18,21)" stroke-width="1" opacity="1" d="M 245.5 66 L 250 66.5 L 245.5 67 L 245.5 66 Z " /><path fill="rgb(48,18,21)" stroke="rgb(48,18,21)" stroke-width="1" opacity="1" d="M 262.5 66 L 267 66.5 L 262.5 67 L 262.5 66 Z " /><path fill="rgb(48,18,21)" stroke="rgb(48,18,21)" stroke-width="1" opacity="1" d="M 238.5 67 L 241 67.5 L 238.5 68 L 238.5 67 Z " /><path fill="rgb(48,18,21)" stroke="rgb(48,18,21)" stroke-width="1" opacity="1" d="M 271.5 67 L 274 67.5 L 271.5 68 L 271.5 67 Z " /><path fill="rgb(48,18,21)" stroke="rgb(48,18,21)" stroke-width="1" opacity="1" d="M 233.5 68 L 236 68.5 L 233.5 69 L 233.5 68 Z " /><path fill="rgb(48,18,21)" stroke="rgb(48,18,21)" stroke-width="1" opacity="1" d="M 276.5 68 L 279 68.5 L 276.5 69 L 276.5 68 Z " /><path fill="rgb(48,18,21)" stroke="rgb(48,18,21)" stroke-width="1" opacity="1" d="M 238.5 81 Q 241.8 79.9 241 82.5 L 239 83.5 L 239.5 82 L 238.5 81 Z " /><path fill="rgb(48,18,21)" stroke="rgb(48,18,21)" stroke-width="1" opacity="1" d="M 271 81 L 274 81.5 L 272 82.5 L 272.5 84 L 271 81 Z " /><path fill="rgb(48,18,21)" stroke="rgb(48,18,21)" stroke-width="1" opacity="1" d="M 274.5 87 L 275.5 89 L 274.5 87 Z " /><path fill="rgb(48,18,21)" stroke="rgb(48,18,21)" stroke-width="1" opacity="1" d="M 211.5 92 L 210.5 94 L 211.5 92 Z " /><path fill="rgb(48,18,21)" stroke="rgb(48,18,21)" stroke-width="1" opacity="1" d="M 250.5 92 L 249.5 94 L 250.5 92 Z " /><path fill="rgb(48,18,21)" stroke="rgb(48,18,21)" stroke-width="1" opacity="1" d="M 261.5 92 L 262.5 94 L 261.5 92 Z " /><path fill="rgb(48,18,21)" stroke="rgb(48,18,21)" stroke-width="1" opacity="1" d="M 300.5 92 L 301.5 94 L 300.5 92 Z " /><path fill="rgb(48,18,21)" stroke="rgb(48,18,21)" stroke-width="1" opacity="1" d="M 208.5 94 L 207.5 96 L 208.5 94 Z " /><path fill="rgb(48,18,21)" stroke="rgb(48,18,21)" stroke-width="1" opacity="1" d="M 303.5 94 L 304.5 96 L 303.5 94 Z " /><path fill="rgb(48,18,21)" stroke="rgb(48,18,21)" stroke-width="1" opacity="1" d="M 204.5 97 L 202.5 100 L 204.5 97 Z " /><path fill="rgb(48,18,21)" stroke="rgb(48,18,21)" stroke-width="1" opacity="1" d="M 307.5 97 L 309.5 100 L 307.5 97 Z " /><path fill="rgb(48,18,21)" stroke="rgb(48,18,21)" stroke-width="1" opacity="1" d="M 192.5 109 L 190.5 112 L 192.5 109 Z " /><path fill="rgb(48,18,21)" stroke="rgb(48,18,21)" stroke-width="1" opacity="1" d="M 319.5 109 L 321.5 112 L 319.5 109 Z " /><path fill="rgb(48,18,21)" stroke="rgb(48,18,21)" stroke-width="1" opacity="1" d="M 188.5 114 L 187.5 116 L 188.5 114 Z " /><path fill="rgb(48,18,21)" stroke="rgb(48,18,21)" stroke-width="1" opacity="1" d="M 323.5 114 L 324.5 116 L 323.5 114 Z " /><path fill="rgb(48,18,21)" stroke="rgb(48,18,21)" stroke-width="1" opacity="1" d="M 216.5 146 L 217 148.5 L 216 148.5 L 216.5 146 Z " /><path fill="rgb(48,18,21)" stroke="rgb(48,18,21)" stroke-width="1" opacity="1" d="M 173.5 149 L 174 152.5 L 173 152.5 L 173.5 149 Z " /><path fill="rgb(48,18,21)" stroke="rgb(48,18,21)" stroke-width="1" opacity="1" d="M 338.5 150 L 339 152.5 L 338 152.5 L 338.5 150 Z " /><path fill="rgb(48,18,21)" stroke="rgb(48,18,21)" stroke-width="1" opacity="1" d="M 229.5 152 L 230 154.5 L 229 154.5 L 229.5 152 Z " /><path fill="rgb(48,18,21)" stroke="rgb(48,18,21)" stroke-width="1" opacity="1" d="M 282.5 152 L 283 154.5 L 282 154.5 L 282.5 152 Z " /><path fill="rgb(48,18,21)" stroke="rgb(48,18,21)" stroke-width="1" opacity="1" d="M 215.5 153 L 216 155.5 L 214.5 157 L 173.5 157 L 173.5 156 L 214.5 156 L 215.5 153 Z " /><path fill="rgb(48,18,21)" stroke="rgb(48,18,21)" stroke-width="1" opacity="1" d="M 296.5 154 L 297 156 L 339 156.5 L 297.5 157 L 296.5 154 Z " /><path fill="rgb(48,18,21)" stroke="rgb(48,18,21)" stroke-width="1" opacity="1" d="M 230.5 156 L 282 156.5 L 230.5 157 L 230.5 156 Z " /><path fill="rgb(48,18,21)" stroke="rgb(48,18,21)" stroke-width="1" opacity="1" d="M 140.5 170 L 141 193 L 370.5 193 L 371 192.5 L 371 170.5 L 372 170.5 L 372 192.5 L 370.5 194 L 141.5 194 L 140 192.5 L 140.5 170 Z " /><path fill="rgb(48,18,21)" stroke="rgb(48,18,21)" stroke-width="1" opacity="1" d="M 172.5 207 L 173 414 L 204 414.5 L 173.5 415 L 172 413.5 L 172.5 207 Z " /><path fill="rgb(48,18,21)" stroke="rgb(48,18,21)" stroke-width="1" opacity="1" d="M 339.5 207 L 340 413.5 L 338.5 415 L 308.5 415 L 308.5 414 L 338.5 414 L 339 413.5 L 339.5 207 Z " /><path fill="rgb(48,18,21)" stroke="rgb(48,18,21)" stroke-width="1" opacity="1" d="M 217.5 208 L 218 254.5 L 219 255.5 L 217 254.5 L 217.5 208 Z " /><path fill="rgb(48,18,21)" stroke="rgb(48,18,21)" stroke-width="1" opacity="1" d="M 294.5 208 L 295 254.5 L 293 255.5 L 294 254.5 L 294.5 208 Z " /><path fill="rgb(48,18,21)" stroke="rgb(48,18,21)" stroke-width="1" opacity="1" d="M 246.5 244 L 249 244.5 L 246.5 245 L 246.5 244 Z " /><path fill="rgb(48,18,21)" stroke="rgb(48,18,21)" stroke-width="1" opacity="1" d="M 263.5 244 L 266 244.5 L 263.5 245 L 263.5 244 Z " /><path fill="rgb(48,18,21)" stroke="rgb(48,18,21)" stroke-width="1" opacity="1" d="M 221.5 253 L 220.5 255 L 221.5 253 Z " /><path fill="rgb(48,18,21)" stroke="rgb(48,18,21)" stroke-width="1" opacity="1" d="M 290.5 253 L 291.5 255 L 290.5 253 Z " /><path fill="rgb(48,18,21)" stroke="rgb(48,18,21)" stroke-width="1" opacity="1" d="M 254.5 257 L 258 257.5 L 254.5 258 L 254.5 257 Z " /><path fill="rgb(48,18,21)" stroke="rgb(48,18,21)" stroke-width="1" opacity="1" d="M 245.5 258 L 248 258.5 L 245.5 259 L 245.5 258 Z " /><path fill="rgb(48,18,21)" stroke="rgb(48,18,21)" stroke-width="1" opacity="1" d="M 264.5 258 L 267 258.5 L 264.5 259 L 264.5 258 Z " /><path fill="rgb(48,18,21)" stroke="rgb(48,18,21)" stroke-width="1" opacity="1" d="M 229.5 264 L 228.5 266 L 229.5 264 Z " /><path fill="rgb(48,18,21)" stroke="rgb(48,18,21)" stroke-width="1" opacity="1" d="M 226.5 266 L 225.5 268 L 226.5 266 Z " /><path fill="rgb(48,18,21)" stroke="rgb(48,18,21)" stroke-width="1" opacity="1" d="M 222.5 269 L 220.5 272 L 222.5 269 Z " /><path fill="rgb(48,18,21)" stroke="rgb(48,18,21)" stroke-width="1" opacity="1" d="M 289.5 269 L 291.5 272 L 289.5 269 Z " /><path fill="rgb(48,18,21)" stroke="rgb(48,18,21)" stroke-width="1" opacity="1" d="M 201.5 272 L 200.5 274 L 201.5 272 Z " /><path fill="rgb(48,18,21)" stroke="rgb(48,18,21)" stroke-width="1" opacity="1" d="M 310.5 272 L 311.5 274 L 310.5 272 Z " /><path fill="rgb(48,18,21)" stroke="rgb(48,18,21)" stroke-width="1" opacity="1" d="M 87.5 273 L 109.5 273 L 110 273.5 L 110 347.5 L 109 347.5 L 109 274.5 L 108.5 274 L 87.5 274 L 87.5 273 Z " /><path fill="rgb(48,18,21)" stroke="rgb(48,18,21)" stroke-width="1" opacity="1" d="M 402 273 L 425 273.5 L 403 274 L 402.5 348 L 402 273 Z " /><path fill="rgb(48,18,21)" stroke="rgb(48,18,21)" stroke-width="1" opacity="1" d="M 216.5 275 L 214.5 278 L 216.5 275 Z " /><path fill="rgb(48,18,21)" stroke="rgb(48,18,21)" stroke-width="1" opacity="1" d="M 295.5 275 L 297.5 278 L 295.5 275 Z " /><path fill="rgb(48,18,21)" stroke="rgb(48,18,21)" stroke-width="1" opacity="1" d="M 212.5 280 L 211.5 282 L 212.5 280 Z " /><path fill="rgb(48,18,21)" stroke="rgb(48,18,21)" stroke-width="1" opacity="1" d="M 299.5 280 L 300.5 282 L 299.5 280 Z " /><path fill="rgb(48,18,21)" stroke="rgb(48,18,21)" stroke-width="1" opacity="1" d="M 61.5 298 L 73 298.5 L 61 299 L 60.5 323 L 60 299.5 L 61.5 298 Z " /><path fill="rgb(48,18,21)" stroke="rgb(48,18,21)" stroke-width="1" opacity="1" d="M 244.5 298 L 268 298.5 L 244.5 299 L 244.5 298 Z " /><path fill="rgb(48,18,21)" stroke="rgb(48,18,21)" stroke-width="1" opacity="1" d="M 439.5 298 L 450.5 298 L 452 299.5 L 451.5 323 L 451 299 L 439.5 299 L 439.5 298 Z " /><path fill="rgb(48,18,21)" stroke="rgb(48,18,21)" stroke-width="1" opacity="1" d="M 203.5 301 L 204 303.5 L 203 303.5 L 203.5 301 Z " /><path fill="rgb(48,18,21)" stroke="rgb(48,18,21)" stroke-width="1" opacity="1" d="M 189.5 303 L 190 308.5 L 189 308.5 L 189.5 303 Z " /><path fill="rgb(48,18,21)" stroke="rgb(48,18,21)" stroke-width="1" opacity="1" d="M 322.5 303 L 323 309.5 L 322 309.5 L 322.5 303 Z " /><path fill="rgb(48,18,21)" stroke="rgb(48,18,21)" stroke-width="1" opacity="1" d="M 189.5 312 L 190 318.5 L 189 318.5 L 189.5 312 Z " /><path fill="rgb(48,18,21)" stroke="rgb(48,18,21)" stroke-width="1" opacity="1" d="M 322.5 312 L 323 317.5 L 322 317.5 L 322.5 312 Z " /><path fill="rgb(48,18,21)" stroke="rgb(48,18,21)" stroke-width="1" opacity="1" d="M 231.5 333 L 233.5 336 L 231.5 333 Z " /><path fill="rgb(48,18,21)" stroke="rgb(48,18,21)" stroke-width="1" opacity="1" d="M 280.5 333 L 278.5 336 L 280.5 333 Z " /><path fill="rgb(48,18,21)" stroke="rgb(48,18,21)" stroke-width="1" opacity="1" d="M 236.5 336 L 276 336.5 L 236.5 337 L 236.5 336 Z " /><path fill="rgb(48,18,21)" stroke="rgb(48,18,21)" stroke-width="1" opacity="1" d="M 210.5 338 L 211.5 340 L 210.5 338 Z " /><path fill="rgb(48,18,21)" stroke="rgb(48,18,21)" stroke-width="1" opacity="1" d="M 212.5 341 L 213.5 343 L 212.5 341 Z " /><path fill="rgb(48,18,21)" stroke="rgb(48,18,21)" stroke-width="1" opacity="1" d="M 299.5 341 L 298.5 343 L 299.5 341 Z " /><path fill="rgb(48,18,21)" stroke="rgb(48,18,21)" stroke-width="1" opacity="1" d="M 199.5 346 L 200.5 348 L 199.5 346 Z " /><path fill="rgb(48,18,21)" stroke="rgb(48,18,21)" stroke-width="1" opacity="1" d="M 216.5 346 L 220.5 351 L 216.5 346 Z " /><path fill="rgb(48,18,21)" stroke="rgb(48,18,21)" stroke-width="1" opacity="1" d="M 295.5 346 L 292.5 350 L 295.5 346 Z " /><path fill="rgb(48,18,21)" stroke="rgb(48,18,21)" stroke-width="1" opacity="1" d="M 312.5 346 L 311.5 348 L 312.5 346 Z " /><path fill="rgb(48,18,21)" stroke="rgb(48,18,21)" stroke-width="1" opacity="1" d="M 201.5 349 L 202.5 351 L 201.5 349 Z " /><path fill="rgb(48,18,21)" stroke="rgb(48,18,21)" stroke-width="1" opacity="1" d="M 310.5 349 L 309.5 351 L 310.5 349 Z " /><path fill="rgb(48,18,21)" stroke="rgb(48,18,21)" stroke-width="1" opacity="1" d="M 224.5 353 L 225.5 355 L 224.5 353 Z " /><path fill="rgb(48,18,21)" stroke="rgb(48,18,21)" stroke-width="1" opacity="1" d="M 248.5 363 L 251 363.5 L 248.5 364 L 248.5 363 Z " /><path fill="rgb(48,18,21)" stroke="rgb(48,18,21)" stroke-width="1" opacity="1" d="M 261.5 363 L 264 363.5 L 261.5 364 L 261.5 363 Z " /><path fill="rgb(48,18,21)" stroke="rgb(48,18,21)" stroke-width="1" opacity="1" d="M 217.5 366 L 218 414 L 249 414.5 L 218.5 415 L 217 413.5 L 217.5 366 Z " /><path fill="rgb(48,18,21)" stroke="rgb(48,18,21)" stroke-width="1" opacity="1" d="M 292.5 366 L 291.5 368 L 292.5 366 Z " /><path fill="rgb(48,18,21)" stroke="rgb(48,18,21)" stroke-width="1" opacity="1" d="M 294.5 366 L 295 413.5 L 293.5 415 L 263.5 415 L 263.5 414 L 294 414 L 294.5 366 Z " /><path fill="rgb(48,18,21)" stroke="rgb(48,18,21)" stroke-width="1" opacity="1" d="M 243.5 376 L 246 376.5 L 243.5 377 L 243.5 376 Z " /><path fill="rgb(48,18,21)" stroke="rgb(48,18,21)" stroke-width="1" opacity="1" d="M 266.5 376 L 269 376.5 L 266.5 377 L 266.5 376 Z " /><path fill="rgb(48,18,21)" stroke="rgb(48,18,21)" stroke-width="1" opacity="1" d="M 140.5 428 L 141 451.5 L 140 451.5 L 140.5 428 Z " /><path fill="rgb(48,18,21)" stroke="rgb(48,18,21)" stroke-width="1" opacity="1" d="M 371.5 428 L 372 451.5 L 371 451.5 L 371.5 428 Z " /><path fill="rgb(48,18,21)" stroke="rgb(48,18,21)" stroke-width="1" opacity="1" d="M 111.5 465 L 400 465.5 L 111.5 466 L 111.5 465 Z " /><path fill="rgb(0,0,0)" stroke="rgb(0,0,0)" stroke-width="1" opacity="0.996078431372549" d="M 234.5 10 L 232.5 13 L 234.5 10 Z " /><path fill="rgb(0,0,0)" stroke="rgb(0,0,0)" stroke-width="1" opacity="0.996078431372549" d="M 277.5 10 L 279.5 13 L 277.5 10 Z " /><path fill="rgb(0,0,0)" stroke="rgb(0,0,0)" stroke-width="1" opacity="0.996078431372549" d="M 231.5 14 L 232 40 L 224 39.5 L 231 39 L 231.5 14 Z " /><path fill="rgb(0,0,0)" stroke="rgb(0,0,0)" stroke-width="1" opacity="0.996078431372549" d="M 280.5 14 L 281 39 L 288 39.5 L 280 40 L 280.5 14 Z " /><path fill="rgb(0,0,0)" stroke="rgb(0,0,0)" stroke-width="1" opacity="0.996078431372549" d="M 221.5 40 L 223 40.5 L 219.5 43 L 221.5 40 Z " /><path fill="rgb(0,0,0)" stroke="rgb(0,0,0)" stroke-width="1" opacity="0.996078431372549" d="M 289.5 40 L 293 42.5 L 290.5 41 L 289.5 40 Z " /><path fill="rgb(0,0,0)" stroke="rgb(0,0,0)" stroke-width="1" opacity="0.996078431372549" d="M 218.5 44 L 219 73.5 L 214.5 76 L 214.5 75 L 218 74 L 218.5 44 Z " /><path fill="rgb(0,0,0)" stroke="rgb(0,0,0)" stroke-width="1" opacity="0.996078431372549" d="M 293.5 44 L 294 74 L 296 74.5 L 294.5 75 L 293 73.5 L 293.5 44 Z " /><path fill="rgb(0,0,0)" stroke="rgb(0,0,0)" stroke-width="1" opacity="0.996078431372549" d="M 210.5 77 L 209.5 79 L 205.5 81 L 206.5 79 L 210.5 77 Z " /><path fill="rgb(0,0,0)" stroke="rgb(0,0,0)" stroke-width="1" opacity="0.996078431372549" d="M 301.5 77 L 310 82.5 L 308.5 82 L 302.5 79 L 301.5 77 Z " /><path fill="rgb(0,0,0)" stroke="rgb(0,0,0)" stroke-width="1" opacity="0.996078431372549" d="M 203.5 81 L 202.5 83 L 203.5 81 Z " /><path fill="rgb(0,0,0)" stroke="rgb(0,0,0)" stroke-width="1" opacity="0.996078431372549" d="M 200.5 83 L 198.5 86 L 200.5 83 Z " /><path fill="rgb(0,0,0)" stroke="rgb(0,0,0)" stroke-width="1" opacity="0.996078431372549" d="M 311.5 83 L 313.5 86 L 311.5 83 Z " /><path fill="rgb(0,0,0)" stroke="rgb(0,0,0)" stroke-width="1" opacity="0.996078431372549" d="M 196.5 86 L 193.5 90 L 196.5 86 Z " /><path fill="rgb(0,0,0)" stroke="rgb(0,0,0)" stroke-width="1" opacity="0.996078431372549" d="M 315.5 86 L 328 97.5 L 320.5 91 L 315.5 86 Z " /><path fill="rgb(0,0,0)" stroke="rgb(0,0,0)" stroke-width="1" opacity="0.996078431372549" d="M 191.5 90 L 183.5 99 L 191.5 90 Z " /><path fill="rgb(0,0,0)" stroke="rgb(0,0,0)" stroke-width="1" opacity="0.996078431372549" d="M 182.5 100 L 179.5 104 L 182.5 100 Z " /><path fill="rgb(0,0,0)" stroke="rgb(0,0,0)" stroke-width="1" opacity="0.996078431372549" d="M 329.5 100 L 332.5 104 L 329.5 100 Z " /><path fill="rgb(0,0,0)" stroke="rgb(0,0,0)" stroke-width="1" opacity="0.996078431372549" d="M 178.5 105 L 176.5 108 L 178.5 105 Z " /><path fill="rgb(0,0,0)" stroke="rgb(0,0,0)" stroke-width="1" opacity="0.996078431372549" d="M 333.5 105 L 335.5 108 L 333.5 105 Z " /><path fill="rgb(0,0,0)" stroke="rgb(0,0,0)" stroke-width="1" opacity="0.996078431372549" d="M 175.5 109 L 174.5 111 L 175.5 109 Z " /><path fill="rgb(0,0,0)" stroke="rgb(0,0,0)" stroke-width="1" opacity="0.996078431372549" d="M 336.5 109 L 337.5 111 L 336.5 109 Z " /><path fill="rgb(0,0,0)" stroke="rgb(0,0,0)" stroke-width="1" opacity="0.996078431372549" d="M 173.5 112 L 173 113.5 L 171.5 116 L 172 114.5 L 173.5 112 Z " /><path fill="rgb(0,0,0)" stroke="rgb(0,0,0)" stroke-width="1" opacity="0.996078431372549" d="M 338.5 112 L 341 115.5 L 339 114.5 L 338.5 112 Z " /><path fill="rgb(0,0,0)" stroke="rgb(0,0,0)" stroke-width="1" opacity="0.996078431372549" d="M 162.5 136 L 163 138.5 L 162 138.5 L 162.5 136 Z " /><path fill="rgb(0,0,0)" stroke="rgb(0,0,0)" stroke-width="1" opacity="0.996078431372549" d="M 349.5 136 L 350 138.5 L 349 138.5 L 349.5 136 Z " /><path fill="rgb(0,0,0)" stroke="rgb(0,0,0)" stroke-width="1" opacity="0.996078431372549" d="M 161.5 140 L 162 142.5 L 161 142.5 L 161.5 140 Z " /><path fill="rgb(0,0,0)" stroke="rgb(0,0,0)" stroke-width="1" opacity="0.996078431372549" d="M 350.5 140 L 351 142.5 L 350 142.5 L 350.5 140 Z " /><path fill="rgb(0,0,0)" stroke="rgb(0,0,0)" stroke-width="1" opacity="0.996078431372549" d="M 160.5 145 L 161 147.5 L 160 147.5 L 160.5 145 Z " /><path fill="rgb(0,0,0)" stroke="rgb(0,0,0)" stroke-width="1" opacity="0.996078431372549" d="M 351.5 145 L 352 147.5 L 351 147.5 L 351.5 145 Z " /><path fill="rgb(0,0,0)" stroke="rgb(0,0,0)" stroke-width="1" opacity="0.996078431372549" d="M 159.5 151 L 160 155.5 L 158.5 157 L 132.5 157 L 132.5 156 L 158.5 156 L 159.5 151 Z " /><path fill="rgb(0,0,0)" stroke="rgb(0,0,0)" stroke-width="1" opacity="0.996078431372549" d="M 352.5 152 L 353 156 L 380 156.5 L 353.5 157 Q 350.8 155.8 352.5 152 Z " /><path fill="rgb(0,0,0)" stroke="rgb(0,0,0)" stroke-width="1" opacity="0.996078431372549" d="M 128.5 159 L 128 160.5 L 127.5 162 L 127 160.5 L 128.5 159 Z " /><path fill="rgb(0,0,0)" stroke="rgb(0,0,0)" stroke-width="1" opacity="0.996078431372549" d="M 383.5 159 L 385 161.5 L 384 161.5 L 383.5 159 Z " /><path fill="rgb(0,0,0)" stroke="rgb(0,0,0)" stroke-width="1" opacity="0.996078431372549" d="M 128.5 204 L 129.5 206 L 128.5 204 Z " /><path fill="rgb(0,0,0)" stroke="rgb(0,0,0)" stroke-width="1" opacity="0.996078431372549" d="M 383.5 204 L 382.5 206 L 383.5 204 Z " /><path fill="rgb(0,0,0)" stroke="rgb(0,0,0)" stroke-width="1" opacity="0.996078431372549" d="M 112.5 242 L 111 244.5 L 110.5 246 L 110 244.5 L 112.5 242 Z " /><path fill="rgb(0,0,0)" stroke="rgb(0,0,0)" stroke-width="1" opacity="0.996078431372549" d="M 399.5 242 L 402 245.5 L 401 245.5 L 399.5 242 Z " /><path fill="rgb(0,0,0)" stroke="rgb(0,0,0)" stroke-width="1" opacity="0.996078431372549" d="M 109.5 247 L 110 259.5 L 109 259.5 L 109.5 247 Z " /><path fill="rgb(0,0,0)" stroke="rgb(0,0,0)" stroke-width="1" opacity="0.996078431372549" d="M 402.5 247 L 403 259.5 L 402 259.5 L 402.5 247 Z " /><path fill="rgb(0,0,0)" stroke="rgb(0,0,0)" stroke-width="1" opacity="0.996078431372549" d="M 76.5 260 L 78 260.5 L 74.5 263 L 76.5 260 Z " /><path fill="rgb(0,0,0)" stroke="rgb(0,0,0)" stroke-width="1" opacity="0.996078431372549" d="M 436.5 261 L 437.5 263 L 436.5 261 Z " /><path fill="rgb(0,0,0)" stroke="rgb(0,0,0)" stroke-width="1" opacity="0.996078431372549" d="M 73.5 264 L 74 266.5 L 73 266.5 L 73.5 264 Z " /><path fill="rgb(0,0,0)" stroke="rgb(0,0,0)" stroke-width="1" opacity="0.996078431372549" d="M 438.5 264 L 439 266.5 L 438 266.5 L 438.5 264 Z " /><path fill="rgb(0,0,0)" stroke="rgb(0,0,0)" stroke-width="1" opacity="0.996078431372549" d="M 49.5 286 L 48 288.5 L 47.5 290 L 47 288.5 L 49.5 286 Z " /><path fill="rgb(0,0,0)" stroke="rgb(0,0,0)" stroke-width="1" opacity="0.996078431372549" d="M 462.5 286 L 465 289.5 L 464 289.5 L 462.5 286 Z " /><path fill="rgb(0,0,0)" stroke="rgb(0,0,0)" stroke-width="1" opacity="0.996078431372549" d="M 47.5 332 L 48.5 334 L 47.5 332 Z " /><path fill="rgb(0,0,0)" stroke="rgb(0,0,0)" stroke-width="1" opacity="0.996078431372549" d="M 464.5 332 L 463.5 334 L 464.5 332 Z " /><path fill="rgb(0,0,0)" stroke="rgb(0,0,0)" stroke-width="1" opacity="0.996078431372549" d="M 52.5 336 L 73 336.5 L 52.5 337 L 52.5 336 Z " /><path fill="rgb(0,0,0)" stroke="rgb(0,0,0)" stroke-width="1" opacity="0.996078431372549" d="M 439.5 336 L 460 336.5 L 439.5 337 L 439.5 336 Z " /><path fill="rgb(0,0,0)" stroke="rgb(0,0,0)" stroke-width="1" opacity="0.996078431372549" d="M 73.5 355 L 77.5 361 L 80 361.5 L 77.5 362 L 73 357.5 L 73.5 355 Z " /><path fill="rgb(0,0,0)" stroke="rgb(0,0,0)" stroke-width="1" opacity="0.996078431372549" d="M 438.5 355 L 439 357.5 L 434.5 362 L 432.5 362 L 432.5 361 Q 437.5 361.5 438 357.5 L 438.5 355 Z " /><path fill="rgb(0,0,0)" stroke="rgb(0,0,0)" stroke-width="1" opacity="0.996078431372549" d="M 109.5 362 L 110 373.5 L 109 373.5 L 109.5 362 Z " /><path fill="rgb(0,0,0)" stroke="rgb(0,0,0)" stroke-width="1" opacity="0.996078431372549" d="M 402.5 362 L 403 373.5 L 402 373.5 L 402.5 362 Z " /><path fill="rgb(0,0,0)" stroke="rgb(0,0,0)" stroke-width="1" opacity="0.996078431372549" d="M 115.5 380 L 159 380.5 L 115.5 381 L 115.5 380 Z " /><path fill="rgb(0,0,0)" stroke="rgb(0,0,0)" stroke-width="1" opacity="0.996078431372549" d="M 353.5 380 L 397 380.5 L 353.5 381 L 353.5 380 Z " /><path fill="rgb(0,0,0)" stroke="rgb(0,0,0)" stroke-width="1" opacity="0.996078431372549" d="M 132.5 414 L 159 414.5 L 132.5 415 L 132.5 414 Z " /><path fill="rgb(0,0,0)" stroke="rgb(0,0,0)" stroke-width="1" opacity="0.996078431372549" d="M 353.5 414 L 380 414.5 L 353.5 415 L 353.5 414 Z " /><path fill="rgb(0,0,0)" stroke="rgb(0,0,0)" stroke-width="1" opacity="0.996078431372549" d="M 130.5 415 L 128 418.5 L 127.5 420 L 127 418.5 L 130.5 415 Z " /><path fill="rgb(0,0,0)" stroke="rgb(0,0,0)" stroke-width="1" opacity="0.996078431372549" d="M 381.5 415 L 385 419.5 L 384 419.5 L 381.5 415 Z " /><path fill="rgb(0,0,0)" stroke="rgb(0,0,0)" stroke-width="1" opacity="0.996078431372549" d="M 101.5 452 L 103 452.5 L 98.5 456 L 101.5 452 Z " /><path fill="rgb(0,0,0)" stroke="rgb(0,0,0)" stroke-width="1" opacity="0.996078431372549" d="M 409.5 452 L 414 455.5 L 410.5 453 L 409.5 452 Z " /><path fill="rgb(0,0,0)" stroke="rgb(0,0,0)" stroke-width="1" opacity="0.996078431372549" d="M 97.5 457 L 98 497.5 L 97 497.5 L 97.5 457 Z " /><path fill="rgb(0,0,0)" stroke="rgb(0,0,0)" stroke-width="1" opacity="0.996078431372549" d="M 414.5 457 L 415 497.5 L 414 497.5 L 414.5 457 Z " /><path fill="rgb(0,0,0)" stroke="rgb(0,0,0)" stroke-width="1" opacity="0.996078431372549" d="M 98.5 499 L 100.5 502 L 98.5 499 Z " /><path fill="rgb(0,0,0)" stroke="rgb(0,0,0)" stroke-width="1" opacity="0.996078431372549" d="M 413.5 499 L 411.5 502 L 413.5 499 Z " /><path fill="rgb(237,103,124)" stroke="rgb(237,103,124)" stroke-width="1" opacity="1" d="M 141.5 170 L 371 170.5 L 141.5 171 L 141.5 170 Z " /><path fill="rgb(237,103,124)" stroke="rgb(237,103,124)" stroke-width="1" opacity="1" d="M 223.5 269 L 222.5 271 L 223.5 269 Z " /><path fill="rgb(237,103,124)" stroke="rgb(237,103,124)" stroke-width="1" opacity="1" d="M 288.5 269 L 289.5 271 L 288.5 269 Z " /><path fill="rgb(237,103,124)" stroke="rgb(237,103,124)" stroke-width="1" opacity="1" d="M 203.5 309 L 204 312.5 L 203 312.5 L 203.5 309 Z " /><path fill="rgb(237,103,124)" stroke="rgb(237,103,124)" stroke-width="1" opacity="1" d="M 308.5 309 L 309 311.5 L 308 311.5 L 308.5 309 Z " /><path fill="rgb(237,103,124)" stroke="rgb(237,103,124)" stroke-width="1" opacity="1" d="M 231.5 334 L 232.5 336 L 231.5 334 Z " /><path fill="rgb(237,103,124)" stroke="rgb(237,103,124)" stroke-width="1" opacity="1" d="M 280.5 334 L 279.5 336 L 280.5 334 Z " /><path fill="rgb(237,103,124)" stroke="rgb(237,103,124)" stroke-width="1" opacity="1" d="M 217.5 346 L 219.5 349 L 217.5 346 Z " /><path fill="rgb(237,103,124)" stroke="rgb(237,103,124)" stroke-width="1" opacity="1" d="M 294.5 346 L 291.5 350 L 294.5 346 Z " /><path fill="rgb(237,103,124)" stroke="rgb(237,103,124)" stroke-width="1" opacity="1" d="M 141.5 451 L 371 451.5 L 141.5 452 L 141.5 451 Z " /><path fill="rgb(247,108,130)" stroke="rgb(247,108,130)" stroke-width="1" opacity="1" d="M 141 171 L 370.5 171 L 371 171.5 L 371 193 L 141.5 193 L 141 192.5 L 141 171 Z " /><path fill="rgb(247,108,130)" stroke="rgb(247,108,130)" stroke-width="1" opacity="1" d="M 124 255 L 157.5 255 L 158 255.5 L 158 366 L 124.5 366 L 124 365.5 L 124 255 Z " /><path fill="rgb(247,108,130)" stroke="rgb(247,108,130)" stroke-width="1" opacity="1" d="M 354 255 L 387.5 255 L 388 255.5 L 388 366 L 354.5 366 L 354 365.5 L 354 255 Z " /><path fill="rgb(247,108,130)" stroke="rgb(247,108,130)" stroke-width="1" opacity="1" d="M 252.5 258 L 266.5 259 L 278.5 263 Q 289 268 296 276.5 Q 303.4 285.1 307 297.5 L 308 301.5 L 308 320.5 Q 302.9 341.9 287.5 353 Q 279.8 359.3 268.5 362 L 263.5 363 L 248.5 363 Q 225.3 358.7 214 342.5 Q 206.8 333.7 204 320.5 L 204 301.5 Q 208.5 282 221.5 271 L 233.5 263 L 241.5 260 L 252.5 258 Z M 236 284 L 230 289 L 230 333 L 231 335 L 235 337 L 278 337 L 280 336 L 282 333 L 282 289 L 277 284 L 236 284 Z " /><path fill="rgb(247,108,130)" stroke="rgb(247,108,130)" stroke-width="1" opacity="1" d="M 141 429 L 370.5 429 L 371 429.5 L 371 451 L 141.5 451 L 141 450.5 L 141 429 Z " /><path fill="rgb(234,84,99)" stroke="rgb(234,84,99)" stroke-width="1" opacity="1" d="M 246 23 L 266 23 L 266 39 L 246 39 L 246 23 Z " /><path fill="rgb(234,84,99)" stroke="rgb(234,84,99)" stroke-width="1" opacity="1" d="M 237.5 82 L 240 82.5 L 235 89.5 L 223 116.5 L 218 134.5 L 215 156 L 174.5 156 L 174 155.5 L 174 148.5 Q 181.6 115.6 204.5 98 Q 217.8 86.8 237.5 82 Z " /><path fill="rgb(234,84,99)" stroke="rgb(234,84,99)" stroke-width="1" opacity="1" d="M 272.5 82 Q 304.3 89.3 321 111.5 Q 329.1 121.4 334 134.5 L 338 149.5 L 338 156 L 297.5 156 Q 296.5 156 297 151.5 L 294 134.5 L 289 116.5 Q 282.1 97 272.5 82 Z " /><path fill="rgb(234,84,99)" stroke="rgb(234,84,99)" stroke-width="1" opacity="1" d="M 255.5 86 L 258 87.5 Q 277.3 114.9 282 156 L 230.5 156 Q 229.4 155.9 230 150.5 L 234 131.5 L 239 116.5 Q 245.1 99.1 255.5 86 Z " /><path fill="rgb(234,84,99)" stroke="rgb(234,84,99)" stroke-width="1" opacity="1" d="M 173 208 L 203 208 L 203 269.5 Q 194.8 278.3 191 291.5 L 189 300.5 L 189 320.5 Q 192.3 340.2 203 352.5 L 203 414 L 173.5 414 L 173 413.5 L 173 208 Z " /><path fill="rgb(234,84,99)" stroke="rgb(234,84,99)" stroke-width="1" opacity="1" d="M 218 208 L 249 208 L 249 244 Q 230.1 245.4 218.5 255 L 218 208 Z " /><path fill="rgb(234,84,99)" stroke="rgb(234,84,99)" stroke-width="1" opacity="1" d="M 263 208 L 294 208 L 294 254.5 L 292.5 254 Q 280.9 245.4 263 244 L 263 208 Z " /><path fill="rgb(234,84,99)" stroke="rgb(234,84,99)" stroke-width="1" opacity="1" d="M 309 208 L 338.5 208 L 339 208.5 L 339 414 L 309 414 L 309 352.5 Q 317 343 321 329.5 L 323 320.5 L 323 300.5 L 318 283.5 L 309 269.5 L 309 208 Z " /><path fill="rgb(234,84,99)" stroke="rgb(234,84,99)" stroke-width="1" opacity="1" d="M 353.5 255 L 354 365.5 L 353 365.5 L 353.5 255 Z " /><path fill="rgb(234,84,99)" stroke="rgb(234,84,99)" stroke-width="1" opacity="1" d="M 87 274 L 108.5 274 L 109 274.5 L 109 348 L 87.5 348 L 87 347.5 L 87 274 Z " /><path fill="rgb(234,84,99)" stroke="rgb(234,84,99)" stroke-width="1" opacity="1" d="M 403 274 L 424.5 274 L 425 274.5 L 425 348 L 403.5 348 L 403 347.5 L 403 274 Z " /><path fill="rgb(234,84,99)" stroke="rgb(234,84,99)" stroke-width="1" opacity="1" d="M 237.5 284 L 275 284.5 L 237.5 285 L 237.5 284 Z " /><path fill="rgb(234,84,99)" stroke="rgb(234,84,99)" stroke-width="1" opacity="1" d="M 203.5 306 L 204 308.5 L 203 308.5 L 203.5 306 Z " /><path fill="rgb(234,84,99)" stroke="rgb(234,84,99)" stroke-width="1" opacity="1" d="M 308.5 312 L 309 314.5 L 308 314.5 L 308.5 312 Z " /><path fill="rgb(234,84,99)" stroke="rgb(234,84,99)" stroke-width="1" opacity="1" d="M 215.5 344 L 216.5 346 L 215.5 344 Z " /><path fill="rgb(234,84,99)" stroke="rgb(234,84,99)" stroke-width="1" opacity="1" d="M 220.5 349 L 221.5 351 L 220.5 349 Z " /><path fill="rgb(234,84,99)" stroke="rgb(234,84,99)" stroke-width="1" opacity="1" d="M 218 367 L 231.5 374 L 249 378 L 249 414 L 218 414 L 218 367 Z " /><path fill="rgb(234,84,99)" stroke="rgb(234,84,99)" stroke-width="1" opacity="1" d="M 292.5 367 L 294 367.5 L 294 414 L 263 414 L 263 378 L 280.5 374 L 292.5 367 Z " /><path fill="rgb(0,0,0)" stroke="rgb(0,0,0)" stroke-width="1" opacity="1" d="M 238.5 9 L 273.5 9 L 280 13.5 L 280 39.5 L 280.5 40 L 288.5 40 L 293 43.5 L 293 73.5 L 294.5 75 Q 315.8 83.2 329 99.5 Q 338.6 110.4 345 124.5 L 349 135.5 L 352 148.5 L 352 155.5 L 353.5 157 L 380.5 157 L 383 158 L 385 162.5 L 385 201.5 L 381.5 206 L 379.5 207 L 353 207 L 353 241 L 395.5 241 L 401 244.5 L 402 246.5 L 402 260 L 433.5 260 L 438 263.5 L 439 267.5 L 439 285 L 458.5 285 L 464 288.5 L 465 290.5 L 465 331.5 L 463 335 L 460.5 336 L 439 336 L 439 354.5 L 434.5 361 L 431.5 362 L 402 362 L 402 375.5 L 399.5 379 L 397.5 380 L 353 380 L 353 415 L 380.5 415 L 385 420.5 L 385 452 L 408.5 452 L 414 456.5 L 414 498.5 L 410.5 502 L 407.5 503 L 104.5 503 L 98 498.5 L 98 456.5 L 101.5 453 L 103.5 452 L 127 452 L 127 420.5 L 131.5 415 L 159 415 L 159 380 L 114.5 380 L 111 377.5 L 110 375.5 L 110 362 L 80.5 362 L 74 357.5 L 73 354.5 L 73 336 L 51.5 336 L 49 335 L 47 331.5 L 47 290.5 L 50.5 286 L 52.5 285 L 73 285 L 73 267.5 L 74 263.5 L 76.5 261 L 78.5 260 L 110 260 L 110 246.5 L 113.5 242 L 116.5 241 L 159 241 L 159 207 L 132.5 207 L 128 203.5 L 127 201.5 L 127 162.5 L 129 158 L 131.5 157 L 158.5 157 L 160 155.5 L 161 143.5 L 167 124.5 Q 176.4 103.9 192.5 90 Q 203.9 79.9 219 73.5 L 219 43.5 L 221.5 41 L 232 40 L 232 13.5 L 235.5 10 L 238.5 9 Z M 245 23 L 245 40 L 267 40 L 267 23 L 245 23 Z M 232 53 L 232 69 L 251 66 L 262 66 L 280 69 L 280 53 L 232 53 Z M 239 81 Q 218 86 205 97 Q 180 115 173 150 L 173 157 L 174 157 L 215 157 L 216 156 L 216 150 L 219 134 L 226 111 L 237 88 L 241 83 Q 242 80 239 81 Z M 271 81 L 287 114 L 293 134 L 296 150 L 296 156 L 298 157 L 339 157 L 338 146 L 333 130 L 322 112 Q 305 88 271 81 Z M 255 84 Q 245 98 238 117 L 231 141 L 230 152 L 229 153 Q 228 156 231 157 L 282 157 L 283 156 Q 278 113 257 86 Q 258 83 255 84 Z M 140 170 L 140 193 L 142 194 L 371 194 L 372 193 L 372 171 L 372 170 L 140 170 Z M 172 207 L 172 414 L 174 415 L 204 415 L 204 353 L 193 334 L 190 323 L 190 313 L 189 312 L 190 300 L 194 286 L 204 270 L 204 207 L 172 207 Z M 219 207 L 217 209 L 217 255 L 219 256 Q 230 246 249 245 L 249 207 L 219 207 Z M 263 207 L 263 245 Q 282 246 294 256 L 295 255 L 295 209 L 294 207 L 263 207 Z M 308 207 L 308 270 L 318 286 L 322 300 L 322 310 L 323 311 Q 320 314 322 323 L 319 334 L 308 353 L 308 415 L 339 415 L 340 414 L 340 208 L 340 207 L 308 207 Z M 123 255 L 123 367 L 124 367 L 159 367 L 159 256 L 159 255 L 123 255 Z M 353 255 L 353 367 L 354 367 L 389 367 L 389 256 L 389 255 L 353 255 Z M 255 257 L 239 260 L 223 269 Q 208 280 203 302 L 203 320 L 204 325 Q 208 338 216 347 Q 227 360 249 364 L 264 364 L 269 363 Q 283 359 293 350 Q 305 339 309 320 L 309 303 L 308 298 L 298 278 Q 290 268 279 262 L 267 258 L 255 257 Z M 87 273 L 87 348 L 88 348 L 110 348 L 110 274 L 110 273 L 87 273 Z M 402 273 L 402 348 L 403 348 L 425 348 L 425 274 L 425 273 L 402 273 Z M 62 298 L 60 300 L 60 323 L 73 323 L 73 298 L 62 298 Z M 439 298 L 439 323 L 452 323 L 452 300 L 451 298 L 439 298 Z M 217 366 L 217 414 L 219 415 L 249 415 L 249 377 L 232 373 L 220 366 L 217 366 Z M 293 366 L 281 373 L 266 377 L 263 378 L 263 415 L 294 415 L 295 414 L 295 367 L 293 366 Z M 140 428 L 140 452 L 141 452 L 372 452 L 372 429 L 372 428 L 140 428 Z M 111 465 L 111 489 L 401 489 L 401 489 L 401 467 L 400 465 L 111 465 Z " /><path fill="rgb(0,0,0)" stroke="rgb(0,0,0)" stroke-width="1" opacity="1" d="M 235.5 285 L 276.5 285 L 281 288.5 L 282 292.5 L 282 329.5 L 277.5 336 L 234.5 336 L 231 332.5 L 230 329.5 L 230 291.5 L 233.5 286 L 235.5 285 Z M 244 298 L 244 323 L 268 323 L 268 298 L 244 298 Z " /></svg>