<?xml version="1.0" encoding="UTF-8"?>
<svg version="1.1" xmlns="http://www.w3.org/2000/svg" width="512" height="512">
<path d="M0 0 C1.12728516 -0.00845947 2.25457031 -0.01691895 3.41601562 -0.02563477 C4.65351563 -0.01956207 5.89101562 -0.01348938 7.16601562 -0.00723267 C8.46861328 -0.01248962 9.77121094 -0.01774658 11.11328125 -0.02316284 C14.68765615 -0.03685258 18.26177162 -0.03153111 21.83615112 -0.02202559 C25.57436835 -0.0144375 29.31256316 -0.02147222 33.05078125 -0.02618408 C39.32881667 -0.03164413 45.60674627 -0.02444353 51.88476562 -0.01016235 C59.14607474 0.00616471 66.40713116 0.00087637 73.66843414 -0.01564157 C79.89950984 -0.02924939 86.1305094 -0.03117957 92.36159515 -0.02332556 C96.08461144 -0.01864514 99.8075089 -0.01803424 103.53051758 -0.02793503 C107.68000285 -0.03819888 111.82905154 -0.02397886 115.97851562 -0.00723267 C117.21601563 -0.01330536 118.45351563 -0.01937805 119.72851562 -0.02563477 C121.41944336 -0.01294556 121.41944336 -0.01294556 123.14453125 0 C124.61678162 0.00169662 124.61678162 0.00169662 126.11877441 0.00342751 C128.57226562 0.38095093 128.57226562 0.38095093 130.41540527 1.71335411 C131.57226562 3.38095093 131.57226562 3.38095093 131.50976562 6.44345093 C131.20039063 7.41282593 130.89101563 8.38220093 130.57226562 9.38095093 C126.57226562 11.38095093 126.57226562 11.38095093 114.57226562 11.38095093 C114.57226562 23.59095093 114.57226562 35.80095093 114.57226562 48.38095093 C119.9940625 48.34614624 125.41585938 48.31134155 131.00195312 48.27548218 C134.47462041 48.26012045 137.94724471 48.24567633 141.41992188 48.23446655 C146.9097585 48.21666022 152.39944246 48.19579433 157.88916016 48.15463257 C162.32421647 48.12159374 166.75910866 48.10400609 171.19427872 48.0963192 C172.87082624 48.09085431 174.54736667 48.08018812 176.22384262 48.06376076 C211.07532887 47.73641797 244.26490664 59.01248216 269.57226562 83.38095093 C270.7724643 84.37007172 271.97984042 85.35061175 273.19726562 86.31845093 C289.67746014 100.41077878 300.7057092 122.23346698 306.94726562 142.63095093 C307.18606445 143.40978638 307.42486328 144.18862183 307.67089844 144.99105835 C311.76294955 159.19924017 311.89791405 173.15882278 311.90820312 187.82235718 C311.91464677 189.99789005 311.92137624 192.17342209 311.92837524 194.34895325 C311.94029682 198.89520268 311.94406149 203.44137644 311.94287109 207.98764038 C311.94266849 213.75754404 311.96993395 219.52695199 312.00441551 225.29673862 C312.02686999 229.78831626 312.03070297 234.27977821 312.02965164 238.77140617 C312.03198122 240.89565674 312.04065169 243.01991183 312.05631638 245.14410591 C312.17074118 262.26573676 310.6958731 279.12145478 304.32226562 295.19345093 C303.87403442 296.35614502 303.87403442 296.35614502 303.41674805 297.54232788 C291.4031988 327.86105194 268.01607645 353.98365303 238.57226562 368.38095093 C235.60226562 369.37095093 232.63226563 370.36095093 229.57226562 371.38095093 C229.57226562 388.87095093 229.57226562 406.36095093 229.57226562 424.38095093 C241.80806332 424.26249653 241.80806332 424.26249653 254.04345703 424.11068726 C255.58690771 424.10191855 257.13036537 424.09427552 258.67382812 424.08798218 C259.46362061 424.07263428 260.25341309 424.05728638 261.06713867 424.04147339 C266.79655773 424.03877846 271.00358547 425.06474788 275.40039062 429.02938843 C275.86960937 429.59915405 276.33882813 430.16891968 276.82226562 430.75595093 C277.5415625 431.60286499 277.5415625 431.60286499 278.27539062 432.46688843 C282.42993267 438.59859204 281.94458255 444.9779257 281.94287109 452.13607788 C281.94723165 454.17754379 281.98355428 456.21682173 282.02148438 458.25790405 C282.047019 466.87583864 281.62301008 472.79010721 275.75585938 479.43954468 C275.17964844 479.89458374 274.6034375 480.3496228 274.00976562 480.81845093 C273.43097656 481.29153687 272.8521875 481.7646228 272.25585938 482.25204468 C268.55948061 484.730591 265.10185592 484.50898324 260.78831863 484.515172 C260.09134432 484.51752423 259.39437 484.51987647 258.67627525 484.52229998 C256.32333226 484.52899653 253.97044441 484.52853156 251.61749268 484.52812195 C249.92047375 484.53142016 248.22345561 484.53514563 246.52643847 484.53926343 C241.84928123 484.5492963 237.17213681 484.55300228 232.49497032 484.55565274 C227.45598173 484.55955193 222.41700333 484.56913048 217.37802124 484.5778656 C205.20264233 484.59764008 193.02726257 484.60769711 180.85187161 484.61659339 C175.12165276 484.62097436 169.39143485 484.62634163 163.66121674 484.63158226 C144.61886919 484.64859492 125.57652222 484.6630901 106.53416824 484.670331 C101.5911382 484.67224097 96.64810815 484.67416129 91.70507812 484.67611694 C90.47647752 484.67660068 89.24787691 484.67708442 87.98204598 484.67758282 C68.07003544 484.68588691 48.1580849 484.71123007 28.24610057 484.74369762 C7.81421637 484.77674199 -12.61763731 484.79477736 -33.04954839 484.79797524 C-44.52593661 484.80014268 -56.00223732 484.80892564 -67.47859955 484.83443642 C-77.25033496 484.85610753 -87.02196159 484.86421151 -96.79371831 484.85446963 C-101.78089762 484.84991463 -106.76785234 484.85188082 -111.75500107 484.87123108 C-116.3197528 484.88878977 -120.88411488 484.88792458 -125.44887033 484.87233379 C-127.10098512 484.8699466 -128.75312637 484.87433855 -130.40520057 484.88616244 C-132.65074883 484.90123945 -134.8949089 484.89163964 -137.14042282 484.87593555 C-138.38769677 484.87691236 -139.63497072 484.87788917 -140.92004085 484.87889558 C-146.19156517 484.13056129 -150.88510162 481.72331991 -154.24023438 477.44345093 C-159.03806277 470.72649117 -158.80026455 464.67591971 -158.79833984 456.62582397 C-158.8027004 454.58435807 -158.83902303 452.54508012 -158.87695312 450.5039978 C-158.90248775 441.88606322 -158.47847883 435.97179464 -152.61132812 429.32235718 C-152.03511719 428.86731812 -151.45890625 428.41227905 -150.86523438 427.94345093 C-150.28644531 427.47036499 -149.70765625 426.99727905 -149.11132812 426.50985718 C-144.99600207 423.7503926 -140.56489491 424.25315939 -135.82226562 424.28329468 C-134.70627991 424.2848053 -134.70627991 424.2848053 -133.56774902 424.28634644 C-130.7918951 424.2915735 -128.01606317 424.30553478 -125.24023438 424.31845093 C-119.03210938 424.33907593 -112.82398437 424.35970093 -106.42773438 424.38095093 C-106.42773438 406.89095093 -106.42773438 389.40095093 -106.42773438 371.38095093 C-110.88273437 369.89595093 -110.88273437 369.89595093 -115.42773438 368.38095093 C-118.30311793 366.90324917 -121.04303316 365.41768232 -123.80273438 363.75595093 C-124.53806396 363.31791138 -125.27339355 362.87987183 -126.03100586 362.42855835 C-132.33040446 358.59537188 -137.90304641 354.27346067 -143.42773438 349.38095093 C-144.15347656 348.77509155 -144.87921875 348.16923218 -145.62695312 347.54501343 C-162.77911182 333.10452935 -175.13209966 312.87978352 -182.30273438 291.81845093 C-182.57698242 291.01713745 -182.85123047 290.21582397 -183.13378906 289.39022827 C-188.14970397 273.75365875 -188.89142806 258.70711933 -188.86132812 242.42782593 C-188.86590341 240.23415976 -188.87121292 238.04049501 -188.87721252 235.84683228 C-188.88609257 231.27139426 -188.8837801 226.69613126 -188.8737793 222.12069702 C-188.86231156 216.31386067 -188.88249446 210.50763448 -188.91169643 204.70087814 C-188.93021838 200.17583502 -188.92973418 195.65093372 -188.92405891 191.12586212 C-188.92390757 188.98766475 -188.92979389 186.84945659 -188.94235039 184.71129608 C-189.02888884 167.56113416 -187.55857166 150.66838117 -181.17773438 134.56845093 C-180.88181396 133.79694702 -180.58589355 133.02544312 -180.28100586 132.2305603 C-175.5719443 120.30241274 -169.44977853 109.41549396 -161.42773438 99.38095093 C-161.00008789 98.84115601 -160.57244141 98.30136108 -160.13183594 97.74520874 C-137.99577414 70.04779338 -106.87140714 52.9228267 -71.61748791 48.59554386 C-68.19974501 48.2606096 -64.78935589 48.24982375 -61.359375 48.26742554 C-60.59742828 48.26727951 -59.83548157 48.26713348 -59.05044556 48.26698303 C-56.56159499 48.26767312 -54.07282167 48.27542264 -51.58398438 48.28329468 C-49.84663941 48.28516208 -48.10929392 48.28658446 -46.37194824 48.2875824 C-41.82147746 48.29138223 -37.27103911 48.30119062 -32.72058105 48.31228638 C-27.24887766 48.32436387 -21.77716337 48.32891481 -16.30545044 48.33473969 C-8.01285594 48.34440394 0.27966756 48.36357817 8.57226562 48.38095093 C8.57226562 36.17095093 8.57226562 23.96095093 8.57226562 11.38095093 C4.61226562 11.38095093 0.65226563 11.38095093 -3.42773438 11.38095093 C-5.40773437 10.39095093 -5.40773437 10.39095093 -7.42773438 9.38095093 C-8.36523438 6.44345093 -8.36523438 6.44345093 -8.42773438 3.38095093 C-6.09522403 0.0186723 -3.9298551 0.00452875 0 0 Z M-40.42773438 381.38095093 C-40.42773438 395.57095093 -40.42773438 409.76095093 -40.42773438 424.38095093 C26.89226562 424.38095093 94.21226562 424.38095093 163.57226562 424.38095093 C163.57226562 410.19095093 163.57226562 396.00095093 163.57226562 381.38095093 C96.25226563 381.38095093 28.93226562 381.38095093 -40.42773438 381.38095093 Z " fill="#2F2F6D" transform="translate(194.427734375,13.619049072265625)"/>
<path d="M0 0 C85.8 0 171.6 0 260 0 C260 90.09 260 180.18 260 273 C254.06 273.33 248.12 273.66 242 274 C236.00954331 278.312882 236.00954331 278.312882 234 283 C233.67 292.9 233.34 302.8 233 313 C165.02 313 97.04 313 27 313 C26.67 303.1 26.34 293.2 26 283 C22.49150654 276.8097394 22.49150654 276.8097394 17 274 C11.39 273.67 5.78 273.34 0 273 C0 182.91 0 92.82 0 0 Z " fill="#FCFCFE" transform="translate(126,72)"/>
<path d="M0 0 C6.34883533 0.70542615 11.58473436 1.49301113 17.5 3.5 C18.26973145 3.76063232 19.03946289 4.02126465 19.83251953 4.28979492 C50.35459815 15.08737709 74.82748113 38.15571228 89.00488281 67.04785156 C93.81768209 77.37481283 96.7571035 87.857869 99 99 C99.17666199 99.71409027 99.35332397 100.42818054 99.53533936 101.16390991 C100.18233088 105.11286979 100.1558189 108.99140235 100.16113281 112.98681641 C100.16858017 114.33201607 100.16858017 114.33201607 100.17617798 115.70439148 C100.19077182 118.67012305 100.19760143 121.63580091 100.203125 124.6015625 C100.20736607 126.13125231 100.20736607 126.13125231 100.21169281 127.69184494 C100.22668404 133.10185759 100.23591046 138.51184364 100.24023438 143.921875 C100.2456803 149.4610858 100.26962561 155.00004595 100.29820633 160.53917885 C100.31702168 164.83770402 100.32204851 169.13617151 100.32357025 173.43473434 C100.32656126 175.47328416 100.33446646 177.51183386 100.34775543 179.55034256 C100.44545577 195.70738356 99.99636947 212.42500821 93.875 227.625 C93.4260437 228.78346436 93.4260437 228.78346436 92.96801758 229.96533203 C87.49924979 243.65609969 80.46363945 255.71761551 71 267 C70.33226562 267.81984375 69.66453125 268.6396875 68.9765625 269.484375 C58.29291882 282.13032058 43.86414875 291.89199864 29 299 C28.34 299 27.68 299 27 299 C26.97421875 297.69804687 26.9484375 296.39609375 26.921875 295.0546875 C26.86557299 293.32809244 26.80822613 291.60153124 26.75 289.875 C26.73582031 289.0190625 26.72164063 288.163125 26.70703125 287.28125 C26.49457558 281.75740251 25.79051637 278.30027546 22 274 C15.53638525 269.59680971 15.53638525 269.59680971 0 270 C0 180.9 0 91.8 0 0 Z " fill="#D3D5EA" transform="translate(396,75)"/>
<path d="M0 0 C0 88.77 0 177.54 0 269 C-4.95 269.33 -9.9 269.66 -15 270 C-20.59646335 272.2552912 -23.15916819 274.72755849 -26 280 C-26.59919608 283.29079478 -26.69467872 286.53560638 -26.75 289.875 C-26.79447266 291.19371094 -26.79447266 291.19371094 -26.83984375 292.5390625 C-26.91005559 294.69222545 -26.95734881 296.84611485 -27 299 C-38.88651702 295.42145705 -48.78936636 288.0941932 -58 280 C-58.83015625 279.31421875 -59.6603125 278.6284375 -60.515625 277.921875 C-76.3719891 264.45892435 -87.00916497 246.36619672 -94 227 C-94.30550781 226.2265625 -94.61101562 225.453125 -94.92578125 224.65625 C-100.42144514 210.0011463 -100.45194167 194.3183341 -100.3984375 178.90234375 C-100.40046529 176.81262613 -100.40338254 174.72290921 -100.40713501 172.63319397 C-100.41152425 168.28233004 -100.40523744 163.93165257 -100.39111328 159.58081055 C-100.37401292 154.04833367 -100.38389004 148.51629334 -100.40183067 142.98383236 C-100.41275199 138.67770694 -100.40918437 134.37168238 -100.4014473 130.06555367 C-100.39946883 128.02732858 -100.40182012 125.98909385 -100.40888596 123.95088005 C-100.50699887 87.71547599 -88.12681056 56.45614805 -62.53125 30.49609375 C-46.61876871 15.64272242 -22.53104077 0 0 0 Z " fill="#D7D8EC" transform="translate(116,75)"/>
<path d="M0 0 C0.68913164 -0.00320648 1.37826328 -0.00641296 2.0882777 -0.0097166 C4.41459001 -0.01806689 6.74064823 -0.0120749 9.0669651 -0.00622082 C10.74478629 -0.00923922 12.4226061 -0.01312713 14.10042346 -0.01781338 C18.72445641 -0.02814239 23.34841226 -0.02589915 27.97245169 -0.02163279 C32.95414484 -0.01917441 37.93581899 -0.02816867 42.91750526 -0.03567028 C52.68253088 -0.04844429 62.44752903 -0.0502076 72.21256159 -0.04787002 C80.1472339 -0.04608964 88.08189784 -0.04783046 96.01656914 -0.05209446 C97.70815205 -0.05298724 97.70815205 -0.05298724 99.43390835 -0.05389806 C101.72461409 -0.05510977 104.01531984 -0.0563239 106.30602558 -0.05754044 C127.80691635 -0.06842647 149.30779145 -0.06624851 170.80868311 -0.06015559 C190.49247411 -0.05498597 210.17621563 -0.0662412 229.85999684 -0.08525381 C250.05457226 -0.10461077 270.24912425 -0.11289195 290.44370902 -0.10913056 C301.78810861 -0.10721519 313.13246609 -0.10973859 324.47685814 -0.1238451 C334.1348248 -0.13573265 343.79272342 -0.13719342 353.45069097 -0.12505493 C358.38087421 -0.11914762 363.31093284 -0.11811773 368.24110794 -0.13005733 C372.75142749 -0.14085345 377.26151746 -0.13788807 381.77182598 -0.12379565 C383.40640383 -0.12113132 385.0409993 -0.12356925 386.67555992 -0.13153151 C388.89246112 -0.14158371 391.1085559 -0.1332626 393.32542419 -0.12025452 C394.55826877 -0.12030953 395.79111335 -0.12036455 397.06131685 -0.12042123 C400.58481518 0.28889131 402.45929316 1.15758845 405.28855324 3.25447559 C408.71061577 8.06499528 407.61638943 14.55745967 407.60105324 20.19197559 C407.61716652 21.37211231 407.6332798 22.55224903 407.64988136 23.76814747 C407.65052589 24.90703419 407.65117043 26.04592091 407.65183449 27.21931934 C407.65630592 28.77574146 407.65630592 28.77574146 407.66086769 30.36360645 C407.22628139 33.73799101 406.35554068 35.56461646 404.28855324 38.25447559 C400.77200634 40.60594715 397.62669949 40.50601961 393.46967602 40.50895119 C392.78107891 40.51215767 392.0924818 40.51536414 391.38301811 40.51866779 C389.06454509 40.52700085 386.74632819 40.52103205 384.42785072 40.515172 C382.75329128 40.51819118 381.07873322 40.52207948 379.40417761 40.52676457 C374.79380547 40.53708342 370.18351076 40.5348529 365.57313216 40.53058398 C360.6044083 40.52812379 355.63570343 40.53712207 350.66698647 40.54462147 C340.92950352 40.5573901 331.19204811 40.55915948 321.4545582 40.5568212 C313.54231637 40.55504035 305.63008293 40.55678267 297.7178421 40.56104565 C296.59303101 40.56164084 295.46821992 40.56223602 294.30932365 40.56284925 C292.02449644 40.56406096 289.73966923 40.5652751 287.45484202 40.56649163 C266.01355845 40.57737544 244.57229058 40.57520065 223.13100611 40.56910678 C203.50224411 40.56393648 183.87353172 40.57519457 164.24477953 40.594205 C144.10441304 40.61356186 123.96407003 40.62184321 103.82369417 40.61808175 C92.51060856 40.61616648 81.19756519 40.61868892 69.88448715 40.63279629 C60.25399302 40.64468364 50.62356712 40.64614477 40.9930721 40.63400612 C36.07705864 40.62809888 31.16117016 40.62706875 26.24516487 40.63900852 C21.74783795 40.64980474 17.25074128 40.64683915 12.75342541 40.63274684 C11.12358806 40.63008255 9.49373303 40.63252029 7.86391295 40.6404827 C5.6534186 40.65053519 3.44373295 40.64221356 1.2332716 40.6292057 C-0.61062551 40.62928823 -0.61062551 40.62928823 -2.49177307 40.62937242 C-6.01067917 40.21963316 -7.88515039 39.34804347 -10.71144676 37.25447559 C-14.13350929 32.44395591 -13.03928295 25.95149151 -13.02394676 20.31697559 C-13.04006004 19.13683887 -13.05617332 17.95670216 -13.07277489 16.74080372 C-13.07341942 15.601917 -13.07406395 14.46303028 -13.07472801 13.28963184 C-13.07770897 12.2520171 -13.08068993 11.21440235 -13.08376122 10.14534473 C-12.65248248 6.79664213 -11.71145423 4.95488163 -9.71144676 2.25447559 C-6.06092916 -0.17920281 -4.3509748 0.00305985 0 0 Z " fill="#D3D5EA" transform="translate(58.71144676208496,447.7455244064331)"/>
<path d="M0 0 C4.15490943 0.73818188 5.38841252 2.31528954 8.140625 5.484375 C8.6054126 6.01651611 9.0702002 6.54865723 9.54907227 7.09692383 C15.74104065 14.30191833 21.44282983 21.90430261 27.078125 29.546875 C27.60083984 30.25005859 28.12355469 30.95324219 28.66210938 31.67773438 C42.39990679 50.24185962 58.13372321 72.29785261 54.65234375 96.5078125 C51.35710086 111.5891082 43.59382871 124.7362584 30.703125 133.421875 C25.41180302 136.58176306 19.94244112 138.70437027 14.078125 140.546875 C13.088125 140.876875 12.098125 141.206875 11.078125 141.546875 C-1.52271675 142.62913908 -13.65670087 142.78069327 -24.921875 136.546875 C-25.8809375 136.03898438 -26.84 135.53109375 -27.828125 135.0078125 C-41.52279927 127.06941615 -49.62321622 114.47501598 -53.859375 99.421875 C-58.06966474 79.37665909 -49.00258678 62.36837705 -38.40283203 45.97167969 C-30.01352921 33.27957301 -20.71124537 21.18433212 -10.921875 9.546875 C-10.22191406 8.66515625 -9.52195313 7.7834375 -8.80078125 6.875 C-8.11886719 6.04484375 -7.43695313 5.2146875 -6.734375 4.359375 C-6.14269531 3.62332031 -5.55101562 2.88726562 -4.94140625 2.12890625 C-2.921875 0.546875 -2.921875 0.546875 0 0 Z " fill="#D1EDFA" transform="translate(255.921875,157.453125)"/>
<path d="M0 0 C1.24245483 -0.00574036 1.24245483 -0.00574036 2.51000977 -0.01159668 C4.25831317 -0.01431425 6.00665734 -0.00696381 7.75488281 0.00976562 C10.42865777 0.03117918 13.09974596 0.00996056 15.7734375 -0.015625 C17.47396425 -0.01298169 19.17448934 -0.00785665 20.875 0 C22.07201538 -0.01214539 22.07201538 -0.01214539 23.29321289 -0.02453613 C26.59886615 0.03121715 28.90144232 0.15718445 31.65155029 2.07623291 C34.08741218 5.4246377 33.96967449 8.34607002 33.89160156 12.32910156 C33.89218567 13.10997131 33.89276978 13.89084106 33.89337158 14.69537354 C33.89058923 17.27132935 33.85949135 19.84612185 33.828125 22.421875 C33.82066312 24.2097714 33.81496994 25.99767599 33.81097412 27.7855835 C33.79571357 32.48757574 33.75642824 37.18907246 33.7121582 41.89086914 C33.66401382 47.53424845 33.64567348 53.17779361 33.62234497 58.82131958 C33.58357733 67.39164085 33.50692698 75.96087521 33.4375 84.53125 C18.2575 84.53125 3.0775 84.53125 -12.5625 84.53125 C-12.72293524 64.72641126 -12.72293524 64.72641126 -12.7578125 56.2890625 C-12.7817308 50.53012363 -12.81003603 44.77143897 -12.86425781 39.01269531 C-12.90769622 34.37020837 -12.93163301 29.72799399 -12.94200897 25.08531952 C-12.94940396 23.31345071 -12.96384463 21.54159693 -12.98542023 19.76984406 C-13.01442815 17.28926779 -13.01845719 14.80981996 -13.01660156 12.32910156 C-13.03098267 11.59542358 -13.04536377 10.86174561 -13.06018066 10.10583496 C-13.03277378 6.72334409 -12.78944562 4.84321588 -10.77655029 2.07623291 C-7.39796092 -0.28137516 -3.97237538 -0.04030527 0 0 Z " fill="#58629F" transform="translate(380.5625,353.46875)"/>
<path d="M0 0 C1.24245483 -0.00574036 1.24245483 -0.00574036 2.51000977 -0.01159668 C4.25831317 -0.01431425 6.00665734 -0.00696381 7.75488281 0.00976562 C10.42865777 0.03117918 13.09974596 0.00996056 15.7734375 -0.015625 C17.47396425 -0.01298169 19.17448934 -0.00785665 20.875 0 C22.07201538 -0.01214539 22.07201538 -0.01214539 23.29321289 -0.02453613 C26.59886615 0.03121715 28.90144232 0.15718445 31.65155029 2.07623291 C34.08741218 5.4246377 33.96967449 8.34607002 33.89160156 12.32910156 C33.89218567 13.10997131 33.89276978 13.89084106 33.89337158 14.69537354 C33.89058923 17.27132935 33.85949135 19.84612185 33.828125 22.421875 C33.82066312 24.2097714 33.81496994 25.99767599 33.81097412 27.7855835 C33.79571357 32.48757574 33.75642824 37.18907246 33.7121582 41.89086914 C33.66401382 47.53424845 33.64567348 53.17779361 33.62234497 58.82131958 C33.58357733 67.39164085 33.50692698 75.96087521 33.4375 84.53125 C18.2575 84.53125 3.0775 84.53125 -12.5625 84.53125 C-12.72293524 64.72641126 -12.72293524 64.72641126 -12.7578125 56.2890625 C-12.7817308 50.53012363 -12.81003603 44.77143897 -12.86425781 39.01269531 C-12.90769622 34.37020837 -12.93163301 29.72799399 -12.94200897 25.08531952 C-12.94940396 23.31345071 -12.96384463 21.54159693 -12.98542023 19.76984406 C-13.01442815 17.28926779 -13.01845719 14.80981996 -13.01660156 12.32910156 C-13.03098267 11.59542358 -13.04536377 10.86174561 -13.06018066 10.10583496 C-13.03277378 6.72334409 -12.78944562 4.84321588 -10.77655029 2.07623291 C-7.39796092 -0.28137516 -3.97237538 -0.04030527 0 0 Z " fill="#58629F" transform="translate(110.5625,353.46875)"/>
<path d="M0 0 C4.15490943 0.73818188 5.38841252 2.31528954 8.140625 5.484375 C8.6054126 6.01651611 9.0702002 6.54865723 9.54907227 7.09692383 C15.74104065 14.30191833 21.44282983 21.90430261 27.078125 29.546875 C27.60083984 30.25005859 28.12355469 30.95324219 28.66210938 31.67773438 C42.39990679 50.24185962 58.13372321 72.29785261 54.65234375 96.5078125 C51.35710086 111.5891082 43.59382871 124.7362584 30.703125 133.421875 C25.41180302 136.58176306 19.94244112 138.70437027 14.078125 140.546875 C13.088125 140.876875 12.098125 141.206875 11.078125 141.546875 C-1.52271675 142.62913908 -13.65670087 142.78069327 -24.921875 136.546875 C-25.8809375 136.03898438 -26.84 135.53109375 -27.828125 135.0078125 C-41.52279927 127.06941615 -49.62321622 114.47501598 -53.859375 99.421875 C-58.06966474 79.37665909 -49.00258678 62.36837705 -38.40283203 45.97167969 C-30.01352921 33.27957301 -20.71124537 21.18433212 -10.921875 9.546875 C-10.22191406 8.66515625 -9.52195313 7.7834375 -8.80078125 6.875 C-8.11886719 6.04484375 -7.43695313 5.2146875 -6.734375 4.359375 C-6.14269531 3.62332031 -5.55101562 2.88726562 -4.94140625 2.12890625 C-2.921875 0.546875 -2.921875 0.546875 0 0 Z M-2.24365234 13.83764648 C-2.99316162 14.74365601 -2.99316162 14.74365601 -3.7578125 15.66796875 C-4.32145508 16.34738525 -4.88509766 17.02680176 -5.46582031 17.72680664 C-6.07006836 18.4718042 -6.67431641 19.21680176 -7.296875 19.984375 C-7.92174805 20.75064209 -8.54662109 21.51690918 -9.19042969 22.30639648 C-36.0088935 54.96607942 -36.0088935 54.96607942 -44.921875 94.546875 C-42.785493 106.29697599 -36.11351283 117.22274312 -26.5 124.33984375 C-21.223207 127.65832382 -15.89971598 129.84765231 -9.921875 131.546875 C-8.931875 131.876875 -7.941875 132.206875 -6.921875 132.546875 C6.47775685 133.63526054 18.29757671 130.74292403 29.078125 122.546875 C38.15635464 114.43973637 44.19107397 103.87358298 45.3515625 91.671875 C46.16041782 66.78401886 25.23266916 42.59271489 10.35058594 24.13671875 C9.11110116 22.58807622 7.89502382 21.02079009 6.6796875 19.453125 C5.60847656 18.07640625 5.60847656 18.07640625 4.515625 16.671875 C3.58556641 15.46917969 3.58556641 15.46917969 2.63671875 14.2421875 C2.12238281 13.68273437 1.60804688 13.12328125 1.078125 12.546875 C-0.99130572 12.31398647 -0.99130572 12.31398647 -2.24365234 13.83764648 Z " fill="#323370" transform="translate(255.921875,157.453125)"/>
<path d="M0 0 C27.72 0 55.44 0 84 0 C84 12.54 84 25.08 84 38 C56.28 38 28.56 38 0 38 C0 25.46 0 12.92 0 0 Z " fill="#D3D5EA" transform="translate(214,24)"/>
<path d="M0 0 C21.31979517 -0.89038588 21.31979517 -0.89038588 29.05078125 5.765625 C40.75327784 18.07384087 37 31.73192477 37 49 C98.38 49 159.76 49 223 49 C223 39.1 223 29.2 223 19 C227.46331487 10.07337027 230.77523306 3.71376523 240.3359375 0.45703125 C246.7913136 -0.65041597 253.47731031 -0.20012798 260 0 C260 3.3 260 6.6 260 10 C258.15535156 10.02126953 258.15535156 10.02126953 256.2734375 10.04296875 C254.64058842 10.0898897 253.00777708 10.13813697 251.375 10.1875 C250.56675781 10.19330078 249.75851562 10.19910156 248.92578125 10.20507812 C242.91859249 10.42485332 240.14343669 11.59520807 236 16 C230.91188749 26.17622501 233.379035 38.62895005 233 50 C165.02 50 97.04 50 27 50 C26.67 40.1 26.34 30.2 26 20 C22.36218379 14.04926413 22.36218379 14.04926413 17 11 C14.06423067 10.53122741 11.15643016 10.39960189 8.1875 10.3125 C7.39923828 10.27833984 6.61097656 10.24417969 5.79882812 10.20898438 C3.86636881 10.12700125 1.93320965 10.06181155 0 10 C0 6.7 0 3.4 0 0 Z " fill="#DFDFE4" transform="translate(126,335)"/>
<path d="M0 0 C1.27617187 0.02320313 2.55234375 0.04640625 3.8671875 0.0703125 C5.78917969 0.09738281 5.78917969 0.09738281 7.75 0.125 C9.23113281 0.15980469 9.23113281 0.15980469 10.7421875 0.1953125 C10.4121875 1.1853125 10.0821875 2.1753125 9.7421875 3.1953125 C9.62909486 5.44351858 9.57558928 7.69486805 9.55273438 9.94580078 C9.54444107 10.62738251 9.53614777 11.30896423 9.52760315 12.01119995 C9.5102221 13.48932721 9.49504998 14.96748171 9.48182678 16.44565201 C9.46079201 18.78178336 9.43377235 21.11777698 9.40515137 23.4538269 C9.33533544 29.25320592 9.27582325 35.05268241 9.21612549 40.85217285 C9.16527495 45.75634568 9.11048892 50.66044285 9.05030823 55.56451035 C9.0236553 57.87177054 9.00289205 60.17903752 8.9822998 62.48635864 C8.96570491 63.89211366 8.9488338 65.29786545 8.93164062 66.70361328 C8.91911255 67.93588654 8.90658447 69.16815979 8.89367676 70.43777466 C8.7421875 73.1953125 8.7421875 73.1953125 7.7421875 74.1953125 C5.55579297 74.26790196 3.36718361 74.27905033 1.1796875 74.2578125 C-0.01785156 74.24878906 -1.21539062 74.23976563 -2.44921875 74.23046875 C-3.83947266 74.21306641 -3.83947266 74.21306641 -5.2578125 74.1953125 C-5.30409148 64.84223639 -5.33965903 55.48919951 -5.36143684 46.13603401 C-5.3718875 41.79328501 -5.38606997 37.45061417 -5.40869141 33.10791016 C-5.43037424 28.91932275 -5.44237146 24.73081066 -5.44756699 20.54217148 C-5.45127097 18.9417286 -5.45850363 17.34128999 -5.46927261 15.74087906 C-5.48372713 13.50440718 -5.48579301 11.26824913 -5.48486328 9.03173828 C-5.4893045 7.75710724 -5.49374573 6.4824762 -5.49832153 5.16921997 C-5.15103615 0.87501699 -4.2726225 0.25615243 0 0 Z " fill="#7981B2" transform="translate(374.2578125,354.8046875)"/>
<path d="M0 0 C1.77503906 0.03480469 1.77503906 0.03480469 3.5859375 0.0703125 C5.36871094 0.09738281 5.36871094 0.09738281 7.1875 0.125 C8.10273437 0.14820313 9.01796875 0.17140625 9.9609375 0.1953125 C9.80017227 0.71341492 9.63940704 1.23151733 9.47377014 1.76531982 C8.8123111 4.89955992 8.79595655 7.87094221 8.75561523 11.07519531 C8.74076584 12.10019638 8.74076584 12.10019638 8.72561646 13.14590454 C8.69411706 15.39671404 8.66928998 17.64754461 8.64453125 19.8984375 C8.62395173 21.46214333 8.60295499 23.02584372 8.58155823 24.58953857 C8.52644064 28.69941801 8.47698602 32.80934678 8.42871094 36.91931152 C8.37842048 41.11552304 8.32277384 45.31166315 8.26757812 49.5078125 C8.16012273 57.73692036 8.05914504 65.96608908 7.9609375 74.1953125 C3.6709375 74.1953125 -0.6190625 74.1953125 -5.0390625 74.1953125 C-5.08534148 64.84223639 -5.12090903 55.48919951 -5.14268684 46.13603401 C-5.1531375 41.79328501 -5.16731997 37.45061417 -5.18994141 33.10791016 C-5.21162424 28.91932275 -5.22362146 24.73081066 -5.22881699 20.54217148 C-5.23252097 18.9417286 -5.23975363 17.34128999 -5.25052261 15.74087906 C-5.26497713 13.50440718 -5.26704301 11.26824913 -5.26611328 9.03173828 C-5.2705545 7.75710724 -5.27499573 6.4824762 -5.27957153 5.16921997 C-4.94441751 1.02502192 -4.146745 0.26650032 0 0 Z " fill="#7981B2" transform="translate(104.0390625,354.8046875)"/>
<path d="M0 0 C27.72 0 55.44 0 84 0 C84 2.97 84 5.94 84 9 C56.28 9 28.56 9 0 9 C0 6.03 0 3.06 0 0 Z " fill="#BFC1D4" transform="translate(214,53)"/>
<path d="M0 0 C0.33 0 0.66 0 1 0 C1 23.43 1 46.86 1 71 C7.435 70.505 7.435 70.505 14 70 C24.23 70 34.46 70 45 70 C45 46.9 45 23.8 45 0 C45.33 0 45.66 0 46 0 C46 26.4 46 52.8 46 80 C30.82 80 15.64 80 0 80 C0 53.6 0 27.2 0 0 Z " fill="#4D558E" transform="translate(368,358)"/>
<path d="M0 0 C21.31979517 -0.89038588 21.31979517 -0.89038588 29.05078125 5.765625 C36.67746888 13.78706872 37.37485263 21.31263461 37.10546875 32 C37.07066406 32.99 37.03585937 33.98 37 35 C35.71086513 35.67154933 34.41859796 36.33708859 33.125 37 C32.40570313 37.37125 31.68640625 37.7425 30.9453125 38.125 C29 39 29 39 27 39 C26.97421875 37.69804687 26.9484375 36.39609375 26.921875 35.0546875 C26.86557299 33.32809244 26.80822613 31.60153124 26.75 29.875 C26.73582031 29.0190625 26.72164063 28.163125 26.70703125 27.28125 C26.49457558 21.75740251 25.79051637 18.30027546 22 14 C17.74904258 10.45879391 13.49084695 10.46808855 8.1875 10.3125 C7.39923828 10.27833984 6.61097656 10.24417969 5.79882812 10.20898438 C3.86636881 10.12700125 1.93320965 10.06181155 0 10 C0 6.7 0 3.4 0 0 Z " fill="#BBBCD1" transform="translate(396,335)"/>
<path d="M0 0 C0.87011719 0.01804687 1.74023438 0.03609375 2.63671875 0.0546875 C4.75829907 0.10131564 6.87930335 0.17303923 9 0.25 C9 3.22 9 6.19 9 9.25 C7.99839844 9.27578125 6.99679688 9.3015625 5.96484375 9.328125 C-4.21869614 9.57807294 -4.21869614 9.57807294 -13 14.25 C-17.3496232 19.41368112 -17.64287098 23.65830305 -17.75 30.125 C-17.77964844 31.00414062 -17.80929688 31.88328125 -17.83984375 32.7890625 C-17.91005559 34.94222545 -17.95734881 37.09611485 -18 39.25 C-21.48670834 38.1405928 -24.77484237 36.98662334 -28 35.25 C-28.45514515 23.39936889 -28.09011626 15.22320062 -20.20703125 6.07421875 C-13.82064237 0.7955575 -8.14902606 -0.32546033 0 0 Z " fill="#BFC1D3" transform="translate(107,334.75)"/>
<path d="M0 0 C0.33 0 0.66 0 1 0 C1 26.4 1 52.8 1 80 C-9.23 80 -19.46 80 -30 80 C-30 76.7 -30 73.4 -30 70 C-20.1 70 -10.2 70 0 70 C0 46.9 0 23.8 0 0 Z " fill="#4D558E" transform="translate(143,358)"/>
<path d="M0 0 C0.33 0 0.66 0 1 0 C1 23.43 1 46.86 1 71 C5.29 71 9.58 71 14 71 C14 47.9 14 24.8 14 1 C14.33 1 14.66 1 15 1 C15 27.07 15 53.14 15 80 C10.05 80 5.1 80 0 80 C0 53.6 0 27.2 0 0 Z " fill="#666C9E" transform="translate(98,358)"/>
<path d="M0 0 C0.33 0 0.66 0 1 0 C1 23.43 1 46.86 1 71 C5.62 70.67 10.24 70.34 15 70 C15 73.3 15 76.6 15 80 C10.05 80 5.1 80 0 80 C0 53.6 0 27.2 0 0 Z " fill="#626798" transform="translate(368,358)"/>
</svg>
