<svg width="512" height="512" version="1.1" xmlns="http://www.w3.org/2000/svg" desc="Created with imagetracer.js version 1.2.6" ><path fill="rgb(0,0,0)" stroke="rgb(0,0,0)" stroke-width="1" opacity="0.8" d="M 97.5 0 L 100 0.5 L 97.5 1 L 97.5 0 Z " /><path fill="rgb(0,0,0)" stroke="rgb(0,0,0)" stroke-width="1" opacity="0.8" d="M 207.5 0 L 210 0.5 L 207.5 1 L 207.5 0 Z " /><path fill="rgb(0,0,0)" stroke="rgb(0,0,0)" stroke-width="1" opacity="0.8" d="M 89.5 3 L 88.5 5 L 89.5 3 Z " /><path fill="rgb(0,0,0)" stroke="rgb(0,0,0)" stroke-width="1" opacity="0.8" d="M 86.5 5 L 82.5 10 L 86.5 5 Z " /><path fill="rgb(0,0,0)" stroke="rgb(0,0,0)" stroke-width="1" opacity="0.8" d="M 220.5 5 L 225.5 11 L 220.5 5 Z " /><path fill="rgb(0,0,0)" stroke="rgb(0,0,0)" stroke-width="1" opacity="0.8" d="M 77.5 19 L 78 21.5 L 77 21.5 L 77.5 19 Z " /><path fill="rgb(0,0,0)" stroke="rgb(0,0,0)" stroke-width="1" opacity="0.8" d="M 230.5 26 L 231 33.5 L 230 33.5 L 230.5 26 Z " /><path fill="rgb(0,0,0)" stroke="rgb(0,0,0)" stroke-width="1" opacity="0.8" d="M 79.5 44 L 81 46.5 L 79 45.5 L 79.5 44 Z " /><path fill="rgb(0,0,0)" stroke="rgb(0,0,0)" stroke-width="1" opacity="0.8" d="M 226.5 47 L 225.5 49 L 226.5 47 Z " /><path fill="rgb(0,0,0)" stroke="rgb(0,0,0)" stroke-width="1" opacity="0.8" d="M 81.5 48 L 82.5 50 L 81.5 48 Z " /><path fill="rgb(0,0,0)" stroke="rgb(0,0,0)" stroke-width="1" opacity="0.8" d="M 223.5 51 L 222.5 53 L 223.5 51 Z " /><path fill="rgb(0,0,0)" stroke="rgb(0,0,0)" stroke-width="1" opacity="0.8" d="M 87.5 54 L 88.5 56 L 87.5 54 Z " /><path fill="rgb(0,0,0)" stroke="rgb(0,0,0)" stroke-width="1" opacity="0.8" d="M 219.5 54 L 218.5 56 L 219.5 54 Z " /><path fill="rgb(0,0,0)" stroke="rgb(0,0,0)" stroke-width="1" opacity="0.8" d="M 255.5 85 L 274 85.5 L 255.5 86 L 255.5 85 Z " /><path fill="rgb(0,0,0)" stroke="rgb(0,0,0)" stroke-width="1" opacity="0.8" d="M 244.5 86 L 249 86.5 L 244.5 87 L 244.5 86 Z " /><path fill="rgb(0,0,0)" stroke="rgb(0,0,0)" stroke-width="1" opacity="0.8" d="M 281.5 86 L 285 86.5 L 281.5 87 L 281.5 86 Z " /><path fill="rgb(0,0,0)" stroke="rgb(0,0,0)" stroke-width="1" opacity="0.8" d="M 237.5 87 L 240 87.5 L 237.5 88 L 237.5 87 Z " /><path fill="rgb(0,0,0)" stroke="rgb(0,0,0)" stroke-width="1" opacity="0.8" d="M 289.5 87 L 292 87.5 L 289.5 88 L 289.5 87 Z " /><path fill="rgb(0,0,0)" stroke="rgb(0,0,0)" stroke-width="1" opacity="0.8" d="M 295.5 88 L 298 88.5 L 295.5 89 L 295.5 88 Z " /><path fill="rgb(0,0,0)" stroke="rgb(0,0,0)" stroke-width="1" opacity="0.8" d="M 300.5 89 L 303 89.5 L 300.5 90 L 300.5 89 Z " /><path fill="rgb(0,0,0)" stroke="rgb(0,0,0)" stroke-width="1" opacity="0.8" d="M 350.5 108 L 351.5 110 L 350.5 108 Z " /><path fill="rgb(0,0,0)" stroke="rgb(0,0,0)" stroke-width="1" opacity="0.8" d="M 355.5 111 L 356.5 113 L 355.5 111 Z " /><path fill="rgb(0,0,0)" stroke="rgb(0,0,0)" stroke-width="1" opacity="0.8" d="M 358.5 113 L 359.5 115 L 358.5 113 Z " /><path fill="rgb(0,0,0)" stroke="rgb(0,0,0)" stroke-width="1" opacity="0.8" d="M 361.5 115 L 362.5 117 L 361.5 115 Z " /><path fill="rgb(0,0,0)" stroke="rgb(0,0,0)" stroke-width="1" opacity="0.8" d="M 365.5 118 L 366.5 120 L 365.5 118 Z " /><path fill="rgb(0,0,0)" stroke="rgb(0,0,0)" stroke-width="1" opacity="0.8" d="M 369.5 121 L 371.5 124 L 369.5 121 Z " /><path fill="rgb(0,0,0)" stroke="rgb(0,0,0)" stroke-width="1" opacity="0.8" d="M 374.5 125 L 377.5 129 L 374.5 125 Z " /><path fill="rgb(0,0,0)" stroke="rgb(0,0,0)" stroke-width="1" opacity="0.8" d="M 384.5 134 L 386.5 137 L 384.5 134 Z " /><path fill="rgb(0,0,0)" stroke="rgb(0,0,0)" stroke-width="1" opacity="0.8" d="M 391.5 142 L 395.5 147 L 391.5 142 Z " /><path fill="rgb(0,0,0)" stroke="rgb(0,0,0)" stroke-width="1" opacity="0.8" d="M 397.5 149 L 399.5 152 L 397.5 149 Z " /><path fill="rgb(0,0,0)" stroke="rgb(0,0,0)" stroke-width="1" opacity="0.8" d="M 401.5 154 L 402.5 156 L 401.5 154 Z " /><path fill="rgb(0,0,0)" stroke="rgb(0,0,0)" stroke-width="1" opacity="0.8" d="M 403.5 157 L 404.5 159 L 403.5 157 Z " /><path fill="rgb(0,0,0)" stroke="rgb(0,0,0)" stroke-width="1" opacity="0.8" d="M 409.5 166 L 410.5 168 L 409.5 166 Z " /><path fill="rgb(0,0,0)" stroke="rgb(0,0,0)" stroke-width="1" opacity="0.8" d="M 431.5 220 L 432 222.5 L 431 222.5 L 431.5 220 Z " /><path fill="rgb(0,0,0)" stroke="rgb(0,0,0)" stroke-width="1" opacity="0.8" d="M 432.5 225 L 433 227.5 L 432 227.5 L 432.5 225 Z " /><path fill="rgb(0,0,0)" stroke="rgb(0,0,0)" stroke-width="1" opacity="0.8" d="M 433.5 231 L 434 234.5 L 433 234.5 L 433.5 231 Z " /><path fill="rgb(0,0,0)" stroke="rgb(0,0,0)" stroke-width="1" opacity="0.8" d="M 434.5 240 L 435 245.5 L 434 245.5 L 434.5 240 Z " /><path fill="rgb(0,0,0)" stroke="rgb(0,0,0)" stroke-width="1" opacity="0.8" d="M 94.5 264 L 95 270.5 L 94 270.5 L 94.5 264 Z " /><path fill="rgb(0,0,0)" stroke="rgb(0,0,0)" stroke-width="1" opacity="0.8" d="M 434.5 265 L 435 271.5 L 434 271.5 L 434.5 265 Z " /><path fill="rgb(0,0,0)" stroke="rgb(0,0,0)" stroke-width="1" opacity="0.8" d="M 95.5 276 L 96 279.5 L 95 279.5 L 95.5 276 Z " /><path fill="rgb(0,0,0)" stroke="rgb(0,0,0)" stroke-width="1" opacity="0.8" d="M 433.5 277 L 434 279.5 L 433 279.5 L 433.5 277 Z " /><path fill="rgb(0,0,0)" stroke="rgb(0,0,0)" stroke-width="1" opacity="0.8" d="M 96.5 283 L 97 285.5 L 96 285.5 L 96.5 283 Z " /><path fill="rgb(0,0,0)" stroke="rgb(0,0,0)" stroke-width="1" opacity="0.8" d="M 432.5 284 L 433 286.5 L 432 286.5 L 432.5 284 Z " /><path fill="rgb(0,0,0)" stroke="rgb(0,0,0)" stroke-width="1" opacity="0.8" d="M 431.5 289 L 432 291.5 L 431 291.5 L 431.5 289 Z " /><path fill="rgb(0,0,0)" stroke="rgb(0,0,0)" stroke-width="1" opacity="0.8" d="M 98.5 293 L 99 295.5 L 98 295.5 L 98.5 293 Z " /><path fill="rgb(0,0,0)" stroke="rgb(0,0,0)" stroke-width="1" opacity="0.8" d="M 415.5 335 L 414.5 337 L 415.5 335 Z " /><path fill="rgb(0,0,0)" stroke="rgb(0,0,0)" stroke-width="1" opacity="0.8" d="M 117.5 342 L 118.5 344 L 117.5 342 Z " /><path fill="rgb(0,0,0)" stroke="rgb(0,0,0)" stroke-width="1" opacity="0.8" d="M 411.5 342 L 410.5 344 L 411.5 342 Z " /><path fill="rgb(0,0,0)" stroke="rgb(0,0,0)" stroke-width="1" opacity="0.8" d="M 408.5 347 L 407.5 349 L 408.5 347 Z " /><path fill="rgb(0,0,0)" stroke="rgb(0,0,0)" stroke-width="1" opacity="0.8" d="M 406.5 350 L 405.5 352 L 406.5 350 Z " /><path fill="rgb(0,0,0)" stroke="rgb(0,0,0)" stroke-width="1" opacity="0.8" d="M 404.5 353 L 403.5 355 L 404.5 353 Z " /><path fill="rgb(0,0,0)" stroke="rgb(0,0,0)" stroke-width="1" opacity="0.8" d="M 125.5 354 L 126.5 356 L 125.5 354 Z " /><path fill="rgb(0,0,0)" stroke="rgb(0,0,0)" stroke-width="1" opacity="0.8" d="M 127.5 357 L 129.5 360 L 127.5 357 Z " /><path fill="rgb(0,0,0)" stroke="rgb(0,0,0)" stroke-width="1" opacity="0.8" d="M 401.5 357 L 400.5 359 L 401.5 357 Z " /><path fill="rgb(0,0,0)" stroke="rgb(0,0,0)" stroke-width="1" opacity="0.8" d="M 398.5 361 L 396.5 364 L 398.5 361 Z " /><path fill="rgb(0,0,0)" stroke="rgb(0,0,0)" stroke-width="1" opacity="0.8" d="M 131.5 362 L 133.5 365 L 131.5 362 Z " /><path fill="rgb(0,0,0)" stroke="rgb(0,0,0)" stroke-width="1" opacity="0.8" d="M 394.5 366 L 388.5 373 L 394.5 366 Z " /><path fill="rgb(0,0,0)" stroke="rgb(0,0,0)" stroke-width="1" opacity="0.8" d="M 135.5 367 L 143.5 376 L 135.5 367 Z " /><path fill="rgb(0,0,0)" stroke="rgb(0,0,0)" stroke-width="1" opacity="0.8" d="M 146.5 378 L 152.5 385 L 146.5 378 Z " /><path fill="rgb(0,0,0)" stroke="rgb(0,0,0)" stroke-width="1" opacity="0.8" d="M 380.5 380 L 375.5 386 L 380.5 380 Z " /><path fill="rgb(0,0,0)" stroke="rgb(0,0,0)" stroke-width="1" opacity="0.8" d="M 156.5 387 L 158.5 390 L 156.5 387 Z " /><path fill="rgb(0,0,0)" stroke="rgb(0,0,0)" stroke-width="1" opacity="0.8" d="M 372.5 387 L 370.5 390 L 372.5 387 Z " /><path fill="rgb(0,0,0)" stroke="rgb(0,0,0)" stroke-width="1" opacity="0.8" d="M 161.5 391 L 162.5 393 L 161.5 391 Z " /><path fill="rgb(0,0,0)" stroke="rgb(0,0,0)" stroke-width="1" opacity="0.8" d="M 367.5 391 L 365.5 394 L 367.5 391 Z " /><path fill="rgb(0,0,0)" stroke="rgb(0,0,0)" stroke-width="1" opacity="0.8" d="M 165.5 394 L 166.5 396 L 165.5 394 Z " /><path fill="rgb(0,0,0)" stroke="rgb(0,0,0)" stroke-width="1" opacity="0.8" d="M 363.5 394 L 362.5 396 L 363.5 394 Z " /><path fill="rgb(0,0,0)" stroke="rgb(0,0,0)" stroke-width="1" opacity="0.8" d="M 168.5 396 L 169.5 398 L 168.5 396 Z " /><path fill="rgb(0,0,0)" stroke="rgb(0,0,0)" stroke-width="1" opacity="0.8" d="M 360.5 396 L 359.5 398 L 360.5 396 Z " /><path fill="rgb(0,0,0)" stroke="rgb(0,0,0)" stroke-width="1" opacity="0.8" d="M 171.5 398 L 172.5 400 L 171.5 398 Z " /><path fill="rgb(0,0,0)" stroke="rgb(0,0,0)" stroke-width="1" opacity="0.8" d="M 357.5 398 L 356.5 400 L 357.5 398 Z " /><path fill="rgb(0,0,0)" stroke="rgb(0,0,0)" stroke-width="1" opacity="0.8" d="M 354.5 400 L 353.5 402 L 354.5 400 Z " /><path fill="rgb(0,0,0)" stroke="rgb(0,0,0)" stroke-width="1" opacity="0.8" d="M 181.5 404 L 182.5 406 L 181.5 404 Z " /><path fill="rgb(0,0,0)" stroke="rgb(0,0,0)" stroke-width="1" opacity="0.8" d="M 347.5 404 L 346.5 406 L 347.5 404 Z " /><path fill="rgb(0,0,0)" stroke="rgb(0,0,0)" stroke-width="1" opacity="0.8" d="M 201.5 452 L 205 452.5 L 201.5 453 L 201.5 452 Z " /><path fill="rgb(0,0,0)" stroke="rgb(0,0,0)" stroke-width="1" opacity="0.8" d="M 324.5 452 L 328 452.5 L 324.5 453 L 324.5 452 Z " /><path fill="rgb(0,0,0)" stroke="rgb(0,0,0)" stroke-width="1" opacity="0.8" d="M 338.5 456 L 341.5 460 L 338.5 456 Z " /><path fill="rgb(0,0,0)" stroke="rgb(0,0,0)" stroke-width="1" opacity="0.8" d="M 189.5 457 L 184.5 463 L 189.5 457 Z " /><path fill="rgb(0,0,0)" stroke="rgb(0,0,0)" stroke-width="1" opacity="0.8" d="M 343.5 461 L 345.5 464 L 343.5 461 Z " /><path fill="rgb(0,0,0)" stroke="rgb(0,0,0)" stroke-width="1" opacity="0.8" d="M 179.5 473 L 180 490.5 L 179 490.5 L 179.5 473 Z " /><path fill="rgb(0,0,0)" stroke="rgb(0,0,0)" stroke-width="1" opacity="0.8" d="M 349.5 473 L 350 490.5 L 349 490.5 L 349.5 473 Z " /><path fill="rgb(0,0,0)" stroke="rgb(0,0,0)" stroke-width="1" opacity="0.8" d="M 183.5 500 L 184.5 502 L 183.5 500 Z " /><path fill="rgb(0,0,0)" stroke="rgb(0,0,0)" stroke-width="1" opacity="0.8" d="M 345.5 500 L 344.5 502 L 345.5 500 Z " /><path fill="rgb(0,0,0)" stroke="rgb(0,0,0)" stroke-width="1" opacity="0.8" d="M 189.5 506 L 190.5 508 L 189.5 506 Z " /><path fill="rgb(0,0,0)" stroke="rgb(0,0,0)" stroke-width="1" opacity="0.8" d="M 339.5 506 L 338.5 508 L 339.5 506 Z " /><path fill="rgb(0,0,0)" stroke="rgb(0,0,0)" stroke-width="1" opacity="0.8" d="M 336.5 508 L 335.5 510 L 334 509.5 L 336.5 508 Z " /><path fill="rgb(0,0,0)" stroke="rgb(0,0,0)" stroke-width="1" opacity="0.8" d="M 199.5 511 L 203 511.5 L 199.5 512 L 199.5 511 Z " /><path fill="rgb(0,0,0)" stroke="rgb(0,0,0)" stroke-width="1" opacity="0.8" d="M 326.5 511 L 330 511.5 L 326.5 512 L 326.5 511 Z " /><path fill="rgb(0,0,0)" stroke="rgb(0,0,0)" stroke-width="1" opacity="0" d="M 0 0 L 97 0.5 Q 86.9 2.4 82 9.5 L 77 19.5 L 77 39.5 Q 80.1 50.4 88.5 56 L 94 58 L 94 270.5 L 95 271.5 L 96 285.5 L 103 312.5 L 117 342.5 Q 131.6 366.9 152.5 385 L 172.5 400 L 205 416.5 L 205 451.5 L 201.5 452 Q 189.7 454.2 184 462.5 Q 176.3 471.3 179 490.5 Q 181.6 502.4 190.5 508 L 199 511.5 L 0 512 L 0 0 Z " /><path fill="rgb(0,0,0)" stroke="rgb(0,0,0)" stroke-width="1" opacity="0" d="M 210.5 0 L 512 0 L 512 512 L 330 511.5 Q 340.8 508.8 346 500.5 Q 352.4 491.4 350 473.5 Q 347.4 461.6 338.5 456 Q 332.5 452.2 324 452 L 324 416.5 L 325.5 415 Q 368.4 398.9 395 366.5 Q 416.7 341.7 428 306.5 L 432 291.5 L 434 272.5 L 435 271.5 L 435 240.5 L 429 208.5 L 421 186.5 Q 407 156 384.5 134 Q 360.3 109.7 325.5 96 L 306.5 90 L 291.5 87 L 274.5 86 L 273.5 85 L 255.5 85 L 254.5 86 L 237.5 87 L 213 93 L 213 58.5 L 214.5 58 L 224 51.5 L 230 40.5 L 231 26.5 L 229 16.5 Q 226.4 9.1 220.5 5 L 213.5 1 L 210.5 1 L 210.5 0 Z " /><path fill="rgb(0,0,0)" stroke="rgb(0,0,0)" stroke-width="1" opacity="1" d="M 100.5 0 L 206.5 0 L 218.5 4 L 226 11.5 Q 232.4 20.6 230 38.5 Q 227.6 48.6 220.5 54 L 213 58.5 L 213.5 94 L 217.5 92 L 240.5 87 L 248.5 87 L 249.5 86 L 280.5 86 L 315.5 93 Q 334 99 349.5 108 Q 373.1 121.9 391 141.5 Q 413.7 165.8 426 200.5 L 431 218.5 L 434 235.5 L 435 264.5 L 434 265.5 L 434 276.5 L 431 293.5 L 419 328.5 Q 404.5 358.5 381.5 380 Q 357.9 403.2 324 415 L 324 452.5 Q 324.3 453.8 330.5 453 L 343 460 L 349 471.5 L 349 492.5 Q 346.5 501 340.5 506 L 331.5 511 Q 326.8 509.7 325.5 512 L 203.5 512 Q 202.3 509.7 197.5 511 L 191.5 508 L 185 502.5 L 180 492.5 L 180 471.5 Q 183 461.1 191.5 456 Q 196.3 452 205 453 L 205 415.5 L 203.5 415 Q 168.1 401.4 144 376.5 Q 107.7 341.8 96 282.5 L 95 264.5 L 94 263.5 L 94 58.5 L 92.5 57 L 83 50.5 Q 74.6 41.9 77 22.5 Q 79 10.5 87.5 5 L 92.5 2 L 100.5 0 Z M 100 17 L 98 18 L 94 23 L 94 38 L 96 41 L 101 43 L 207 43 L 211 41 L 214 35 Q 215 25 212 21 L 208 17 L 100 17 Z M 111 60 L 111 271 L 116 298 L 124 320 Q 133 340 147 356 Q 170 383 205 398 L 234 407 L 245 408 L 246 409 L 256 409 L 257 410 L 274 410 L 275 409 L 291 408 L 317 401 Q 344 391 365 373 Q 387 353 402 326 Q 409 311 414 294 L 417 278 L 417 271 L 418 270 L 418 243 L 412 212 Q 401 179 381 156 Q 359 130 327 115 L 296 105 L 285 104 L 284 103 L 275 103 L 274 102 L 257 102 L 256 103 L 239 104 L 210 112 Q 179 125 157 146 L 149 145 L 145 140 L 146 134 Q 167 113 196 100 L 196 60 L 111 60 Z M 222 421 L 222 452 L 307 452 L 307 421 L 297 424 L 285 425 L 284 426 L 272 426 L 271 427 L 246 426 L 222 421 Z M 203 469 L 201 470 L 196 476 L 196 489 L 197 491 L 203 495 L 327 495 L 329 494 L 333 489 L 333 476 L 332 474 L 327 469 L 203 469 Z " /><path fill="rgb(0,0,0)" stroke="rgb(0,0,0)" stroke-width="1" opacity="1" d="M 245.5 128 L 283.5 128 Q 291.4 130.1 295 136.5 L 304.5 151 L 337.5 170 L 355.5 170 Q 363.9 172.2 368 178.5 L 384 206.5 L 385 218.5 L 375 237.5 L 375 274.5 L 385 293.5 L 385 302.5 L 368 333.5 L 361.5 340 L 355.5 342 L 337.5 342 L 307.5 359 L 302 363.5 L 295 375.5 L 288.5 382 L 283.5 384 L 245.5 384 Q 237.6 381.9 234 375.5 L 223.5 360 L 191.5 342 L 173.5 342 Q 164.6 340.4 161 333.5 L 144 303.5 L 144 293.5 L 153 276.5 L 153 235.5 L 144 218.5 L 144 208.5 L 161 178.5 L 166.5 173 L 173.5 170 L 191.5 170 L 223.5 152 L 227 148.5 Q 231.8 137.3 240.5 130 L 245.5 128 Z M 250 145 L 240 160 L 235 165 L 198 186 L 177 187 L 161 213 L 161 216 L 170 232 L 170 281 L 161 297 L 163 304 L 174 323 L 177 325 L 198 326 L 236 348 L 240 353 L 247 365 L 250 367 L 280 367 L 289 353 L 297 346 L 332 326 L 353 325 L 368 300 L 368 297 L 359 281 L 359 232 L 368 216 L 366 209 L 355 190 L 353 187 L 332 186 L 295 165 Q 286 158 282 148 L 280 145 L 250 145 Z " /><path fill="rgb(0,0,0)" stroke="rgb(0,0,0)" stroke-width="1" opacity="1" d="M 264.5 179 L 265.5 180 L 281.5 181 L 296.5 186 Q 313.1 193.9 324 207.5 Q 333.1 218.4 338 233.5 L 341 248.5 L 341 263.5 L 338 278.5 L 331 294.5 Q 323.5 307 312.5 316 Q 303.5 323.5 291.5 328 L 276.5 332 L 265.5 332 L 264.5 333 L 263.5 332 L 247.5 331 L 232.5 326 Q 215.9 318.1 205 304.5 Q 195 292.5 190 275.5 L 188 264.5 L 188 247.5 L 193 227.5 L 199 215.5 L 216.5 196 Q 225.5 188.5 237.5 184 L 252.5 180 L 263.5 180 L 264.5 179 Z M 260 196 L 246 199 L 229 208 Q 210 221 205 247 L 205 266 L 207 274 Q 210 285 217 293 L 235 308 L 246 313 L 260 316 L 269 316 L 284 313 L 301 304 Q 319 291 324 264 L 324 249 L 322 239 L 312 220 Q 302 207 287 200 L 277 197 L 260 196 Z " /><path fill="rgb(0,0,0)" stroke="rgb(0,0,0)" stroke-width="1" opacity="1" d="M 264.5 230 L 276.5 233 L 286 241.5 L 290 251.5 L 290 260.5 Q 287.6 271.6 279.5 277 L 271.5 281 Q 266 279.5 264.5 282 L 252.5 279 L 244 271.5 Q 237.8 265.2 239 251.5 Q 241.6 240.6 249.5 235 L 257.5 231 Q 263 232.5 264.5 230 Z M 264 247 L 261 248 L 256 254 L 257 261 L 264 265 L 269 264 L 273 259 L 272 252 Q 270 247 264 247 Z " /><path fill="rgb(130,144,149)" stroke="rgb(130,144,149)" stroke-width="1" opacity="1" d="M 101.5 17 L 206.5 17 L 212 21.5 L 213 23.5 L 213 36.5 L 208.5 42 L 99.5 42 L 95 38.5 L 94 36.5 L 94 23.5 L 98.5 18 L 101.5 17 Z " /><path fill="rgb(130,144,149)" stroke="rgb(130,144,149)" stroke-width="1" opacity="1" d="M 111 60 L 179 60 L 179 107.5 Q 159.8 118.8 145 134.5 Q 143.3 144.3 149.5 146 L 155.5 147 L 184.5 125 Q 198.9 115.9 216.5 110 L 249.5 103 L 279.5 103 L 302.5 107 L 319.5 115 Q 340.9 127.1 357 144.5 Q 379.5 168 392 201.5 L 398 222.5 L 399 233.5 L 400 234.5 L 400 242.5 L 401 243.5 L 401 268.5 L 400 269.5 L 400 278.5 L 398 289.5 L 389 318.5 Q 374.4 351.9 349.5 375 Q 331 393 305.5 404 L 279.5 409 L 249.5 409 L 219.5 403 Q 201.9 397.6 187.5 389 Q 166.9 376.6 151 359.5 Q 135.5 342.5 125 320.5 L 116 295.5 L 112 274.5 L 112 265.5 L 111 264.5 L 111 60 Z M 245 128 L 239 131 Q 231 139 226 150 L 193 169 L 172 170 L 166 173 L 157 185 L 143 211 L 144 220 L 153 237 L 153 276 L 143 296 L 144 305 L 161 335 Q 165 340 172 342 L 193 343 L 226 362 L 235 378 L 240 382 L 250 385 L 280 385 L 290 382 Q 299 374 303 362 L 337 343 L 358 342 L 364 339 Q 377 322 386 302 L 385 293 L 376 276 L 376 237 L 386 217 L 385 208 L 367 177 L 358 170 L 337 169 L 303 150 L 294 135 Q 291 130 285 128 L 245 128 Z " /><path fill="rgb(130,144,149)" stroke="rgb(130,144,149)" stroke-width="1" opacity="1" d="M 201.5 470 L 327.5 470 L 331 472.5 Q 334.3 477.2 333 486.5 L 328.5 494 L 325.5 495 L 203.5 495 L 198 491.5 Q 195.1 486.9 196 478.5 L 199.5 471 L 201.5 470 Z " /><path fill="rgb(2,143,215)" stroke="rgb(2,143,215)" stroke-width="1" opacity="1" d="M 249.5 145 L 279.5 145 L 281 146.5 L 292.5 164 L 331.5 186 L 352.5 187 L 354 188.5 L 368 214.5 L 358 234.5 L 358 277.5 L 368 299.5 L 352.5 325 L 331.5 326 L 290 350.5 L 279.5 367 L 249.5 367 L 248 365.5 L 237.5 349 L 197.5 326 L 176.5 325 L 175 323.5 L 162 301.5 L 161 297.5 L 170 280.5 L 170 231.5 L 161 212.5 L 176.5 187 L 197.5 186 L 239 161.5 L 249.5 145 Z M 259 179 L 243 182 L 235 185 Q 222 190 213 199 Q 193 215 188 246 L 188 267 L 192 283 L 199 297 L 210 311 L 225 322 L 235 327 L 247 331 L 258 332 L 259 333 L 271 333 L 287 330 Q 301 325 312 317 Q 335 300 341 266 L 341 247 L 338 233 Q 334 219 326 210 Q 313 193 293 184 L 278 180 L 259 179 Z " /><path fill="rgb(2,143,215)" stroke="rgb(2,143,215)" stroke-width="1" opacity="1" d="M 254.5 197 L 273.5 197 L 285.5 200 Q 301.1 206.4 311 218.5 L 321 236.5 L 324 250.5 L 324 261.5 L 321 275.5 L 317 284.5 Q 311.4 294.9 302.5 302 Q 294.1 309.1 282.5 313 L 273.5 315 L 254.5 315 Q 230.8 309.8 218 293.5 Q 210.8 284.7 207 272.5 L 205 262.5 L 205 249.5 Q 209.3 223.3 226.5 210 Q 237.6 200.6 254.5 197 Z M 261 230 L 251 234 Q 242 240 239 251 Q 237 264 243 271 Q 249 279 261 282 L 273 281 L 283 275 L 290 263 L 290 250 L 283 237 L 273 231 L 261 230 Z " /><path fill="rgb(2,143,215)" stroke="rgb(2,143,215)" stroke-width="1" opacity="1" d="M 261.5 248 Q 269.8 246.7 272 251.5 L 273 258.5 L 269.5 263 L 261.5 264 L 257 260.5 L 256 253.5 L 259.5 249 L 261.5 248 Z " /><path fill="rgb(77,89,95)" stroke="rgb(77,89,95)" stroke-width="1" opacity="1" d="M 97.5 18 L 95.5 21 L 97.5 18 Z " /><path fill="rgb(77,89,95)" stroke="rgb(77,89,95)" stroke-width="1" opacity="1" d="M 209.5 18 L 211.5 21 L 209.5 18 Z " /><path fill="rgb(77,89,95)" stroke="rgb(77,89,95)" stroke-width="1" opacity="1" d="M 213.5 25 L 214 34.5 L 213 34.5 L 213.5 25 Z " /><path fill="rgb(77,89,95)" stroke="rgb(77,89,95)" stroke-width="1" opacity="1" d="M 211.5 39 L 210.5 41 L 211.5 39 Z " /><path fill="rgb(77,89,95)" stroke="rgb(77,89,95)" stroke-width="1" opacity="1" d="M 100.5 42 L 207 42.5 L 100.5 43 L 100.5 42 Z " /><path fill="rgb(77,89,95)" stroke="rgb(77,89,95)" stroke-width="1" opacity="1" d="M 179 60 L 196 60 L 196 99.5 L 177.5 110 L 179 107.5 L 179 60 Z " /><path fill="rgb(77,89,95)" stroke="rgb(77,89,95)" stroke-width="1" opacity="1" d="M 256.5 102 L 274 102.5 L 256.5 103 L 256.5 102 Z " /><path fill="rgb(77,89,95)" stroke="rgb(77,89,95)" stroke-width="1" opacity="1" d="M 245.5 103 L 249 103.5 L 245.5 104 L 245.5 103 Z " /><path fill="rgb(77,89,95)" stroke="rgb(77,89,95)" stroke-width="1" opacity="1" d="M 280.5 103 L 284 103.5 L 280.5 104 L 280.5 103 Z " /><path fill="rgb(77,89,95)" stroke="rgb(77,89,95)" stroke-width="1" opacity="1" d="M 238.5 104 L 241 104.5 L 238.5 105 L 238.5 104 Z " /><path fill="rgb(77,89,95)" stroke="rgb(77,89,95)" stroke-width="1" opacity="1" d="M 288.5 104 L 291 104.5 L 288.5 105 L 288.5 104 Z " /><path fill="rgb(77,89,95)" stroke="rgb(77,89,95)" stroke-width="1" opacity="1" d="M 233.5 105 L 236 105.5 L 233.5 106 L 233.5 105 Z " /><path fill="rgb(77,89,95)" stroke="rgb(77,89,95)" stroke-width="1" opacity="1" d="M 293.5 105 L 296 105.5 L 293.5 106 L 293.5 105 Z " /><path fill="rgb(77,89,95)" stroke="rgb(77,89,95)" stroke-width="1" opacity="1" d="M 308.5 109 Q 354.1 122.9 381 155.5 Q 401.3 178.7 412 211.5 L 418 242.5 L 418 269.5 L 417 270.5 L 417 277.5 L 414 293.5 Q 409.5 311 402 325.5 Q 387.4 353.4 364.5 373 Q 340.8 393.8 306.5 404 L 306.5 403 Q 337.1 389.6 358 366.5 Q 378.7 344.2 391 313.5 L 395 301.5 L 400 278.5 L 401 243.5 L 400 242.5 L 400 234.5 L 399 233.5 L 398 222.5 L 389 193.5 Q 374.7 160.8 350.5 138 L 333.5 124 Q 322.5 115.5 308.5 110 L 308.5 109 Z " /><path fill="rgb(77,89,95)" stroke="rgb(77,89,95)" stroke-width="1" opacity="1" d="M 170.5 113 L 169.5 115 L 170.5 113 Z " /><path fill="rgb(77,89,95)" stroke="rgb(77,89,95)" stroke-width="1" opacity="1" d="M 167.5 115 L 166.5 117 L 167.5 115 Z " /><path fill="rgb(77,89,95)" stroke="rgb(77,89,95)" stroke-width="1" opacity="1" d="M 163.5 118 L 162.5 120 L 163.5 118 Z " /><path fill="rgb(77,89,95)" stroke="rgb(77,89,95)" stroke-width="1" opacity="1" d="M 159.5 121 L 158.5 123 L 159.5 121 Z " /><path fill="rgb(77,89,95)" stroke="rgb(77,89,95)" stroke-width="1" opacity="1" d="M 188.5 122 L 187.5 124 L 188.5 122 Z " /><path fill="rgb(77,89,95)" stroke="rgb(77,89,95)" stroke-width="1" opacity="1" d="M 154.5 125 L 151.5 129 L 154.5 125 Z " /><path fill="rgb(77,89,95)" stroke="rgb(77,89,95)" stroke-width="1" opacity="1" d="M 180.5 127 L 179.5 129 L 180.5 127 Z " /><path fill="rgb(77,89,95)" stroke="rgb(77,89,95)" stroke-width="1" opacity="1" d="M 177.5 129 L 176.5 131 L 177.5 129 Z " /><path fill="rgb(77,89,95)" stroke="rgb(77,89,95)" stroke-width="1" opacity="1" d="M 289.5 130 L 293.5 135 L 289.5 130 Z " /><path fill="rgb(77,89,95)" stroke="rgb(77,89,95)" stroke-width="1" opacity="1" d="M 238.5 131 L 235.5 135 L 238.5 131 Z " /><path fill="rgb(77,89,95)" stroke="rgb(77,89,95)" stroke-width="1" opacity="1" d="M 173.5 132 L 172.5 134 L 173.5 132 Z " /><path fill="rgb(77,89,95)" stroke="rgb(77,89,95)" stroke-width="1" opacity="1" d="M 170.5 134 L 168.5 137 L 170.5 134 Z " /><path fill="rgb(77,89,95)" stroke="rgb(77,89,95)" stroke-width="1" opacity="1" d="M 234.5 136 L 233.5 138 L 234.5 136 Z " /><path fill="rgb(77,89,95)" stroke="rgb(77,89,95)" stroke-width="1" opacity="1" d="M 164.5 139 L 160.5 144 L 164.5 139 Z " /><path fill="rgb(77,89,95)" stroke="rgb(77,89,95)" stroke-width="1" opacity="1" d="M 232.5 139 L 231.5 141 L 232.5 139 Z " /><path fill="rgb(77,89,95)" stroke="rgb(77,89,95)" stroke-width="1" opacity="1" d="M 298.5 142 L 299.5 144 L 298.5 142 Z " /><path fill="rgb(77,89,95)" stroke="rgb(77,89,95)" stroke-width="1" opacity="1" d="M 151.5 146 L 156 146.5 L 151.5 147 L 151.5 146 Z " /><path fill="rgb(77,89,95)" stroke="rgb(77,89,95)" stroke-width="1" opacity="1" d="M 224.5 150 L 223.5 152 L 224.5 150 Z " /><path fill="rgb(77,89,95)" stroke="rgb(77,89,95)" stroke-width="1" opacity="1" d="M 311.5 154 L 312.5 156 L 311.5 154 Z " /><path fill="rgb(77,89,95)" stroke="rgb(77,89,95)" stroke-width="1" opacity="1" d="M 212.5 157 L 211.5 159 L 212.5 157 Z " /><path fill="rgb(77,89,95)" stroke="rgb(77,89,95)" stroke-width="1" opacity="1" d="M 205.5 161 L 204.5 163 L 205.5 161 Z " /><path fill="rgb(77,89,95)" stroke="rgb(77,89,95)" stroke-width="1" opacity="1" d="M 238.5 161 L 237.5 163 L 238.5 161 Z " /><path fill="rgb(77,89,95)" stroke="rgb(77,89,95)" stroke-width="1" opacity="1" d="M 290.5 161 L 292.5 164 L 290.5 161 Z " /><path fill="rgb(77,89,95)" stroke="rgb(77,89,95)" stroke-width="1" opacity="1" d="M 323.5 161 L 324.5 163 L 323.5 161 Z " /><path fill="rgb(77,89,95)" stroke="rgb(77,89,95)" stroke-width="1" opacity="1" d="M 198.5 165 L 197.5 167 L 198.5 165 Z " /><path fill="rgb(77,89,95)" stroke="rgb(77,89,95)" stroke-width="1" opacity="1" d="M 330.5 165 L 331.5 167 L 330.5 165 Z " /><path fill="rgb(77,89,95)" stroke="rgb(77,89,95)" stroke-width="1" opacity="1" d="M 182.5 169 L 192 169.5 L 182.5 170 L 182.5 169 Z " /><path fill="rgb(77,89,95)" stroke="rgb(77,89,95)" stroke-width="1" opacity="1" d="M 337.5 169 L 347 169.5 L 337.5 170 L 337.5 169 Z " /><path fill="rgb(77,89,95)" stroke="rgb(77,89,95)" stroke-width="1" opacity="1" d="M 168.5 171 L 170 171.5 L 167.5 173 L 168.5 171 Z " /><path fill="rgb(77,89,95)" stroke="rgb(77,89,95)" stroke-width="1" opacity="1" d="M 359.5 171 L 362 172.5 L 360.5 172 L 359.5 171 Z " /><path fill="rgb(77,89,95)" stroke="rgb(77,89,95)" stroke-width="1" opacity="1" d="M 165.5 173 L 162.5 177 L 165.5 173 Z " /><path fill="rgb(77,89,95)" stroke="rgb(77,89,95)" stroke-width="1" opacity="1" d="M 363.5 173 L 366.5 177 L 363.5 173 Z " /><path fill="rgb(77,89,95)" stroke="rgb(77,89,95)" stroke-width="1" opacity="1" d="M 258.5 179 L 264 179.5 L 258.5 180 L 258.5 179 Z " /><path fill="rgb(77,89,95)" stroke="rgb(77,89,95)" stroke-width="1" opacity="1" d="M 265.5 179 L 271 179.5 L 265.5 180 L 265.5 179 Z " /><path fill="rgb(77,89,95)" stroke="rgb(77,89,95)" stroke-width="1" opacity="1" d="M 186.5 186 L 192 186.5 L 186.5 187 L 186.5 186 Z " /><path fill="rgb(77,89,95)" stroke="rgb(77,89,95)" stroke-width="1" opacity="1" d="M 337.5 186 L 340 186.5 L 337.5 187 L 337.5 186 Z " /><path fill="rgb(77,89,95)" stroke="rgb(77,89,95)" stroke-width="1" opacity="1" d="M 373.5 188 L 374.5 190 L 373.5 188 Z " /><path fill="rgb(77,89,95)" stroke="rgb(77,89,95)" stroke-width="1" opacity="1" d="M 218.5 194 L 217.5 196 L 218.5 194 Z " /><path fill="rgb(77,89,95)" stroke="rgb(77,89,95)" stroke-width="1" opacity="1" d="M 151.5 195 L 150.5 197 L 151.5 195 Z " /><path fill="rgb(77,89,95)" stroke="rgb(77,89,95)" stroke-width="1" opacity="1" d="M 377.5 195 L 378.5 197 L 377.5 195 Z " /><path fill="rgb(77,89,95)" stroke="rgb(77,89,95)" stroke-width="1" opacity="1" d="M 259.5 196 L 270 196.5 L 259.5 197 L 259.5 196 Z " /><path fill="rgb(77,89,95)" stroke="rgb(77,89,95)" stroke-width="1" opacity="1" d="M 274.5 197 L 277 197.5 L 274.5 198 L 274.5 197 Z " /><path fill="rgb(77,89,95)" stroke="rgb(77,89,95)" stroke-width="1" opacity="1" d="M 212.5 199 L 208.5 204 L 212.5 199 Z " /><path fill="rgb(77,89,95)" stroke="rgb(77,89,95)" stroke-width="1" opacity="1" d="M 147.5 202 L 146.5 204 L 147.5 202 Z " /><path fill="rgb(77,89,95)" stroke="rgb(77,89,95)" stroke-width="1" opacity="1" d="M 381.5 202 L 382.5 204 L 381.5 202 Z " /><path fill="rgb(77,89,95)" stroke="rgb(77,89,95)" stroke-width="1" opacity="1" d="M 228.5 208 L 227.5 210 L 228.5 208 Z " /><path fill="rgb(77,89,95)" stroke="rgb(77,89,95)" stroke-width="1" opacity="1" d="M 300.5 208 L 301.5 210 L 300.5 208 Z " /><path fill="rgb(77,89,95)" stroke="rgb(77,89,95)" stroke-width="1" opacity="1" d="M 324.5 208 L 325.5 210 L 324.5 208 Z " /><path fill="rgb(77,89,95)" stroke="rgb(77,89,95)" stroke-width="1" opacity="1" d="M 143.5 210 L 144 216.5 L 143 216.5 L 143.5 210 Z " /><path fill="rgb(77,89,95)" stroke="rgb(77,89,95)" stroke-width="1" opacity="1" d="M 385.5 210 L 386 216.5 L 385 216.5 L 385.5 210 Z " /><path fill="rgb(77,89,95)" stroke="rgb(77,89,95)" stroke-width="1" opacity="1" d="M 383.5 221 L 384 222.5 L 382 223.5 L 383.5 221 Z " /><path fill="rgb(77,89,95)" stroke="rgb(77,89,95)" stroke-width="1" opacity="1" d="M 260.5 230 L 264 230.5 L 260.5 231 L 260.5 230 Z " /><path fill="rgb(77,89,95)" stroke="rgb(77,89,95)" stroke-width="1" opacity="1" d="M 265.5 230 L 269 230.5 L 265.5 231 L 265.5 230 Z " /><path fill="rgb(77,89,95)" stroke="rgb(77,89,95)" stroke-width="1" opacity="1" d="M 358.5 234 L 359 277.5 L 358 277.5 L 358.5 234 Z " /><path fill="rgb(77,89,95)" stroke="rgb(77,89,95)" stroke-width="1" opacity="1" d="M 375.5 237 L 376 274.5 L 375 274.5 L 375.5 237 Z " /><path fill="rgb(77,89,95)" stroke="rgb(77,89,95)" stroke-width="1" opacity="1" d="M 205.5 246 L 206 248.5 L 205 248.5 L 205.5 246 Z " /><path fill="rgb(77,89,95)" stroke="rgb(77,89,95)" stroke-width="1" opacity="1" d="M 263.5 247 L 266 247.5 L 263.5 248 L 263.5 247 Z " /><path fill="rgb(77,89,95)" stroke="rgb(77,89,95)" stroke-width="1" opacity="1" d="M 205.5 263 L 206 265.5 L 205 265.5 L 205.5 263 Z " /><path fill="rgb(77,89,95)" stroke="rgb(77,89,95)" stroke-width="1" opacity="1" d="M 263.5 264 L 266 264.5 L 263.5 265 L 263.5 264 Z " /><path fill="rgb(77,89,95)" stroke="rgb(77,89,95)" stroke-width="1" opacity="1" d="M 111.5 265 L 112 270.5 L 111 270.5 L 111.5 265 Z " /><path fill="rgb(77,89,95)" stroke="rgb(77,89,95)" stroke-width="1" opacity="1" d="M 112.5 275 L 113 278.5 L 112 278.5 L 112.5 275 Z " /><path fill="rgb(77,89,95)" stroke="rgb(77,89,95)" stroke-width="1" opacity="1" d="M 260.5 281 L 264 281.5 L 260.5 282 L 260.5 281 Z " /><path fill="rgb(77,89,95)" stroke="rgb(77,89,95)" stroke-width="1" opacity="1" d="M 265.5 281 L 269 281.5 L 265.5 282 L 265.5 281 Z " /><path fill="rgb(77,89,95)" stroke="rgb(77,89,95)" stroke-width="1" opacity="1" d="M 113.5 282 L 114 284.5 L 113 284.5 L 113.5 282 Z " /><path fill="rgb(77,89,95)" stroke="rgb(77,89,95)" stroke-width="1" opacity="1" d="M 143.5 295 L 144 301.5 L 143 301.5 L 143.5 295 Z " /><path fill="rgb(77,89,95)" stroke="rgb(77,89,95)" stroke-width="1" opacity="1" d="M 385.5 295 L 386 301.5 L 385 301.5 L 385.5 295 Z " /><path fill="rgb(77,89,95)" stroke="rgb(77,89,95)" stroke-width="1" opacity="1" d="M 203.5 302 L 204.5 304 L 203.5 302 Z " /><path fill="rgb(77,89,95)" stroke="rgb(77,89,95)" stroke-width="1" opacity="1" d="M 227.5 302 L 228.5 304 L 227.5 302 Z " /><path fill="rgb(77,89,95)" stroke="rgb(77,89,95)" stroke-width="1" opacity="1" d="M 301.5 302 L 300.5 304 L 301.5 302 Z " /><path fill="rgb(77,89,95)" stroke="rgb(77,89,95)" stroke-width="1" opacity="1" d="M 325.5 302 L 324.5 304 L 325.5 302 Z " /><path fill="rgb(77,89,95)" stroke="rgb(77,89,95)" stroke-width="1" opacity="1" d="M 382.5 308 L 381.5 310 L 382.5 308 Z " /><path fill="rgb(77,89,95)" stroke="rgb(77,89,95)" stroke-width="1" opacity="1" d="M 150.5 315 L 151.5 317 L 150.5 315 Z " /><path fill="rgb(77,89,95)" stroke="rgb(77,89,95)" stroke-width="1" opacity="1" d="M 259.5 315 L 269 315.5 L 259.5 316 L 259.5 315 Z " /><path fill="rgb(77,89,95)" stroke="rgb(77,89,95)" stroke-width="1" opacity="1" d="M 378.5 315 L 377.5 317 L 378.5 315 Z " /><path fill="rgb(77,89,95)" stroke="rgb(77,89,95)" stroke-width="1" opacity="1" d="M 154.5 322 L 155.5 324 L 154.5 322 Z " /><path fill="rgb(77,89,95)" stroke="rgb(77,89,95)" stroke-width="1" opacity="1" d="M 374.5 322 L 373.5 324 L 374.5 322 Z " /><path fill="rgb(77,89,95)" stroke="rgb(77,89,95)" stroke-width="1" opacity="1" d="M 186.5 325 L 192 325.5 L 186.5 326 L 186.5 325 Z " /><path fill="rgb(77,89,95)" stroke="rgb(77,89,95)" stroke-width="1" opacity="1" d="M 337.5 325 L 341 325.5 L 337.5 326 L 337.5 325 Z " /><path fill="rgb(77,89,95)" stroke="rgb(77,89,95)" stroke-width="1" opacity="1" d="M 129.5 329 L 130.5 331 L 129.5 329 Z " /><path fill="rgb(77,89,95)" stroke="rgb(77,89,95)" stroke-width="1" opacity="1" d="M 258.5 332 L 264 332.5 L 258.5 333 L 258.5 332 Z " /><path fill="rgb(77,89,95)" stroke="rgb(77,89,95)" stroke-width="1" opacity="1" d="M 265.5 332 L 271 332.5 L 265.5 333 L 265.5 332 Z " /><path fill="rgb(77,89,95)" stroke="rgb(77,89,95)" stroke-width="1" opacity="1" d="M 161.5 334 L 165.5 339 L 161.5 334 Z " /><path fill="rgb(77,89,95)" stroke="rgb(77,89,95)" stroke-width="1" opacity="1" d="M 366.5 335 L 363.5 339 L 366.5 335 Z " /><path fill="rgb(77,89,95)" stroke="rgb(77,89,95)" stroke-width="1" opacity="1" d="M 135.5 339 L 136.5 341 L 135.5 339 Z " /><path fill="rgb(77,89,95)" stroke="rgb(77,89,95)" stroke-width="1" opacity="1" d="M 137.5 342 L 138.5 344 L 137.5 342 Z " /><path fill="rgb(77,89,95)" stroke="rgb(77,89,95)" stroke-width="1" opacity="1" d="M 181.5 342 L 192 342.5 L 181.5 343 L 181.5 342 Z " /><path fill="rgb(77,89,95)" stroke="rgb(77,89,95)" stroke-width="1" opacity="1" d="M 337.5 342 L 348 342.5 L 337.5 343 L 337.5 342 Z " /><path fill="rgb(77,89,95)" stroke="rgb(77,89,95)" stroke-width="1" opacity="1" d="M 197.5 345 L 198.5 347 L 197.5 345 Z " /><path fill="rgb(77,89,95)" stroke="rgb(77,89,95)" stroke-width="1" opacity="1" d="M 140.5 346 L 141.5 348 L 140.5 346 Z " /><path fill="rgb(77,89,95)" stroke="rgb(77,89,95)" stroke-width="1" opacity="1" d="M 292.5 348 L 290.5 351 L 292.5 348 Z " /><path fill="rgb(77,89,95)" stroke="rgb(77,89,95)" stroke-width="1" opacity="1" d="M 237.5 349 L 238.5 351 L 237.5 349 Z " /><path fill="rgb(77,89,95)" stroke="rgb(77,89,95)" stroke-width="1" opacity="1" d="M 143.5 350 L 144.5 352 L 143.5 350 Z " /><path fill="rgb(77,89,95)" stroke="rgb(77,89,95)" stroke-width="1" opacity="1" d="M 209.5 352 L 210.5 354 L 209.5 352 Z " /><path fill="rgb(77,89,95)" stroke="rgb(77,89,95)" stroke-width="1" opacity="1" d="M 319.5 352 L 318.5 354 L 319.5 352 Z " /><path fill="rgb(77,89,95)" stroke="rgb(77,89,95)" stroke-width="1" opacity="1" d="M 147.5 355 L 150.5 359 L 147.5 355 Z " /><path fill="rgb(77,89,95)" stroke="rgb(77,89,95)" stroke-width="1" opacity="1" d="M 216.5 356 L 217.5 358 L 216.5 356 Z " /><path fill="rgb(77,89,95)" stroke="rgb(77,89,95)" stroke-width="1" opacity="1" d="M 312.5 356 L 311.5 358 L 312.5 356 Z " /><path fill="rgb(77,89,95)" stroke="rgb(77,89,95)" stroke-width="1" opacity="1" d="M 223.5 360 L 224.5 362 L 223.5 360 Z " /><path fill="rgb(77,89,95)" stroke="rgb(77,89,95)" stroke-width="1" opacity="1" d="M 229.5 368 L 230.5 370 L 229.5 368 Z " /><path fill="rgb(77,89,95)" stroke="rgb(77,89,95)" stroke-width="1" opacity="1" d="M 299.5 368 L 298.5 370 L 299.5 368 Z " /><path fill="rgb(77,89,95)" stroke="rgb(77,89,95)" stroke-width="1" opacity="1" d="M 162.5 370 L 165.5 374 L 162.5 370 Z " /><path fill="rgb(77,89,95)" stroke="rgb(77,89,95)" stroke-width="1" opacity="1" d="M 297.5 371 L 296.5 373 L 297.5 371 Z " /><path fill="rgb(77,89,95)" stroke="rgb(77,89,95)" stroke-width="1" opacity="1" d="M 168.5 375 L 170.5 378 L 168.5 375 Z " /><path fill="rgb(77,89,95)" stroke="rgb(77,89,95)" stroke-width="1" opacity="1" d="M 235.5 377 L 239.5 382 L 235.5 377 Z " /><path fill="rgb(77,89,95)" stroke="rgb(77,89,95)" stroke-width="1" opacity="1" d="M 293.5 377 L 289.5 382 L 293.5 377 Z " /><path fill="rgb(77,89,95)" stroke="rgb(77,89,95)" stroke-width="1" opacity="1" d="M 173.5 379 L 174.5 381 L 173.5 379 Z " /><path fill="rgb(77,89,95)" stroke="rgb(77,89,95)" stroke-width="1" opacity="1" d="M 176.5 381 L 177.5 383 L 176.5 381 Z " /><path fill="rgb(77,89,95)" stroke="rgb(77,89,95)" stroke-width="1" opacity="1" d="M 249.5 384 L 280 384.5 L 249.5 385 L 249.5 384 Z " /><path fill="rgb(77,89,95)" stroke="rgb(77,89,95)" stroke-width="1" opacity="1" d="M 182.5 385 L 183.5 387 L 182.5 385 Z " /><path fill="rgb(77,89,95)" stroke="rgb(77,89,95)" stroke-width="1" opacity="1" d="M 298.5 405 L 301 405.5 L 298.5 406 L 298.5 405 Z " /><path fill="rgb(77,89,95)" stroke="rgb(77,89,95)" stroke-width="1" opacity="1" d="M 233.5 406 L 236 406.5 L 233.5 407 L 233.5 406 Z " /><path fill="rgb(77,89,95)" stroke="rgb(77,89,95)" stroke-width="1" opacity="1" d="M 238.5 407 L 241 407.5 L 238.5 408 L 238.5 407 Z " /><path fill="rgb(77,89,95)" stroke="rgb(77,89,95)" stroke-width="1" opacity="1" d="M 288.5 407 L 291 407.5 L 288.5 408 L 288.5 407 Z " /><path fill="rgb(77,89,95)" stroke="rgb(77,89,95)" stroke-width="1" opacity="1" d="M 245.5 408 L 249 408.5 L 245.5 409 L 245.5 408 Z " /><path fill="rgb(77,89,95)" stroke="rgb(77,89,95)" stroke-width="1" opacity="1" d="M 280.5 408 L 284 408.5 L 280.5 409 L 280.5 408 Z " /><path fill="rgb(77,89,95)" stroke="rgb(77,89,95)" stroke-width="1" opacity="1" d="M 256.5 409 L 274 409.5 L 256.5 410 L 256.5 409 Z " /><path fill="rgb(77,89,95)" stroke="rgb(77,89,95)" stroke-width="1" opacity="1" d="M 222 421 L 245.5 426 L 270.5 427 L 271.5 426 L 283.5 426 L 284.5 425 L 296.5 424 L 307 421 L 307 452 L 222 452 L 222 421 Z " /><path fill="rgb(77,89,95)" stroke="rgb(77,89,95)" stroke-width="1" opacity="1" d="M 202.5 469 L 327 469.5 L 202.5 470 L 202.5 469 Z " /><path fill="rgb(77,89,95)" stroke="rgb(77,89,95)" stroke-width="1" opacity="1" d="M 196.5 475 L 197 477.5 L 196 477.5 L 196.5 475 Z " /><path fill="rgb(77,89,95)" stroke="rgb(77,89,95)" stroke-width="1" opacity="1" d="M 196.5 486 L 197 488.5 L 196 488.5 L 196.5 486 Z " /></svg>