<svg width="512" height="512" version="1.1" xmlns="http://www.w3.org/2000/svg" desc="Created with imagetracer.js version 1.2.6" ><path fill="rgb(53,53,53)" stroke="rgb(53,53,53)" stroke-width="1" opacity="0.996078431372549" d="M 163.5 100 L 341.5 100 Q 348.9 102.6 353 108.5 L 356.5 116 Q 366.2 114.9 369 120.5 L 370 122.5 L 370 181.5 L 366.5 186 L 364.5 187 L 342 187 L 342 214.5 L 340.5 216 L 326 221.5 Q 344.3 237.2 354.5 261 L 411.5 261 L 412 260.5 L 412 249.5 L 413.5 248 L 430 248 L 431 243 Q 435.6 241.8 437 244.5 L 438.5 248 Q 445.2 249.8 447 246.5 L 448.5 243 Q 452.3 242.3 453 244.5 L 454 248 L 470.5 248 L 471 249.5 L 472 250.5 L 472 354.5 L 471 357 L 468.5 358 L 454 358 L 453 362 L 449.5 363 Q 446.3 361.8 447 358 L 437.5 358 L 437 360.5 L 433.5 363 L 431 362 L 430 358 L 415.5 358 L 412 355.5 L 412 344.5 L 411.5 344 L 354.5 344 Q 344.6 367.1 327.5 383 Q 310.1 399.6 284.5 408 L 265.5 412 L 239.5 412 Q 195 404.5 171 376.5 Q 157.7 362.9 151 344 L 100.5 344 L 100 344.5 L 100 355.5 L 96.5 358 L 82 358 L 81 362 L 77.5 363 Q 74.3 361.8 75 358 L 65.5 358 L 65 360.5 L 61.5 363 L 59 362 L 58 358 L 43.5 358 L 41 357 L 40 354.5 L 40 250.5 L 41 248 L 57.5 248 L 58 246.5 L 60.5 243 Q 64.3 242.3 65 244.5 L 66.5 248 Q 73.3 249.8 75 246.5 L 76.5 243 Q 81.9 241.1 81 244.5 L 82 248 L 98.5 248 L 100 249.5 L 100 260.5 L 100.5 261 L 150.5 261 Q 160 238.5 176.5 223 Q 178.8 223.8 178 221.5 L 163 214.5 L 163 188.5 L 161.5 187 L 140.5 187 L 136 183.5 Q 133.7 180.3 135 173.5 L 133.5 172 L 113.5 172 Q 105.4 169.1 101 162.5 L 98 153.5 L 98 149.5 Q 99.8 139.8 106.5 135 L 116.5 131 L 134 131 L 135 121.5 L 139.5 117 L 149 116 Q 150.4 106.3 158.5 102 L 163.5 100 Z M 168 106 L 161 109 L 156 115 L 158 117 L 348 117 L 349 116 L 347 112 L 338 106 L 168 106 Z M 143 123 L 141 125 L 141 179 L 144 181 L 362 181 L 364 179 L 364 126 L 363 125 L 363 123 L 143 123 Z M 116 138 L 112 140 L 105 149 Q 104 156 107 160 Q 110 164 117 165 L 117 139 L 116 138 Z M 124 138 L 124 166 L 134 166 L 135 165 L 135 138 L 124 138 Z M 169 187 L 169 211 L 188 217 Q 190 218 189 222 L 186 224 Q 167 239 157 263 L 152 278 L 150 288 L 150 297 L 149 298 L 150 318 L 154 335 Q 160 354 172 368 Q 184 382 201 392 L 224 402 L 238 405 L 247 405 L 248 406 L 268 405 L 285 401 Q 304 394 319 382 Q 333 370 343 353 L 352 331 L 355 316 L 355 290 L 352 275 Q 345 251 331 236 L 320 225 Q 315 224 316 219 L 320 216 L 335 211 L 335 188 L 335 187 L 169 187 Z M 47 254 L 47 351 L 59 351 L 59 351 L 59 256 L 58 254 L 47 254 Z M 65 254 L 65 351 L 66 351 L 75 351 L 75 255 L 75 254 L 65 254 Z M 82 254 L 82 351 L 83 351 L 93 351 L 93 255 L 93 254 L 82 254 Z M 419 254 L 419 351 L 420 351 L 430 351 L 430 255 L 430 254 L 419 254 Z M 439 254 L 437 256 L 437 351 L 447 351 L 447 351 L 447 256 Q 445 252 439 254 Z M 454 254 L 454 351 L 465 351 L 465 351 L 465 256 L 464 254 L 454 254 Z M 100 268 L 100 337 L 148 337 L 143 315 L 143 291 L 146 275 L 148 271 L 148 268 L 100 268 Z M 357 268 L 362 293 L 362 314 L 357 335 L 358 337 L 412 337 L 412 268 L 357 268 Z " /><path fill="rgb(53,53,53)" stroke="rgb(53,53,53)" stroke-width="1" opacity="0.996078431372549" d="M 243.5 213 L 261.5 213 L 283.5 218 Q 307.1 227.4 322 245.5 Q 332.3 257.8 338 274.5 L 342 293.5 L 342 312.5 L 339 327.5 L 331 346.5 Q 322.2 362.2 308.5 373 Q 294.5 384.5 274.5 390 L 263.5 392 L 241.5 392 L 218.5 386 L 206.5 380 L 189 367 L 175 348.5 L 169 336.5 L 163 313.5 L 163 291.5 Q 169.7 252.7 195.5 233 L 216.5 220 L 227.5 216 L 243.5 213 Z M 242 220 Q 213 225 197 241 Q 184 253 176 270 L 171 285 L 170 301 L 169 302 Q 171 307 170 316 L 175 334 Q 180 347 189 357 Q 202 372 222 380 L 235 384 L 249 385 L 250 386 L 266 385 L 281 381 Q 296 375 308 365 Q 329 347 335 314 L 335 292 L 333 282 Q 328 264 318 252 Q 306 236 288 227 L 274 222 L 264 220 L 242 220 Z " /><path fill="rgb(53,53,53)" stroke="rgb(53,53,53)" stroke-width="1" opacity="0.996078431372549" d="M 246.5 277 Q 267.3 275.2 274 287.5 Q 280 294.5 278 309.5 Q 274.5 319.5 266.5 325 Q 260.5 329 250.5 329 L 242.5 327 L 233 320.5 Q 226.2 313.8 226 300.5 L 230 288.5 L 237.5 281 L 246.5 277 Z M 251 283 L 241 287 Q 235 291 233 300 L 233 306 L 235 312 L 238 313 L 263 288 L 263 286 Q 259 283 251 283 Z M 268 292 L 242 319 L 250 322 Q 260 323 265 318 L 270 312 L 272 305 Q 273 297 269 294 Q 270 291 268 292 Z " /><path fill="rgb(0,0,0)" stroke="rgb(0,0,0)" stroke-width="1" opacity="0" d="M 0 0 L 512 0 L 512 512 L 0 512 L 0 0 Z M 165 99 L 158 102 Q 151 106 149 115 L 148 116 L 140 116 L 136 118 Q 133 122 134 131 L 114 131 L 107 134 Q 101 139 98 147 Q 96 158 101 164 L 112 172 L 116 173 L 134 173 L 135 184 L 142 188 L 162 188 L 162 215 L 167 218 L 177 222 Q 160 237 151 260 L 150 261 L 101 261 L 101 251 L 99 247 L 83 247 L 82 244 Q 81 241 77 242 L 74 247 L 66 247 L 66 245 Q 65 241 61 242 Q 57 243 58 247 L 43 247 L 42 248 L 40 249 L 40 357 L 42 358 L 58 358 Q 57 362 60 363 Q 65 364 66 361 L 66 358 L 74 358 Q 73 362 77 363 Q 81 364 82 362 L 83 358 L 99 358 L 101 355 L 101 345 L 102 344 L 150 344 Q 157 363 170 377 Q 184 392 204 402 L 222 409 L 243 413 L 270 412 L 293 406 Q 313 398 328 384 Q 344 368 354 346 L 356 344 L 411 344 L 411 355 L 414 358 L 430 358 L 430 362 Q 431 364 436 363 L 438 360 L 439 358 L 446 358 Q 445 362 449 363 Q 453 364 454 362 L 455 358 L 471 358 L 472 357 L 472 248 L 470 247 L 454 247 Q 455 243 452 242 Q 447 241 446 245 L 446 247 L 438 247 L 436 242 Q 431 241 430 244 L 430 247 L 414 247 L 411 251 L 411 261 L 411 261 L 356 261 Q 345 237 327 222 L 341 217 L 343 215 L 343 188 L 364 188 L 367 187 L 371 181 L 371 123 L 370 121 Q 367 114 356 116 L 354 109 Q 350 101 341 99 L 165 99 Z " /><path fill="rgb(123,189,231)" stroke="rgb(123,189,231)" stroke-width="1" opacity="1" d="M 160.5 109 L 158.5 112 L 160.5 109 Z " /><path fill="rgb(123,189,231)" stroke="rgb(123,189,231)" stroke-width="1" opacity="1" d="M 170.5 187 L 335 187.5 L 170.5 188 L 170.5 187 Z " /><path fill="rgb(123,189,231)" stroke="rgb(123,189,231)" stroke-width="1" opacity="1" d="M 247.5 212 L 258 212.5 L 247.5 213 L 247.5 212 Z " /><path fill="rgb(123,189,231)" stroke="rgb(123,189,231)" stroke-width="1" opacity="1" d="M 317.5 216 L 316.5 218 L 317.5 216 Z " /><path fill="rgb(123,189,231)" stroke="rgb(123,189,231)" stroke-width="1" opacity="1" d="M 316.5 222 L 317.5 224 L 316.5 222 Z " /><path fill="rgb(123,189,231)" stroke="rgb(123,189,231)" stroke-width="1" opacity="1" d="M 184.5 225 L 175.5 235 L 184.5 225 Z " /><path fill="rgb(123,189,231)" stroke="rgb(123,189,231)" stroke-width="1" opacity="1" d="M 322.5 227 L 327.5 233 L 322.5 227 Z " /><path fill="rgb(123,189,231)" stroke="rgb(123,189,231)" stroke-width="1" opacity="1" d="M 306.5 230 L 307.5 232 L 306.5 230 Z " /><path fill="rgb(123,189,231)" stroke="rgb(123,189,231)" stroke-width="1" opacity="1" d="M 194.5 233 L 192.5 236 L 194.5 233 Z " /><path fill="rgb(123,189,231)" stroke="rgb(123,189,231)" stroke-width="1" opacity="1" d="M 311.5 234 L 320.5 244 L 311.5 234 Z " /><path fill="rgb(123,189,231)" stroke="rgb(123,189,231)" stroke-width="1" opacity="1" d="M 331.5 237 L 333.5 240 L 331.5 237 Z " /><path fill="rgb(123,189,231)" stroke="rgb(123,189,231)" stroke-width="1" opacity="1" d="M 172.5 238 L 171.5 240 L 172.5 238 Z " /><path fill="rgb(123,189,231)" stroke="rgb(123,189,231)" stroke-width="1" opacity="1" d="M 185.5 242 L 183.5 245 L 185.5 242 Z " /><path fill="rgb(123,189,231)" stroke="rgb(123,189,231)" stroke-width="1" opacity="1" d="M 335.5 242 L 336.5 244 L 335.5 242 Z " /><path fill="rgb(123,189,231)" stroke="rgb(123,189,231)" stroke-width="1" opacity="1" d="M 337.5 245 L 338.5 247 L 337.5 245 Z " /><path fill="rgb(123,189,231)" stroke="rgb(123,189,231)" stroke-width="1" opacity="1" d="M 323.5 247 L 324.5 249 L 323.5 247 Z " /><path fill="rgb(123,189,231)" stroke="rgb(123,189,231)" stroke-width="1" opacity="1" d="M 180.5 248 L 179.5 250 L 180.5 248 Z " /><path fill="rgb(123,189,231)" stroke="rgb(123,189,231)" stroke-width="1" opacity="1" d="M 150.5 289 L 151 291.5 L 150 291.5 L 150.5 289 Z " /><path fill="rgb(123,189,231)" stroke="rgb(123,189,231)" stroke-width="1" opacity="1" d="M 354.5 290 L 355 294.5 L 354 294.5 L 354.5 290 Z " /><path fill="rgb(123,189,231)" stroke="rgb(123,189,231)" stroke-width="1" opacity="1" d="M 162.5 295 L 163 297.5 L 162 297.5 L 162.5 295 Z " /><path fill="rgb(123,189,231)" stroke="rgb(123,189,231)" stroke-width="1" opacity="1" d="M 342.5 297 L 343 307.5 L 342 307.5 L 342.5 297 Z " /><path fill="rgb(123,189,231)" stroke="rgb(123,189,231)" stroke-width="1" opacity="1" d="M 162.5 307 L 163 310.5 L 162 310.5 L 162.5 307 Z " /><path fill="rgb(123,189,231)" stroke="rgb(123,189,231)" stroke-width="1" opacity="1" d="M 354.5 310 L 355 314.5 L 354 314.5 L 354.5 310 Z " /><path fill="rgb(123,189,231)" stroke="rgb(123,189,231)" stroke-width="1" opacity="1" d="M 150.5 313 L 151 315.5 L 150 315.5 L 150.5 313 Z " /><path fill="rgb(123,189,231)" stroke="rgb(123,189,231)" stroke-width="1" opacity="1" d="M 325.5 355 L 324.5 357 L 325.5 355 Z " /><path fill="rgb(123,189,231)" stroke="rgb(123,189,231)" stroke-width="1" opacity="1" d="M 182.5 359 L 183.5 361 L 182.5 359 Z " /><path fill="rgb(123,189,231)" stroke="rgb(123,189,231)" stroke-width="1" opacity="1" d="M 167.5 360 L 168.5 362 L 167.5 360 Z " /><path fill="rgb(123,189,231)" stroke="rgb(123,189,231)" stroke-width="1" opacity="1" d="M 321.5 360 L 319.5 363 L 321.5 360 Z " /><path fill="rgb(123,189,231)" stroke="rgb(123,189,231)" stroke-width="1" opacity="1" d="M 336.5 361 L 335.5 363 L 336.5 361 Z " /><path fill="rgb(123,189,231)" stroke="rgb(123,189,231)" stroke-width="1" opacity="1" d="M 170.5 364 L 171.5 366 L 170.5 364 Z " /><path fill="rgb(123,189,231)" stroke="rgb(123,189,231)" stroke-width="1" opacity="1" d="M 333.5 365 L 332.5 367 L 333.5 365 Z " /><path fill="rgb(123,189,231)" stroke="rgb(123,189,231)" stroke-width="1" opacity="1" d="M 174.5 369 L 178.5 374 L 174.5 369 Z " /><path fill="rgb(123,189,231)" stroke="rgb(123,189,231)" stroke-width="1" opacity="1" d="M 311.5 370 L 309.5 373 L 311.5 370 Z " /><path fill="rgb(123,189,231)" stroke="rgb(123,189,231)" stroke-width="1" opacity="1" d="M 329.5 370 L 320.5 380 L 329.5 370 Z " /><path fill="rgb(123,189,231)" stroke="rgb(123,189,231)" stroke-width="1" opacity="1" d="M 194.5 371 L 195.5 373 L 194.5 371 Z " /><path fill="rgb(123,189,231)" stroke="rgb(123,189,231)" stroke-width="1" opacity="1" d="M 306.5 374 L 305.5 376 L 306.5 374 Z " /><path fill="rgb(123,189,231)" stroke="rgb(123,189,231)" stroke-width="1" opacity="1" d="M 181.5 376 L 185.5 381 L 181.5 376 Z " /><path fill="rgb(123,189,231)" stroke="rgb(123,189,231)" stroke-width="1" opacity="1" d="M 316.5 382 L 315.5 384 L 316.5 382 Z " /><path fill="rgb(123,189,231)" stroke="rgb(123,189,231)" stroke-width="1" opacity="1" d="M 189.5 383 L 190.5 385 L 189.5 383 Z " /><path fill="rgb(123,189,231)" stroke="rgb(123,189,231)" stroke-width="1" opacity="1" d="M 193.5 386 L 194.5 388 L 193.5 386 Z " /><path fill="rgb(123,189,231)" stroke="rgb(123,189,231)" stroke-width="1" opacity="1" d="M 244.5 392 L 248 392.5 L 244.5 393 L 244.5 392 Z " /><path fill="rgb(123,189,231)" stroke="rgb(123,189,231)" stroke-width="1" opacity="1" d="M 257.5 392 L 261 392.5 L 257.5 393 L 257.5 392 Z " /><path fill="rgb(123,189,231)" stroke="rgb(123,189,231)" stroke-width="1" opacity="1" d="M 232.5 403 L 235 403.5 L 232.5 404 L 232.5 403 Z " /><path fill="rgb(123,189,231)" stroke="rgb(123,189,231)" stroke-width="1" opacity="1" d="M 239.5 404 L 242 404.5 L 239.5 405 L 239.5 404 Z " /><path fill="rgb(123,189,231)" stroke="rgb(123,189,231)" stroke-width="1" opacity="1" d="M 263.5 404 L 266 404.5 L 263.5 405 L 263.5 404 Z " /><path fill="rgb(105,196,254)" stroke="rgb(105,196,254)" stroke-width="1" opacity="1" d="M 165.5 107 L 339.5 107 L 347 112.5 L 348 116 L 157.5 116 L 157 114.5 L 161.5 109 L 165.5 107 Z " /><path fill="rgb(105,196,254)" stroke="rgb(105,196,254)" stroke-width="1" opacity="1" d="M 170 188 L 334.5 188 L 335 188.5 L 335 209.5 L 331.5 212 L 317.5 216 L 316 217.5 L 315 220.5 L 317.5 224 L 331 236.5 Q 344.2 251.8 351 273.5 L 354 286.5 L 355 309.5 L 354 310.5 L 354 318.5 L 352 328.5 Q 347.7 344.2 340 356.5 Q 330.6 371.1 317.5 382 Q 303 394.5 282.5 401 L 262.5 405 L 242.5 405 L 222.5 401 L 211.5 397 Q 192.7 388.3 179 374.5 Q 164.4 359.6 156 338.5 L 150 312.5 L 150 292.5 L 154 272.5 L 162 253.5 Q 173.6 234.1 190 219.5 L 189 217 L 170 211 L 170 188 Z M 248 212 L 223 217 Q 206 223 195 233 Q 183 243 175 256 L 165 279 L 162 296 L 162 311 L 165 327 Q 171 346 182 360 Q 194 374 211 383 L 229 390 L 245 393 L 261 393 L 277 390 Q 296 384 310 373 Q 321 363 330 350 L 339 330 L 343 308 L 342 289 L 338 273 Q 332 256 321 244 Q 308 228 288 219 L 267 213 L 248 212 Z " /><path fill="rgb(154,210,235)" stroke="rgb(154,210,235)" stroke-width="1" opacity="1" d="M 143.5 123 L 362 123.5 L 143.5 124 L 143.5 123 Z " /><path fill="rgb(154,210,235)" stroke="rgb(154,210,235)" stroke-width="1" opacity="1" d="M 141.5 125 L 142 177.5 L 141 177.5 L 141.5 125 Z " /><path fill="rgb(154,210,235)" stroke="rgb(154,210,235)" stroke-width="1" opacity="1" d="M 199.5 239 L 198.5 241 L 199.5 239 Z " /><path fill="rgb(154,210,235)" stroke="rgb(154,210,235)" stroke-width="1" opacity="1" d="M 306.5 240 L 307.5 242 L 306.5 240 Z " /><path fill="rgb(154,210,235)" stroke="rgb(154,210,235)" stroke-width="1" opacity="1" d="M 313.5 247 L 314.5 249 L 313.5 247 Z " /><path fill="rgb(154,210,235)" stroke="rgb(154,210,235)" stroke-width="1" opacity="1" d="M 316.5 354 L 315.5 356 L 316.5 354 Z " /><path fill="rgb(154,210,235)" stroke="rgb(154,210,235)" stroke-width="1" opacity="1" d="M 305.5 365 L 304.5 367 L 305.5 365 Z " /><path fill="rgb(148,222,254)" stroke="rgb(148,222,254)" stroke-width="1" opacity="0.996078431372549" d="M 142 124 L 362.5 124 L 363 124.5 L 363 180 L 142.5 180 L 142 179.5 L 142 124 Z " /><path fill="rgb(148,222,254)" stroke="rgb(148,222,254)" stroke-width="1" opacity="0.996078431372549" d="M 247.5 220 L 265.5 221 L 283.5 226 Q 301.1 233.4 313 246.5 Q 323 257 329 271.5 L 334 289.5 L 335 307.5 L 334 308.5 L 333 321.5 L 329 333.5 Q 321.1 352.6 306.5 365 Q 293.9 376.4 275.5 382 L 260.5 385 L 244.5 385 L 229.5 382 L 212.5 375 Q 198.8 367.2 189 355.5 Q 178.3 343.2 173 325.5 L 170 310.5 L 170 294.5 L 173 279.5 L 178 266.5 Q 185.5 251.5 197.5 241 Q 207.6 231.6 221.5 226 L 238.5 221 L 246.5 221 L 247.5 220 Z M 248 276 L 238 280 Q 229 286 226 297 Q 224 311 230 318 Q 236 326 247 329 Q 261 331 268 325 Q 276 319 279 308 L 279 298 L 274 287 Q 267 275 248 276 Z " /><path fill="rgb(163,165,166)" stroke="rgb(163,165,166)" stroke-width="1" opacity="0.9686274509803922" d="M 164.5 99 L 341 99.5 L 164.5 100 L 164.5 99 Z " /><path fill="rgb(163,165,166)" stroke="rgb(163,165,166)" stroke-width="1" opacity="0.9686274509803922" d="M 345.5 101 L 354 108.5 L 356 114.5 L 355 114.5 Q 353.6 106.4 347.5 103 L 345.5 101 Z " /><path fill="rgb(163,165,166)" stroke="rgb(163,165,166)" stroke-width="1" opacity="0.9686274509803922" d="M 157.5 102 L 151.5 109 L 157.5 102 Z " /><path fill="rgb(163,165,166)" stroke="rgb(163,165,166)" stroke-width="1" opacity="0.9686274509803922" d="M 167.5 106 L 338 106.5 L 167.5 107 L 167.5 106 Z " /><path fill="rgb(163,165,166)" stroke="rgb(163,165,166)" stroke-width="1" opacity="0.9686274509803922" d="M 344.5 109 L 346.5 112 L 344.5 109 Z " /><path fill="rgb(163,165,166)" stroke="rgb(163,165,166)" stroke-width="1" opacity="0.9686274509803922" d="M 139.5 116 L 142 116.5 Q 136.9 116.9 135.5 121 L 136 119.5 Q 135.3 117.3 137.5 118 L 139.5 116 Z " /><path fill="rgb(163,165,166)" stroke="rgb(163,165,166)" stroke-width="1" opacity="0.9686274509803922" d="M 157.5 116 L 348 116.5 L 157.5 117 L 157.5 116 Z " /><path fill="rgb(163,165,166)" stroke="rgb(163,165,166)" stroke-width="1" opacity="0.9686274509803922" d="M 366.5 117 L 371 122.5 L 371 180.5 L 370 180.5 L 370 122.5 L 366.5 117 Z " /><path fill="rgb(163,165,166)" stroke="rgb(163,165,166)" stroke-width="1" opacity="0.9686274509803922" d="M 134.5 122 L 135 124.5 L 134 124.5 L 134.5 122 Z " /><path fill="rgb(163,165,166)" stroke="rgb(163,165,166)" stroke-width="1" opacity="0.9686274509803922" d="M 142.5 123 L 141.5 125 L 142.5 123 Z " /><path fill="rgb(163,165,166)" stroke="rgb(163,165,166)" stroke-width="1" opacity="0.9686274509803922" d="M 363.5 125 L 364 178.5 L 363 178.5 L 363.5 125 Z " /><path fill="rgb(163,165,166)" stroke="rgb(163,165,166)" stroke-width="1" opacity="0.9686274509803922" d="M 113.5 131 L 116 131.5 L 113.5 132 L 113.5 131 Z " /><path fill="rgb(163,165,166)" stroke="rgb(163,165,166)" stroke-width="1" opacity="0.9686274509803922" d="M 110.5 132 L 112 132.5 Q 105.8 134.3 102.5 139 L 106.5 134 L 110.5 132 Z " /><path fill="rgb(163,165,166)" stroke="rgb(163,165,166)" stroke-width="1" opacity="0.9686274509803922" d="M 115.5 138 L 117 138.5 L 117 165 Q 110.2 164.5 107 159.5 Q 104.1 155.9 105 148.5 L 111.5 140 L 115.5 138 Z " /><path fill="rgb(163,165,166)" stroke="rgb(163,165,166)" stroke-width="1" opacity="0.9686274509803922" d="M 124 138 L 135 138 L 135 164.5 L 133.5 166 L 124 166 L 124 138 Z " /><path fill="rgb(163,165,166)" stroke="rgb(163,165,166)" stroke-width="1" opacity="0.9686274509803922" d="M 101.5 140 L 101 141.5 L 99.5 145 L 99 143.5 L 101.5 140 Z " /><path fill="rgb(163,165,166)" stroke="rgb(163,165,166)" stroke-width="1" opacity="0.9686274509803922" d="M 98.5 146 L 99 148.5 L 98 148.5 L 98.5 146 Z " /><path fill="rgb(163,165,166)" stroke="rgb(163,165,166)" stroke-width="1" opacity="0.9686274509803922" d="M 98.5 154 L 100 159.5 L 99 159.5 L 98.5 154 Z " /><path fill="rgb(163,165,166)" stroke="rgb(163,165,166)" stroke-width="1" opacity="0.9686274509803922" d="M 101.5 163 L 110 170.5 L 108.5 170 L 101.5 163 Z " /><path fill="rgb(163,165,166)" stroke="rgb(163,165,166)" stroke-width="1" opacity="0.9686274509803922" d="M 115.5 172 L 133.5 172 L 135 173.5 Q 133.3 183.3 138.5 186 L 140 186.5 L 138.5 187 Q 132 183.7 134 173 L 115.5 173 L 115.5 172 Z " /><path fill="rgb(163,165,166)" stroke="rgb(163,165,166)" stroke-width="1" opacity="0.9686274509803922" d="M 143.5 180 L 362 180.5 L 143.5 181 L 143.5 180 Z " /><path fill="rgb(163,165,166)" stroke="rgb(163,165,166)" stroke-width="1" opacity="0.9686274509803922" d="M 369.5 182 L 370 183.5 L 367 185.5 L 369.5 182 Z " /><path fill="rgb(163,165,166)" stroke="rgb(163,165,166)" stroke-width="1" opacity="0.9686274509803922" d="M 141.5 187 L 161.5 187 L 163 188.5 L 163 214.5 L 164.5 216 L 168 217.5 L 166.5 218 L 162 214.5 L 162 188 L 141.5 188 L 141.5 187 Z " /><path fill="rgb(163,165,166)" stroke="rgb(163,165,166)" stroke-width="1" opacity="0.9686274509803922" d="M 169.5 187 L 170 210.5 L 169 210.5 L 169.5 187 Z " /><path fill="rgb(163,165,166)" stroke="rgb(163,165,166)" stroke-width="1" opacity="0.9686274509803922" d="M 342 187 L 364 187.5 L 343 188 L 343 214.5 L 340.5 217 L 334.5 219 L 334.5 218 L 342 214.5 L 342 187 Z " /><path fill="rgb(163,165,166)" stroke="rgb(163,165,166)" stroke-width="1" opacity="0.9686274509803922" d="M 240.5 213 L 243 213.5 L 240.5 214 L 240.5 213 Z " /><path fill="rgb(163,165,166)" stroke="rgb(163,165,166)" stroke-width="1" opacity="0.9686274509803922" d="M 262.5 213 L 265 213.5 L 262.5 214 L 262.5 213 Z " /><path fill="rgb(163,165,166)" stroke="rgb(163,165,166)" stroke-width="1" opacity="0.9686274509803922" d="M 175.5 220 L 178 221.5 Q 178.8 223.8 176.5 223 Q 164.6 234.1 156.5 249 L 157 247.5 Q 164.7 232.2 177 221.5 L 175.5 220 Z " /><path fill="rgb(163,165,166)" stroke="rgb(163,165,166)" stroke-width="1" opacity="0.9686274509803922" d="M 241.5 220 L 244 220.5 L 241.5 221 L 241.5 220 Z " /><path fill="rgb(163,165,166)" stroke="rgb(163,165,166)" stroke-width="1" opacity="0.9686274509803922" d="M 261.5 220 L 264 220.5 L 261.5 221 L 261.5 220 Z " /><path fill="rgb(163,165,166)" stroke="rgb(163,165,166)" stroke-width="1" opacity="0.9686274509803922" d="M 326.5 221 Q 344.9 236.6 355 260.5 L 353 259.5 L 341 237.5 L 326.5 221 Z " /><path fill="rgb(163,165,166)" stroke="rgb(163,165,166)" stroke-width="1" opacity="0.9686274509803922" d="M 320.5 225 L 321.5 227 L 320.5 225 Z " /><path fill="rgb(163,165,166)" stroke="rgb(163,165,166)" stroke-width="1" opacity="0.9686274509803922" d="M 201.5 228 L 200.5 230 L 201.5 228 Z " /><path fill="rgb(163,165,166)" stroke="rgb(163,165,166)" stroke-width="1" opacity="0.9686274509803922" d="M 197.5 231 L 196.5 233 L 197.5 231 Z " /><path fill="rgb(163,165,166)" stroke="rgb(163,165,166)" stroke-width="1" opacity="0.9686274509803922" d="M 328.5 233 L 330.5 236 L 328.5 233 Z " /><path fill="rgb(163,165,166)" stroke="rgb(163,165,166)" stroke-width="1" opacity="0.9686274509803922" d="M 299.5 234 L 300.5 236 L 299.5 234 Z " /><path fill="rgb(163,165,166)" stroke="rgb(163,165,166)" stroke-width="1" opacity="0.9686274509803922" d="M 174.5 235 L 173.5 237 L 174.5 235 Z " /><path fill="rgb(163,165,166)" stroke="rgb(163,165,166)" stroke-width="1" opacity="0.9686274509803922" d="M 191.5 236 L 186.5 242 L 191.5 236 Z " /><path fill="rgb(163,165,166)" stroke="rgb(163,165,166)" stroke-width="1" opacity="0.9686274509803922" d="M 202.5 236 L 201.5 238 L 202.5 236 Z " /><path fill="rgb(163,165,166)" stroke="rgb(163,165,166)" stroke-width="1" opacity="0.9686274509803922" d="M 303.5 237 L 304.5 239 L 303.5 237 Z " /><path fill="rgb(163,165,166)" stroke="rgb(163,165,166)" stroke-width="1" opacity="0.9686274509803922" d="M 196.5 241 L 191.5 247 L 196.5 241 Z " /><path fill="rgb(163,165,166)" stroke="rgb(163,165,166)" stroke-width="1" opacity="0.9686274509803922" d="M 60.5 242 Q 65.3 241.3 66 244.5 L 66 247 L 74 247 L 74.5 245 L 75 246.5 Q 73.3 249.8 66.5 248 L 63.5 243 Q 59.8 242.3 59 244.5 L 58.5 246 L 58 244.5 L 60.5 242 Z " /><path fill="rgb(163,165,166)" stroke="rgb(163,165,166)" stroke-width="1" opacity="0.9686274509803922" d="M 76.5 242 Q 81 241 82 243.5 L 81.5 245 L 81 243 L 75.5 244 L 76.5 242 Z " /><path fill="rgb(163,165,166)" stroke="rgb(163,165,166)" stroke-width="1" opacity="0.9686274509803922" d="M 431.5 242 Q 436 241 437 243.5 L 435.5 243 Q 430.1 241.1 431 244.5 L 430 244.5 L 431.5 242 Z " /><path fill="rgb(163,165,166)" stroke="rgb(163,165,166)" stroke-width="1" opacity="0.9686274509803922" d="M 448.5 242 Q 453.3 241.3 454 244.5 L 453.5 246 L 451.5 243 Q 447.8 242.3 447 244.5 L 445.5 248 Q 438.8 249.8 437 246.5 L 437.5 245 L 438 247 L 446 247 L 446 244.5 L 448.5 242 Z " /><path fill="rgb(163,165,166)" stroke="rgb(163,165,166)" stroke-width="1" opacity="0.9686274509803922" d="M 182.5 246 L 181.5 248 L 182.5 246 Z " /><path fill="rgb(163,165,166)" stroke="rgb(163,165,166)" stroke-width="1" opacity="0.9686274509803922" d="M 42.5 247 L 58 247.5 L 42.5 248 L 42.5 247 Z " /><path fill="rgb(163,165,166)" stroke="rgb(163,165,166)" stroke-width="1" opacity="0.9686274509803922" d="M 82.5 247 L 98.5 247 L 100 248.5 L 98.5 248 L 82.5 248 L 82.5 247 Z " /><path fill="rgb(163,165,166)" stroke="rgb(163,165,166)" stroke-width="1" opacity="0.9686274509803922" d="M 413.5 247 L 430 247.5 L 413.5 248 L 412.5 249 L 413.5 247 Z " /><path fill="rgb(163,165,166)" stroke="rgb(163,165,166)" stroke-width="1" opacity="0.9686274509803922" d="M 454.5 247 L 470 247.5 L 454.5 248 L 454.5 247 Z " /><path fill="rgb(163,165,166)" stroke="rgb(163,165,166)" stroke-width="1" opacity="0.9686274509803922" d="M 100.5 250 L 101 260.5 L 100 260.5 L 100.5 250 Z " /><path fill="rgb(163,165,166)" stroke="rgb(163,165,166)" stroke-width="1" opacity="0.9686274509803922" d="M 316.5 250 L 317.5 252 L 316.5 250 Z " /><path fill="rgb(163,165,166)" stroke="rgb(163,165,166)" stroke-width="1" opacity="0.9686274509803922" d="M 411.5 250 L 412 260.5 L 411 260.5 L 411.5 250 Z " /><path fill="rgb(163,165,166)" stroke="rgb(163,165,166)" stroke-width="1" opacity="0.9686274509803922" d="M 187.5 251 L 186.5 253 L 187.5 251 Z " /><path fill="rgb(163,165,166)" stroke="rgb(163,165,166)" stroke-width="1" opacity="0.9686274509803922" d="M 47 254 L 57.5 254 L 59 255.5 L 59 350.5 L 58.5 351 L 47 351 L 47 254 Z " /><path fill="rgb(163,165,166)" stroke="rgb(163,165,166)" stroke-width="1" opacity="0.9686274509803922" d="M 65 254 L 74.5 254 L 75 254.5 L 75 351 L 65.5 351 L 65 350.5 L 65 254 Z " /><path fill="rgb(163,165,166)" stroke="rgb(163,165,166)" stroke-width="1" opacity="0.9686274509803922" d="M 82 254 L 92.5 254 L 93 254.5 L 93 351 L 82.5 351 L 82 350.5 L 82 254 Z " /><path fill="rgb(163,165,166)" stroke="rgb(163,165,166)" stroke-width="1" opacity="0.9686274509803922" d="M 319.5 254 L 320.5 256 L 319.5 254 Z " /><path fill="rgb(163,165,166)" stroke="rgb(163,165,166)" stroke-width="1" opacity="0.9686274509803922" d="M 419 254 L 429.5 254 L 430 254.5 L 430 351 L 419.5 351 L 419 350.5 L 419 254 Z " /><path fill="rgb(163,165,166)" stroke="rgb(163,165,166)" stroke-width="1" opacity="0.9686274509803922" d="M 438.5 254 Q 445.2 252.3 447 255.5 L 447 350.5 L 446.5 351 L 437 351 L 437 255.5 L 438.5 254 Z " /><path fill="rgb(163,165,166)" stroke="rgb(163,165,166)" stroke-width="1" opacity="0.9686274509803922" d="M 454 254 L 463.5 254 L 465 255.5 L 465 350.5 L 464.5 351 L 454 351 L 454 254 Z " /><path fill="rgb(163,165,166)" stroke="rgb(163,165,166)" stroke-width="1" opacity="0.9686274509803922" d="M 151.5 258 L 152 259.5 L 150 260.5 L 151.5 258 Z " /><path fill="rgb(163,165,166)" stroke="rgb(163,165,166)" stroke-width="1" opacity="0.9686274509803922" d="M 100 268 L 147.5 268 L 148 270.5 L 146 274.5 L 143 290.5 L 143 314.5 L 148 337 L 100 337 L 100 268 Z " /><path fill="rgb(163,165,166)" stroke="rgb(163,165,166)" stroke-width="1" opacity="0.9686274509803922" d="M 357 268 L 412 268 L 412 337 L 357.5 337 L 357 334.5 L 362 313.5 L 362 292.5 L 357 268 Z " /><path fill="rgb(163,165,166)" stroke="rgb(163,165,166)" stroke-width="1" opacity="0.9686274509803922" d="M 249.5 276 L 256 276.5 L 249.5 277 L 249.5 276 Z " /><path fill="rgb(163,165,166)" stroke="rgb(163,165,166)" stroke-width="1" opacity="0.9686274509803922" d="M 235.5 282 L 232.5 286 L 235.5 282 Z " /><path fill="rgb(163,165,166)" stroke="rgb(163,165,166)" stroke-width="1" opacity="0.9686274509803922" d="M 250.5 283 Q 258.7 283.1 263 286 L 263 287.5 L 237.5 313 L 235 311.5 L 233 305.5 L 233 299.5 Q 234.7 291.2 240.5 287 L 250.5 283 Z " /><path fill="rgb(163,165,166)" stroke="rgb(163,165,166)" stroke-width="1" opacity="0.9686274509803922" d="M 270.5 283 L 271.5 285 L 270.5 283 Z " /><path fill="rgb(163,165,166)" stroke="rgb(163,165,166)" stroke-width="1" opacity="0.9686274509803922" d="M 170.5 289 L 171 291.5 L 170 291.5 L 170.5 289 Z " /><path fill="rgb(163,165,166)" stroke="rgb(163,165,166)" stroke-width="1" opacity="0.9686274509803922" d="M 341.5 290 L 342 292.5 L 341 292.5 L 341.5 290 Z " /><path fill="rgb(163,165,166)" stroke="rgb(163,165,166)" stroke-width="1" opacity="0.9686274509803922" d="M 334.5 291 L 335 293.5 L 334 293.5 L 334.5 291 Z " /><path fill="rgb(163,165,166)" stroke="rgb(163,165,166)" stroke-width="1" opacity="0.9686274509803922" d="M 267.5 292 Q 269.8 291.3 269 293.5 Q 272.5 297 272 304.5 L 270 311.5 L 264.5 318 Q 259.7 322.7 249.5 322 L 242 318.5 L 267.5 292 Z " /><path fill="rgb(163,165,166)" stroke="rgb(163,165,166)" stroke-width="1" opacity="0.9686274509803922" d="M 149.5 297 L 150 307.5 L 149 307.5 L 149.5 297 Z " /><path fill="rgb(163,165,166)" stroke="rgb(163,165,166)" stroke-width="1" opacity="0.9686274509803922" d="M 226.5 297 L 227 299.5 L 226 299.5 L 226.5 297 Z " /><path fill="rgb(163,165,166)" stroke="rgb(163,165,166)" stroke-width="1" opacity="0.9686274509803922" d="M 162.5 298 L 163 306.5 L 162 306.5 L 162.5 298 Z " /><path fill="rgb(163,165,166)" stroke="rgb(163,165,166)" stroke-width="1" opacity="0.9686274509803922" d="M 278.5 299 L 279 306.5 L 278 306.5 L 278.5 299 Z " /><path fill="rgb(163,165,166)" stroke="rgb(163,165,166)" stroke-width="1" opacity="0.9686274509803922" d="M 169.5 301 L 170 303.5 L 169 303.5 L 169.5 301 Z " /><path fill="rgb(163,165,166)" stroke="rgb(163,165,166)" stroke-width="1" opacity="0.9686274509803922" d="M 226.5 305 L 227 307.5 L 226 307.5 L 226.5 305 Z " /><path fill="rgb(163,165,166)" stroke="rgb(163,165,166)" stroke-width="1" opacity="0.9686274509803922" d="M 334.5 311 L 335 313.5 L 334 313.5 L 334.5 311 Z " /><path fill="rgb(163,165,166)" stroke="rgb(163,165,166)" stroke-width="1" opacity="0.9686274509803922" d="M 170.5 313 L 171 315.5 L 170 315.5 L 170.5 313 Z " /><path fill="rgb(163,165,166)" stroke="rgb(163,165,166)" stroke-width="1" opacity="0.9686274509803922" d="M 163.5 314 L 164 316.5 L 163 316.5 L 163.5 314 Z " /><path fill="rgb(163,165,166)" stroke="rgb(163,165,166)" stroke-width="1" opacity="0.9686274509803922" d="M 231.5 318 L 232.5 320 L 231.5 318 Z " /><path fill="rgb(163,165,166)" stroke="rgb(163,165,166)" stroke-width="1" opacity="0.9686274509803922" d="M 272.5 319 L 268.5 324 L 272.5 319 Z " /><path fill="rgb(163,165,166)" stroke="rgb(163,165,166)" stroke-width="1" opacity="0.9686274509803922" d="M 235.5 322 L 236.5 324 L 235.5 322 Z " /><path fill="rgb(163,165,166)" stroke="rgb(163,165,166)" stroke-width="1" opacity="0.9686274509803922" d="M 247.5 328 L 250 328.5 L 247.5 329 L 247.5 328 Z " /><path fill="rgb(163,165,166)" stroke="rgb(163,165,166)" stroke-width="1" opacity="0.9686274509803922" d="M 255.5 328 L 258 328.5 L 255.5 329 L 255.5 328 Z " /><path fill="rgb(163,165,166)" stroke="rgb(163,165,166)" stroke-width="1" opacity="0.9686274509803922" d="M 100.5 344 L 101 354.5 L 100 354.5 L 100.5 344 Z " /><path fill="rgb(163,165,166)" stroke="rgb(163,165,166)" stroke-width="1" opacity="0.9686274509803922" d="M 354.5 344 L 354 345.5 L 352.5 349 L 352 347.5 L 354.5 344 Z " /><path fill="rgb(163,165,166)" stroke="rgb(163,165,166)" stroke-width="1" opacity="0.9686274509803922" d="M 411.5 344 L 412 354.5 L 411 354.5 L 411.5 344 Z " /><path fill="rgb(163,165,166)" stroke="rgb(163,165,166)" stroke-width="1" opacity="0.9686274509803922" d="M 152.5 348 L 156 354.5 L 154 353.5 L 152.5 348 Z " /><path fill="rgb(163,165,166)" stroke="rgb(163,165,166)" stroke-width="1" opacity="0.9686274509803922" d="M 185.5 351 L 186.5 353 L 185.5 351 Z " /><path fill="rgb(163,165,166)" stroke="rgb(163,165,166)" stroke-width="1" opacity="0.9686274509803922" d="M 318.5 352 L 317.5 354 L 318.5 352 Z " /><path fill="rgb(163,165,166)" stroke="rgb(163,165,166)" stroke-width="1" opacity="0.9686274509803922" d="M 349.5 354 L 349 355.5 L 346.5 360 L 347 358.5 L 349.5 354 Z " /><path fill="rgb(163,165,166)" stroke="rgb(163,165,166)" stroke-width="1" opacity="0.9686274509803922" d="M 40.5 355 L 41 357 L 43 357.5 L 41.5 358 L 40.5 355 Z " /><path fill="rgb(163,165,166)" stroke="rgb(163,165,166)" stroke-width="1" opacity="0.9686274509803922" d="M 471.5 355 L 472 356.5 L 469.5 358 L 469.5 357 Q 472 357.7 471.5 355 Z " /><path fill="rgb(163,165,166)" stroke="rgb(163,165,166)" stroke-width="1" opacity="0.9686274509803922" d="M 99.5 356 L 98.5 358 L 97 357.5 L 99.5 356 Z " /><path fill="rgb(163,165,166)" stroke="rgb(163,165,166)" stroke-width="1" opacity="0.9686274509803922" d="M 180.5 356 L 181.5 358 L 180.5 356 Z " /><path fill="rgb(163,165,166)" stroke="rgb(163,165,166)" stroke-width="1" opacity="0.9686274509803922" d="M 189.5 356 L 198.5 366 L 189.5 356 Z " /><path fill="rgb(163,165,166)" stroke="rgb(163,165,166)" stroke-width="1" opacity="0.9686274509803922" d="M 412.5 356 L 415 357.5 L 413.5 358 L 412.5 356 Z " /><path fill="rgb(163,165,166)" stroke="rgb(163,165,166)" stroke-width="1" opacity="0.9686274509803922" d="M 65.5 358 L 66 360.5 L 63 362.5 L 65.5 358 Z " /><path fill="rgb(163,165,166)" stroke="rgb(163,165,166)" stroke-width="1" opacity="0.9686274509803922" d="M 74.5 358 L 77 362.5 L 74 360.5 L 74.5 358 Z " /><path fill="rgb(163,165,166)" stroke="rgb(163,165,166)" stroke-width="1" opacity="0.9686274509803922" d="M 157.5 358 Q 166.4 373.1 179 384.5 L 170 376.5 L 158 360.5 L 157.5 358 Z " /><path fill="rgb(163,165,166)" stroke="rgb(163,165,166)" stroke-width="1" opacity="0.9686274509803922" d="M 313.5 358 L 307.5 365 L 313.5 358 Z " /><path fill="rgb(163,165,166)" stroke="rgb(163,165,166)" stroke-width="1" opacity="0.9686274509803922" d="M 446.5 358 L 449 362.5 L 446 360.5 L 446.5 358 Z " /><path fill="rgb(163,165,166)" stroke="rgb(163,165,166)" stroke-width="1" opacity="0.9686274509803922" d="M 58.5 360 L 59 362 L 61 362.5 L 59.5 363 L 58.5 360 Z " /><path fill="rgb(163,165,166)" stroke="rgb(163,165,166)" stroke-width="1" opacity="0.9686274509803922" d="M 81.5 360 L 82 361.5 L 79.5 363 L 79.5 362 Q 82 362.7 81.5 360 Z " /><path fill="rgb(163,165,166)" stroke="rgb(163,165,166)" stroke-width="1" opacity="0.9686274509803922" d="M 430.5 360 L 431 362 L 433 362.5 L 431.5 363 L 430.5 360 Z " /><path fill="rgb(163,165,166)" stroke="rgb(163,165,166)" stroke-width="1" opacity="0.9686274509803922" d="M 453.5 360 L 454 361.5 L 451.5 363 L 451.5 362 Q 454 362.7 453.5 360 Z " /><path fill="rgb(163,165,166)" stroke="rgb(163,165,166)" stroke-width="1" opacity="0.9686274509803922" d="M 184.5 361 L 188.5 366 L 184.5 361 Z " /><path fill="rgb(163,165,166)" stroke="rgb(163,165,166)" stroke-width="1" opacity="0.9686274509803922" d="M 345.5 361 L 344.5 363 L 345.5 361 Z " /><path fill="rgb(163,165,166)" stroke="rgb(163,165,166)" stroke-width="1" opacity="0.9686274509803922" d="M 436.5 361 L 435.5 363 L 436.5 361 Z " /><path fill="rgb(163,165,166)" stroke="rgb(163,165,166)" stroke-width="1" opacity="0.9686274509803922" d="M 318.5 363 L 312.5 370 L 318.5 363 Z " /><path fill="rgb(163,165,166)" stroke="rgb(163,165,166)" stroke-width="1" opacity="0.9686274509803922" d="M 343.5 364 L 342 366.5 L 327.5 384 L 317.5 392 L 319.5 389 L 333 377.5 L 343.5 364 Z " /><path fill="rgb(163,165,166)" stroke="rgb(163,165,166)" stroke-width="1" opacity="0.9686274509803922" d="M 172.5 367 L 173.5 369 L 172.5 367 Z " /><path fill="rgb(163,165,166)" stroke="rgb(163,165,166)" stroke-width="1" opacity="0.9686274509803922" d="M 190.5 367 L 193.5 371 L 190.5 367 Z " /><path fill="rgb(163,165,166)" stroke="rgb(163,165,166)" stroke-width="1" opacity="0.9686274509803922" d="M 303.5 367 L 302.5 369 L 303.5 367 Z " /><path fill="rgb(163,165,166)" stroke="rgb(163,165,166)" stroke-width="1" opacity="0.9686274509803922" d="M 202.5 368 L 203.5 370 L 202.5 368 Z " /><path fill="rgb(163,165,166)" stroke="rgb(163,165,166)" stroke-width="1" opacity="0.9686274509803922" d="M 331.5 368 L 330.5 370 L 331.5 368 Z " /><path fill="rgb(163,165,166)" stroke="rgb(163,165,166)" stroke-width="1" opacity="0.9686274509803922" d="M 299.5 370 L 298.5 372 L 299.5 370 Z " /><path fill="rgb(163,165,166)" stroke="rgb(163,165,166)" stroke-width="1" opacity="0.9686274509803922" d="M 197.5 373 L 198.5 375 L 197.5 373 Z " /><path fill="rgb(163,165,166)" stroke="rgb(163,165,166)" stroke-width="1" opacity="0.9686274509803922" d="M 319.5 380 L 318.5 382 L 319.5 380 Z " /><path fill="rgb(163,165,166)" stroke="rgb(163,165,166)" stroke-width="1" opacity="0.9686274509803922" d="M 186.5 381 L 187.5 383 L 186.5 381 Z " /><path fill="rgb(163,165,166)" stroke="rgb(163,165,166)" stroke-width="1" opacity="0.9686274509803922" d="M 239.5 384 L 242 384.5 L 239.5 385 L 239.5 384 Z " /><path fill="rgb(163,165,166)" stroke="rgb(163,165,166)" stroke-width="1" opacity="0.9686274509803922" d="M 263.5 384 L 266 384.5 L 263.5 385 L 263.5 384 Z " /><path fill="rgb(163,165,166)" stroke="rgb(163,165,166)" stroke-width="1" opacity="0.9686274509803922" d="M 180.5 385 L 197 397.5 L 195.5 397 Q 185 392.6 180.5 385 Z " /><path fill="rgb(163,165,166)" stroke="rgb(163,165,166)" stroke-width="1" opacity="0.9686274509803922" d="M 249.5 385 L 256 385.5 L 249.5 386 L 249.5 385 Z " /><path fill="rgb(163,165,166)" stroke="rgb(163,165,166)" stroke-width="1" opacity="0.9686274509803922" d="M 238.5 391 L 241 391.5 L 238.5 392 L 238.5 391 Z " /><path fill="rgb(163,165,166)" stroke="rgb(163,165,166)" stroke-width="1" opacity="0.9686274509803922" d="M 264.5 391 L 267 391.5 L 264.5 392 L 264.5 391 Z " /><path fill="rgb(163,165,166)" stroke="rgb(163,165,166)" stroke-width="1" opacity="0.9686274509803922" d="M 248.5 392 L 257 392.5 L 248.5 393 L 248.5 392 Z " /><path fill="rgb(163,165,166)" stroke="rgb(163,165,166)" stroke-width="1" opacity="0.9686274509803922" d="M 315.5 392 L 313.5 395 L 311.5 396 L 312.5 394 L 315.5 392 Z " /><path fill="rgb(163,165,166)" stroke="rgb(163,165,166)" stroke-width="1" opacity="0.9686274509803922" d="M 309.5 396 L 308.5 398 L 306.5 399 L 307.5 397 L 309.5 396 Z " /><path fill="rgb(163,165,166)" stroke="rgb(163,165,166)" stroke-width="1" opacity="0.9686274509803922" d="M 202.5 400 L 209 403.5 L 207.5 404 Q 202.9 402.8 202.5 400 Z " /><path fill="rgb(163,165,166)" stroke="rgb(163,165,166)" stroke-width="1" opacity="0.9686274509803922" d="M 300.5 401 L 299.5 403 L 298 402.5 L 300.5 401 Z " /><path fill="rgb(163,165,166)" stroke="rgb(163,165,166)" stroke-width="1" opacity="0.9686274509803922" d="M 295.5 403 L 297 403.5 L 288.5 407 L 288.5 406 L 295.5 403 Z " /><path fill="rgb(163,165,166)" stroke="rgb(163,165,166)" stroke-width="1" opacity="0.9686274509803922" d="M 247.5 405 L 258 405.5 L 247.5 406 L 247.5 405 Z " /><path fill="rgb(163,165,166)" stroke="rgb(163,165,166)" stroke-width="1" opacity="0.9686274509803922" d="M 221.5 408 L 224 408.5 L 221.5 409 L 221.5 408 Z " /><path fill="rgb(163,165,166)" stroke="rgb(163,165,166)" stroke-width="1" opacity="0.9686274509803922" d="M 281.5 408 L 284 408.5 L 281.5 409 L 281.5 408 Z " /><path fill="rgb(163,165,166)" stroke="rgb(163,165,166)" stroke-width="1" opacity="0.9686274509803922" d="M 225.5 409 L 228 409.5 L 225.5 410 L 225.5 409 Z " /><path fill="rgb(163,165,166)" stroke="rgb(163,165,166)" stroke-width="1" opacity="0.9686274509803922" d="M 277.5 409 L 280 409.5 L 277.5 410 L 277.5 409 Z " /><path fill="rgb(163,165,166)" stroke="rgb(163,165,166)" stroke-width="1" opacity="0.9686274509803922" d="M 229.5 410 L 232 410.5 L 229.5 411 L 229.5 410 Z " /><path fill="rgb(163,165,166)" stroke="rgb(163,165,166)" stroke-width="1" opacity="0.9686274509803922" d="M 272.5 410 L 276 410.5 L 272.5 411 L 272.5 410 Z " /><path fill="rgb(163,165,166)" stroke="rgb(163,165,166)" stroke-width="1" opacity="0.9686274509803922" d="M 234.5 411 L 239 411.5 L 234.5 412 L 234.5 411 Z " /><path fill="rgb(163,165,166)" stroke="rgb(163,165,166)" stroke-width="1" opacity="0.9686274509803922" d="M 266.5 411 L 270 411.5 L 266.5 412 L 266.5 411 Z " /><path fill="rgb(163,165,166)" stroke="rgb(163,165,166)" stroke-width="1" opacity="0.9686274509803922" d="M 242.5 412 L 262 412.5 L 242.5 413 L 242.5 412 Z " /></svg>