<svg width="512" height="512" version="1.1" xmlns="http://www.w3.org/2000/svg" desc="Created with imagetracer.js version 1.2.6" ><path fill="rgb(0,0,0)" stroke="rgb(0,0,0)" stroke-width="1" opacity="0.8" d="M 251.5 64 L 254 64.5 L 251.5 65 L 251.5 64 Z " /><path fill="rgb(0,0,0)" stroke="rgb(0,0,0)" stroke-width="1" opacity="0.8" d="M 258.5 64 L 261 64.5 L 258.5 65 L 258.5 64 Z " /><path fill="rgb(0,0,0)" stroke="rgb(0,0,0)" stroke-width="1" opacity="0.8" d="M 243.5 67 L 242.5 69 L 243.5 67 Z " /><path fill="rgb(0,0,0)" stroke="rgb(0,0,0)" stroke-width="1" opacity="0.8" d="M 268.5 67 L 269.5 69 L 268.5 67 Z " /><path fill="rgb(0,0,0)" stroke="rgb(0,0,0)" stroke-width="1" opacity="0.8" d="M 272.5 70 L 273.5 72 L 272.5 70 Z " /><path fill="rgb(0,0,0)" stroke="rgb(0,0,0)" stroke-width="1" opacity="0.8" d="M 236.5 74 L 235.5 76 L 236.5 74 Z " /><path fill="rgb(0,0,0)" stroke="rgb(0,0,0)" stroke-width="1" opacity="0.8" d="M 275.5 74 L 276.5 76 L 275.5 74 Z " /><path fill="rgb(0,0,0)" stroke="rgb(0,0,0)" stroke-width="1" opacity="0.8" d="M 252.5 80 L 254 80.5 L 251.5 82 L 252.5 80 Z " /><path fill="rgb(0,0,0)" stroke="rgb(0,0,0)" stroke-width="1" opacity="0.8" d="M 258.5 80 L 261 81.5 L 259.5 81 L 258.5 80 Z " /><path fill="rgb(0,0,0)" stroke="rgb(0,0,0)" stroke-width="1" opacity="0.8" d="M 232.5 83 L 233 85.5 L 232 85.5 L 232.5 83 Z " /><path fill="rgb(0,0,0)" stroke="rgb(0,0,0)" stroke-width="1" opacity="0.8" d="M 249.5 83 L 249 84.5 L 248.5 86 L 248 84.5 L 249.5 83 Z " /><path fill="rgb(0,0,0)" stroke="rgb(0,0,0)" stroke-width="1" opacity="0.8" d="M 262.5 83 L 264 85.5 L 263 85.5 L 262.5 83 Z " /><path fill="rgb(0,0,0)" stroke="rgb(0,0,0)" stroke-width="1" opacity="0.8" d="M 279.5 83 L 280 85.5 L 279 85.5 L 279.5 83 Z " /><path fill="rgb(0,0,0)" stroke="rgb(0,0,0)" stroke-width="1" opacity="0.8" d="M 131.5 97 L 129.5 100 L 131.5 97 Z " /><path fill="rgb(0,0,0)" stroke="rgb(0,0,0)" stroke-width="1" opacity="0.8" d="M 380.5 97 L 382.5 100 L 380.5 97 Z " /><path fill="rgb(0,0,0)" stroke="rgb(0,0,0)" stroke-width="1" opacity="0.8" d="M 129.5 140 L 131.5 143 L 129.5 140 Z " /><path fill="rgb(0,0,0)" stroke="rgb(0,0,0)" stroke-width="1" opacity="0.8" d="M 382.5 140 L 380.5 143 L 382.5 140 Z " /><path fill="rgb(0,0,0)" stroke="rgb(0,0,0)" stroke-width="1" opacity="0.8" d="M 179.5 161 L 177.5 164 L 179.5 161 Z " /><path fill="rgb(0,0,0)" stroke="rgb(0,0,0)" stroke-width="1" opacity="0.8" d="M 332.5 161 L 334.5 164 L 332.5 161 Z " /><path fill="rgb(0,0,0)" stroke="rgb(0,0,0)" stroke-width="1" opacity="0.8" d="M 177.5 220 L 179.5 223 L 177.5 220 Z " /><path fill="rgb(0,0,0)" stroke="rgb(0,0,0)" stroke-width="1" opacity="0.8" d="M 334.5 220 L 332.5 223 L 334.5 220 Z " /><path fill="rgb(0,0,0)" stroke="rgb(0,0,0)" stroke-width="1" opacity="0.8" d="M 304.5 252 L 307 253.5 L 305.5 253 L 304.5 252 Z " /><path fill="rgb(0,0,0)" stroke="rgb(0,0,0)" stroke-width="1" opacity="0.8" d="M 201.5 255 L 200.5 257 L 201.5 255 Z " /><path fill="rgb(0,0,0)" stroke="rgb(0,0,0)" stroke-width="1" opacity="0.8" d="M 310.5 255 L 311.5 257 L 310.5 255 Z " /><path fill="rgb(0,0,0)" stroke="rgb(0,0,0)" stroke-width="1" opacity="0.8" d="M 198.5 257 L 197.5 259 L 198.5 257 Z " /><path fill="rgb(0,0,0)" stroke="rgb(0,0,0)" stroke-width="1" opacity="0.8" d="M 313.5 257 L 314.5 259 L 313.5 257 Z " /><path fill="rgb(0,0,0)" stroke="rgb(0,0,0)" stroke-width="1" opacity="0.8" d="M 195.5 259 L 193.5 262 L 195.5 259 Z " /><path fill="rgb(0,0,0)" stroke="rgb(0,0,0)" stroke-width="1" opacity="0.8" d="M 316.5 259 L 318.5 262 L 316.5 259 Z " /><path fill="rgb(0,0,0)" stroke="rgb(0,0,0)" stroke-width="1" opacity="0.8" d="M 289.5 261 L 291.5 264 L 289.5 261 Z " /><path fill="rgb(0,0,0)" stroke="rgb(0,0,0)" stroke-width="1" opacity="0.8" d="M 320.5 262 L 323.5 266 L 320.5 262 Z " /><path fill="rgb(0,0,0)" stroke="rgb(0,0,0)" stroke-width="1" opacity="0.8" d="M 190.5 263 L 188.5 266 L 190.5 263 Z " /><path fill="rgb(0,0,0)" stroke="rgb(0,0,0)" stroke-width="1" opacity="0.8" d="M 219.5 263 L 218.5 265 L 217 264.5 L 219.5 263 Z " /><path fill="rgb(0,0,0)" stroke="rgb(0,0,0)" stroke-width="1" opacity="0.8" d="M 215.5 265 L 214.5 267 L 215.5 265 Z " /><path fill="rgb(0,0,0)" stroke="rgb(0,0,0)" stroke-width="1" opacity="0.8" d="M 183.5 269 L 181.5 272 L 183.5 269 Z " /><path fill="rgb(0,0,0)" stroke="rgb(0,0,0)" stroke-width="1" opacity="0.8" d="M 208.5 269 L 207.5 271 L 208.5 269 Z " /><path fill="rgb(0,0,0)" stroke="rgb(0,0,0)" stroke-width="1" opacity="0.8" d="M 328.5 269 L 330.5 272 L 328.5 269 Z " /><path fill="rgb(0,0,0)" stroke="rgb(0,0,0)" stroke-width="1" opacity="0.8" d="M 205.5 271 L 203.5 274 L 205.5 271 Z " /><path fill="rgb(0,0,0)" stroke="rgb(0,0,0)" stroke-width="1" opacity="0.8" d="M 307.5 272 L 308.5 274 L 307.5 272 Z " /><path fill="rgb(0,0,0)" stroke="rgb(0,0,0)" stroke-width="1" opacity="0.8" d="M 51.5 273 L 49.5 276 L 51.5 273 Z " /><path fill="rgb(0,0,0)" stroke="rgb(0,0,0)" stroke-width="1" opacity="0.8" d="M 108.5 273 L 110.5 276 L 108.5 273 Z " /><path fill="rgb(0,0,0)" stroke="rgb(0,0,0)" stroke-width="1" opacity="0.8" d="M 403.5 273 L 401.5 276 L 403.5 273 Z " /><path fill="rgb(0,0,0)" stroke="rgb(0,0,0)" stroke-width="1" opacity="0.8" d="M 460.5 273 L 462.5 276 L 460.5 273 Z " /><path fill="rgb(0,0,0)" stroke="rgb(0,0,0)" stroke-width="1" opacity="0.8" d="M 201.5 274 L 198.5 278 L 201.5 274 Z " /><path fill="rgb(0,0,0)" stroke="rgb(0,0,0)" stroke-width="1" opacity="0.8" d="M 311.5 275 L 313.5 278 L 311.5 275 Z " /><path fill="rgb(0,0,0)" stroke="rgb(0,0,0)" stroke-width="1" opacity="0.8" d="M 177.5 276 L 175.5 279 L 177.5 276 Z " /><path fill="rgb(0,0,0)" stroke="rgb(0,0,0)" stroke-width="1" opacity="0.8" d="M 334.5 276 L 337.5 280 L 334.5 276 Z " /><path fill="rgb(0,0,0)" stroke="rgb(0,0,0)" stroke-width="1" opacity="0.8" d="M 247.5 280 L 253 280.5 L 247.5 281 L 247.5 280 Z " /><path fill="rgb(0,0,0)" stroke="rgb(0,0,0)" stroke-width="1" opacity="0.8" d="M 260.5 280 L 265 280.5 L 260.5 281 L 260.5 280 Z " /><path fill="rgb(0,0,0)" stroke="rgb(0,0,0)" stroke-width="1" opacity="0.8" d="M 173.5 281 L 171.5 284 L 173.5 281 Z " /><path fill="rgb(0,0,0)" stroke="rgb(0,0,0)" stroke-width="1" opacity="0.8" d="M 338.5 281 L 340.5 284 L 338.5 281 Z " /><path fill="rgb(0,0,0)" stroke="rgb(0,0,0)" stroke-width="1" opacity="0.8" d="M 170.5 285 L 169.5 287 L 170.5 285 Z " /><path fill="rgb(0,0,0)" stroke="rgb(0,0,0)" stroke-width="1" opacity="0.8" d="M 341.5 285 L 342.5 287 L 341.5 285 Z " /><path fill="rgb(0,0,0)" stroke="rgb(0,0,0)" stroke-width="1" opacity="0.8" d="M 189.5 286 L 186.5 290 L 189.5 286 Z " /><path fill="rgb(0,0,0)" stroke="rgb(0,0,0)" stroke-width="1" opacity="0.8" d="M 322.5 286 L 325.5 290 L 322.5 286 Z " /><path fill="rgb(0,0,0)" stroke="rgb(0,0,0)" stroke-width="1" opacity="0.8" d="M 168.5 288 L 167.5 290 L 168.5 288 Z " /><path fill="rgb(0,0,0)" stroke="rgb(0,0,0)" stroke-width="1" opacity="0.8" d="M 343.5 288 L 344.5 290 L 343.5 288 Z " /><path fill="rgb(0,0,0)" stroke="rgb(0,0,0)" stroke-width="1" opacity="0.8" d="M 222.5 289 L 221.5 291 L 222.5 289 Z " /><path fill="rgb(0,0,0)" stroke="rgb(0,0,0)" stroke-width="1" opacity="0.8" d="M 289.5 289 L 290.5 291 L 289.5 289 Z " /><path fill="rgb(0,0,0)" stroke="rgb(0,0,0)" stroke-width="1" opacity="0.8" d="M 185.5 291 L 184.5 293 L 185.5 291 Z " /><path fill="rgb(0,0,0)" stroke="rgb(0,0,0)" stroke-width="1" opacity="0.8" d="M 219.5 291 L 218.5 293 L 219.5 291 Z " /><path fill="rgb(0,0,0)" stroke="rgb(0,0,0)" stroke-width="1" opacity="0.8" d="M 292.5 291 L 293.5 293 L 292.5 291 Z " /><path fill="rgb(0,0,0)" stroke="rgb(0,0,0)" stroke-width="1" opacity="0.8" d="M 326.5 291 L 328.5 294 L 326.5 291 Z " /><path fill="rgb(0,0,0)" stroke="rgb(0,0,0)" stroke-width="1" opacity="0.8" d="M 215.5 294 L 206.5 304 L 215.5 294 Z " /><path fill="rgb(0,0,0)" stroke="rgb(0,0,0)" stroke-width="1" opacity="0.8" d="M 296.5 294 L 305.5 304 L 296.5 294 Z " /><path fill="rgb(0,0,0)" stroke="rgb(0,0,0)" stroke-width="1" opacity="0.8" d="M 329.5 295 L 330.5 297 L 329.5 295 Z " /><path fill="rgb(0,0,0)" stroke="rgb(0,0,0)" stroke-width="1" opacity="0.8" d="M 247.5 296 L 250 296.5 L 247.5 297 L 247.5 296 Z " /><path fill="rgb(0,0,0)" stroke="rgb(0,0,0)" stroke-width="1" opacity="0.8" d="M 262.5 296 L 265 296.5 L 262.5 297 L 262.5 296 Z " /><path fill="rgb(0,0,0)" stroke="rgb(0,0,0)" stroke-width="1" opacity="0.8" d="M 19.5 297 L 17.5 300 L 19.5 297 Z " /><path fill="rgb(0,0,0)" stroke="rgb(0,0,0)" stroke-width="1" opacity="0.8" d="M 492.5 297 L 494.5 300 L 492.5 297 Z " /><path fill="rgb(0,0,0)" stroke="rgb(0,0,0)" stroke-width="1" opacity="0.8" d="M 333.5 302 L 337 307.5 L 335 306.5 L 333.5 302 Z " /><path fill="rgb(0,0,0)" stroke="rgb(0,0,0)" stroke-width="1" opacity="0.8" d="M 283.5 304 L 284.5 306 L 283.5 304 Z " /><path fill="rgb(0,0,0)" stroke="rgb(0,0,0)" stroke-width="1" opacity="0.8" d="M 204.5 306 L 203.5 308 L 204.5 306 Z " /><path fill="rgb(0,0,0)" stroke="rgb(0,0,0)" stroke-width="1" opacity="0.8" d="M 225.5 306 L 218.5 314 L 225.5 306 Z " /><path fill="rgb(0,0,0)" stroke="rgb(0,0,0)" stroke-width="1" opacity="0.8" d="M 286.5 306 L 293.5 314 L 286.5 306 Z " /><path fill="rgb(0,0,0)" stroke="rgb(0,0,0)" stroke-width="1" opacity="0.8" d="M 307.5 306 L 308.5 308 L 307.5 306 Z " /><path fill="rgb(0,0,0)" stroke="rgb(0,0,0)" stroke-width="1" opacity="0.8" d="M 175.5 308 L 173.5 311 L 175.5 308 Z " /><path fill="rgb(0,0,0)" stroke="rgb(0,0,0)" stroke-width="1" opacity="0.8" d="M 202.5 309 L 201.5 311 L 202.5 309 Z " /><path fill="rgb(0,0,0)" stroke="rgb(0,0,0)" stroke-width="1" opacity="0.8" d="M 309.5 309 L 310.5 311 L 309.5 309 Z " /><path fill="rgb(0,0,0)" stroke="rgb(0,0,0)" stroke-width="1" opacity="0.8" d="M 337.5 309 L 338.5 311 L 337.5 309 Z " /><path fill="rgb(0,0,0)" stroke="rgb(0,0,0)" stroke-width="1" opacity="0.8" d="M 294.5 315 L 295.5 317 L 294.5 315 Z " /><path fill="rgb(0,0,0)" stroke="rgb(0,0,0)" stroke-width="1" opacity="0.8" d="M 192.5 335 L 193 340.5 L 192 340.5 L 192.5 335 Z " /><path fill="rgb(0,0,0)" stroke="rgb(0,0,0)" stroke-width="1" opacity="0.8" d="M 208.5 335 L 209 337.5 L 208 337.5 L 208.5 335 Z " /><path fill="rgb(0,0,0)" stroke="rgb(0,0,0)" stroke-width="1" opacity="0.8" d="M 303.5 335 L 304 337.5 L 303 337.5 L 303.5 335 Z " /><path fill="rgb(0,0,0)" stroke="rgb(0,0,0)" stroke-width="1" opacity="0.8" d="M 319.5 335 L 320 340.5 L 319 340.5 L 319.5 335 Z " /><path fill="rgb(0,0,0)" stroke="rgb(0,0,0)" stroke-width="1" opacity="0.8" d="M 319.5 347 L 320 352.5 L 319 352.5 L 319.5 347 Z " /><path fill="rgb(0,0,0)" stroke="rgb(0,0,0)" stroke-width="1" opacity="0.8" d="M 192.5 348 L 193 352.5 L 192 352.5 L 192.5 348 Z " /><path fill="rgb(0,0,0)" stroke="rgb(0,0,0)" stroke-width="1" opacity="0.8" d="M 208.5 350 L 209 352.5 L 208 352.5 L 208.5 350 Z " /><path fill="rgb(0,0,0)" stroke="rgb(0,0,0)" stroke-width="1" opacity="0.8" d="M 303.5 350 L 304 352.5 L 303 352.5 L 303.5 350 Z " /><path fill="rgb(0,0,0)" stroke="rgb(0,0,0)" stroke-width="1" opacity="0.8" d="M 216.5 371 L 217.5 373 L 216.5 371 Z " /><path fill="rgb(0,0,0)" stroke="rgb(0,0,0)" stroke-width="1" opacity="0.8" d="M 295.5 371 L 294.5 373 L 295.5 371 Z " /><path fill="rgb(0,0,0)" stroke="rgb(0,0,0)" stroke-width="1" opacity="0.8" d="M 218.5 374 L 225.5 382 L 218.5 374 Z " /><path fill="rgb(0,0,0)" stroke="rgb(0,0,0)" stroke-width="1" opacity="0.8" d="M 293.5 374 L 286.5 382 L 293.5 374 Z " /><path fill="rgb(0,0,0)" stroke="rgb(0,0,0)" stroke-width="1" opacity="0.8" d="M 201.5 377 L 202.5 379 L 201.5 377 Z " /><path fill="rgb(0,0,0)" stroke="rgb(0,0,0)" stroke-width="1" opacity="0.8" d="M 310.5 377 L 309.5 379 L 310.5 377 Z " /><path fill="rgb(0,0,0)" stroke="rgb(0,0,0)" stroke-width="1" opacity="0.8" d="M 338.5 377 L 336.5 380 L 338.5 377 Z " /><path fill="rgb(0,0,0)" stroke="rgb(0,0,0)" stroke-width="1" opacity="0.8" d="M 203.5 380 L 204.5 382 L 203.5 380 Z " /><path fill="rgb(0,0,0)" stroke="rgb(0,0,0)" stroke-width="1" opacity="0.8" d="M 308.5 380 L 307.5 382 L 308.5 380 Z " /><path fill="rgb(0,0,0)" stroke="rgb(0,0,0)" stroke-width="1" opacity="0.8" d="M 227.5 382 L 228.5 384 L 227.5 382 Z " /><path fill="rgb(0,0,0)" stroke="rgb(0,0,0)" stroke-width="1" opacity="0.8" d="M 284.5 382 L 283.5 384 L 284.5 382 Z " /><path fill="rgb(0,0,0)" stroke="rgb(0,0,0)" stroke-width="1" opacity="0.8" d="M 206.5 384 L 215.5 394 L 206.5 384 Z " /><path fill="rgb(0,0,0)" stroke="rgb(0,0,0)" stroke-width="1" opacity="0.8" d="M 230.5 384 L 231.5 386 L 230.5 384 Z " /><path fill="rgb(0,0,0)" stroke="rgb(0,0,0)" stroke-width="1" opacity="0.8" d="M 305.5 384 L 296.5 394 L 305.5 384 Z " /><path fill="rgb(0,0,0)" stroke="rgb(0,0,0)" stroke-width="1" opacity="0.8" d="M 178.5 386 L 179.5 388 L 178.5 386 Z " /><path fill="rgb(0,0,0)" stroke="rgb(0,0,0)" stroke-width="1" opacity="0.8" d="M 17.5 388 L 19.5 391 L 17.5 388 Z " /><path fill="rgb(0,0,0)" stroke="rgb(0,0,0)" stroke-width="1" opacity="0.8" d="M 494.5 388 L 492.5 391 L 494.5 388 Z " /><path fill="rgb(0,0,0)" stroke="rgb(0,0,0)" stroke-width="1" opacity="0.8" d="M 331.5 389 L 330.5 391 L 331.5 389 Z " /><path fill="rgb(0,0,0)" stroke="rgb(0,0,0)" stroke-width="1" opacity="0.8" d="M 181.5 391 L 182.5 393 L 181.5 391 Z " /><path fill="rgb(0,0,0)" stroke="rgb(0,0,0)" stroke-width="1" opacity="0.8" d="M 247.5 391 L 250 391.5 L 247.5 392 L 247.5 391 Z " /><path fill="rgb(0,0,0)" stroke="rgb(0,0,0)" stroke-width="1" opacity="0.8" d="M 262.5 391 L 265 391.5 L 262.5 392 L 262.5 391 Z " /><path fill="rgb(0,0,0)" stroke="rgb(0,0,0)" stroke-width="1" opacity="0.8" d="M 329.5 392 L 328.5 394 L 329.5 392 Z " /><path fill="rgb(0,0,0)" stroke="rgb(0,0,0)" stroke-width="1" opacity="0.8" d="M 183.5 394 L 184.5 396 L 183.5 394 Z " /><path fill="rgb(0,0,0)" stroke="rgb(0,0,0)" stroke-width="1" opacity="0.8" d="M 346.5 394 L 345.5 396 L 346.5 394 Z " /><path fill="rgb(0,0,0)" stroke="rgb(0,0,0)" stroke-width="1" opacity="0.8" d="M 218.5 395 L 219.5 397 L 218.5 395 Z " /><path fill="rgb(0,0,0)" stroke="rgb(0,0,0)" stroke-width="1" opacity="0.8" d="M 293.5 395 L 292.5 397 L 293.5 395 Z " /><path fill="rgb(0,0,0)" stroke="rgb(0,0,0)" stroke-width="1" opacity="0.8" d="M 327.5 395 L 326.5 397 L 327.5 395 Z " /><path fill="rgb(0,0,0)" stroke="rgb(0,0,0)" stroke-width="1" opacity="0.8" d="M 221.5 397 L 222.5 399 L 221.5 397 Z " /><path fill="rgb(0,0,0)" stroke="rgb(0,0,0)" stroke-width="1" opacity="0.8" d="M 290.5 397 L 289.5 399 L 290.5 397 Z " /><path fill="rgb(0,0,0)" stroke="rgb(0,0,0)" stroke-width="1" opacity="0.8" d="M 167.5 398 L 168.5 400 L 167.5 398 Z " /><path fill="rgb(0,0,0)" stroke="rgb(0,0,0)" stroke-width="1" opacity="0.8" d="M 186.5 398 L 188.5 401 L 186.5 398 Z " /><path fill="rgb(0,0,0)" stroke="rgb(0,0,0)" stroke-width="1" opacity="0.8" d="M 324.5 399 L 322.5 402 L 324.5 399 Z " /><path fill="rgb(0,0,0)" stroke="rgb(0,0,0)" stroke-width="1" opacity="0.8" d="M 343.5 399 L 342.5 401 L 343.5 399 Z " /><path fill="rgb(0,0,0)" stroke="rgb(0,0,0)" stroke-width="1" opacity="0.8" d="M 169.5 401 L 170.5 403 L 169.5 401 Z " /><path fill="rgb(0,0,0)" stroke="rgb(0,0,0)" stroke-width="1" opacity="0.8" d="M 341.5 402 L 340.5 404 L 341.5 402 Z " /><path fill="rgb(0,0,0)" stroke="rgb(0,0,0)" stroke-width="1" opacity="0.8" d="M 172.5 405 L 173.5 407 L 172.5 405 Z " /><path fill="rgb(0,0,0)" stroke="rgb(0,0,0)" stroke-width="1" opacity="0.8" d="M 338.5 406 L 336.5 409 L 338.5 406 Z " /><path fill="rgb(0,0,0)" stroke="rgb(0,0,0)" stroke-width="1" opacity="0.8" d="M 247.5 407 L 253 407.5 L 247.5 408 L 247.5 407 Z " /><path fill="rgb(0,0,0)" stroke="rgb(0,0,0)" stroke-width="1" opacity="0.8" d="M 259.5 407 L 264 407.5 L 259.5 408 L 259.5 407 Z " /><path fill="rgb(0,0,0)" stroke="rgb(0,0,0)" stroke-width="1" opacity="0.8" d="M 175.5 409 L 179.5 414 L 175.5 409 Z " /><path fill="rgb(0,0,0)" stroke="rgb(0,0,0)" stroke-width="1" opacity="0.8" d="M 314.5 409 L 311.5 413 L 314.5 409 Z " /><path fill="rgb(0,0,0)" stroke="rgb(0,0,0)" stroke-width="1" opacity="0.8" d="M 199.5 411 L 201.5 414 L 199.5 411 Z " /><path fill="rgb(0,0,0)" stroke="rgb(0,0,0)" stroke-width="1" opacity="0.8" d="M 334.5 411 L 323.5 423 L 334.5 411 Z " /><path fill="rgb(0,0,0)" stroke="rgb(0,0,0)" stroke-width="1" opacity="0.8" d="M 49.5 412 L 51.5 415 L 49.5 412 Z " /><path fill="rgb(0,0,0)" stroke="rgb(0,0,0)" stroke-width="1" opacity="0.8" d="M 110.5 412 L 108.5 415 L 110.5 412 Z " /><path fill="rgb(0,0,0)" stroke="rgb(0,0,0)" stroke-width="1" opacity="0.8" d="M 401.5 412 L 403.5 415 L 401.5 412 Z " /><path fill="rgb(0,0,0)" stroke="rgb(0,0,0)" stroke-width="1" opacity="0.8" d="M 462.5 412 L 460.5 415 L 462.5 412 Z " /><path fill="rgb(0,0,0)" stroke="rgb(0,0,0)" stroke-width="1" opacity="0.8" d="M 308.5 414 L 307.5 416 L 308.5 414 Z " /><path fill="rgb(0,0,0)" stroke="rgb(0,0,0)" stroke-width="1" opacity="0.8" d="M 207.5 417 L 208.5 419 L 207.5 417 Z " /><path fill="rgb(0,0,0)" stroke="rgb(0,0,0)" stroke-width="1" opacity="0.8" d="M 302.5 418 L 301.5 420 L 302.5 418 Z " /><path fill="rgb(0,0,0)" stroke="rgb(0,0,0)" stroke-width="1" opacity="0.8" d="M 186.5 420 L 190.5 425 L 186.5 420 Z " /><path fill="rgb(0,0,0)" stroke="rgb(0,0,0)" stroke-width="1" opacity="0.8" d="M 212.5 420 L 219 423.5 L 217.5 424 Q 212.9 422.8 212.5 420 Z " /><path fill="rgb(0,0,0)" stroke="rgb(0,0,0)" stroke-width="1" opacity="0.8" d="M 320.5 424 L 318.5 427 L 320.5 424 Z " /><path fill="rgb(0,0,0)" stroke="rgb(0,0,0)" stroke-width="1" opacity="0.8" d="M 192.5 425 L 194.5 428 L 192.5 425 Z " /><path fill="rgb(0,0,0)" stroke="rgb(0,0,0)" stroke-width="1" opacity="0.8" d="M 316.5 427 L 315.5 429 L 316.5 427 Z " /><path fill="rgb(0,0,0)" stroke="rgb(0,0,0)" stroke-width="1" opacity="0.8" d="M 196.5 428 L 197.5 430 L 196.5 428 Z " /><path fill="rgb(0,0,0)" stroke="rgb(0,0,0)" stroke-width="1" opacity="0.8" d="M 199.5 430 L 200.5 432 L 199.5 430 Z " /><path fill="rgb(0,0,0)" stroke="rgb(0,0,0)" stroke-width="1" opacity="0.8" d="M 238.5 430 L 241 430.5 L 238.5 431 L 238.5 430 Z " /><path fill="rgb(0,0,0)" stroke="rgb(0,0,0)" stroke-width="1" opacity="0.8" d="M 271.5 430 L 274 430.5 L 271.5 431 L 271.5 430 Z " /><path fill="rgb(0,0,0)" stroke="rgb(0,0,0)" stroke-width="1" opacity="0.8" d="M 244.5 431 L 248 431.5 L 244.5 432 L 244.5 431 Z " /><path fill="rgb(0,0,0)" stroke="rgb(0,0,0)" stroke-width="1" opacity="0.8" d="M 264.5 431 L 268 431.5 L 264.5 432 L 264.5 431 Z " /><path fill="rgb(0,0,0)" stroke="rgb(0,0,0)" stroke-width="1" opacity="0.8" d="M 310.5 431 L 309.5 433 L 310.5 431 Z " /><path fill="rgb(0,0,0)" stroke="rgb(0,0,0)" stroke-width="1" opacity="0.8" d="M 204.5 433 L 205.5 435 L 204.5 433 Z " /><path fill="rgb(0,0,0)" stroke="rgb(0,0,0)" stroke-width="1" opacity="0.8" d="M 303.5 435 L 302.5 437 L 301 436.5 L 303.5 435 Z " /><path fill="rgb(0,0,0)" stroke="rgb(0,0,0)" stroke-width="1" opacity="0.8" d="M 235.5 445 L 238 445.5 L 235.5 446 L 235.5 445 Z " /><path fill="rgb(0,0,0)" stroke="rgb(0,0,0)" stroke-width="1" opacity="0.8" d="M 274.5 445 L 277 445.5 L 274.5 446 L 274.5 445 Z " /><path fill="rgb(0,0,0)" stroke="rgb(0,0,0)" stroke-width="1" opacity="0.8" d="M 241.5 446 L 245 446.5 L 241.5 447 L 241.5 446 Z " /><path fill="rgb(0,0,0)" stroke="rgb(0,0,0)" stroke-width="1" opacity="0.8" d="M 266.5 446 L 271 446.5 L 266.5 447 L 266.5 446 Z " /><path fill="rgb(0,0,0)" stroke="rgb(0,0,0)" stroke-width="1" opacity="0.8" d="M 252.5 447 L 259 447.5 L 252.5 448 L 252.5 447 Z " /><path fill="rgb(0,0,0)" stroke="rgb(0,0,0)" stroke-width="1" opacity="0" d="M 0 0 L 512 0 L 512 512 L 0 512 L 0 0 Z M 252 64 L 244 67 L 238 71 L 233 80 L 232 96 L 134 96 L 132 97 L 128 102 L 128 139 L 129 141 L 134 144 L 232 144 L 232 145 L 232 160 L 182 160 L 180 161 L 176 166 L 176 219 L 177 221 L 182 224 L 208 224 L 208 252 Q 194 259 184 269 Q 172 279 165 295 L 164 296 L 112 296 L 112 278 L 111 276 L 107 272 L 54 272 L 52 273 L 48 278 L 48 296 L 22 296 L 20 297 L 16 302 L 16 387 L 17 389 L 22 392 L 48 392 L 48 411 L 49 413 L 54 416 L 107 416 L 109 415 L 112 411 L 112 392 L 164 392 L 175 410 Q 190 428 214 439 L 236 446 L 252 447 L 253 448 L 277 446 L 294 441 Q 311 434 324 423 Q 338 411 347 394 L 349 392 L 400 392 L 400 411 L 401 413 L 406 416 L 459 416 L 461 415 L 464 411 L 464 392 L 491 392 L 493 391 L 496 387 L 496 302 L 495 300 L 491 296 L 464 296 L 464 278 L 463 276 L 459 272 L 406 272 L 404 273 L 400 278 L 400 296 L 349 296 Q 341 282 331 272 Q 320 260 306 252 L 304 252 L 304 224 L 331 224 L 333 223 L 336 219 L 336 166 L 335 164 L 331 160 L 281 160 L 280 160 L 280 144 L 379 144 L 381 143 L 384 139 L 384 102 L 383 100 L 379 96 L 280 96 Q 282 79 274 72 Q 268 63 252 64 Z " /><path fill="rgb(0,0,0)" stroke="rgb(0,0,0)" stroke-width="1" opacity="0" d="M 254.5 80 L 262 82 Q 265.4 86.4 264 96 L 248 96 L 248 86.5 L 250 82 L 254.5 80 Z " /><path fill="rgb(0,0,0)" stroke="rgb(0,0,0)" stroke-width="1" opacity="0" d="M 144 112 L 367.5 112 L 368 112.5 L 368 128 L 144.5 128 L 144 127.5 L 144 112 Z " /><path fill="rgb(0,0,0)" stroke="rgb(0,0,0)" stroke-width="1" opacity="0" d="M 248 144 L 264 144 L 264 160 L 248 160 L 248 144 Z " /><path fill="rgb(0,0,0)" stroke="rgb(0,0,0)" stroke-width="1" opacity="0" d="M 192 176 L 319.5 176 L 320 176.5 L 320 208 L 192.5 208 L 192 207.5 L 192 176 Z " /><path fill="rgb(0,0,0)" stroke="rgb(0,0,0)" stroke-width="1" opacity="0" d="M 224 224 L 288 224 L 288 259.5 L 291.5 264 Q 310.2 271.3 322 285.5 L 331 297.5 L 338.5 311 L 340.5 312 L 400 312 L 400 376 L 340.5 376 L 336 379.5 Q 328.8 397.3 315.5 409 Q 304.2 419.7 288.5 426 L 270.5 431 L 248.5 432 L 232.5 429 L 209.5 419 Q 197.8 411.8 189 401.5 Q 179.4 391.4 175 378 L 171.5 376 L 112 376 L 112 312 L 171.5 312 L 176 308.5 Q 183.3 289.8 197.5 278 Q 208 268.2 222 263 L 224 259.5 L 224 224 Z M 248 280 Q 228 283 216 294 Q 197 308 192 336 L 192 353 L 194 362 Q 198 375 206 385 Q 220 403 248 408 L 264 408 L 274 406 Q 287 402 297 394 Q 315 380 320 353 L 320 336 L 318 327 Q 314 313 306 304 Q 296 291 280 284 L 265 280 L 248 280 Z " /><path fill="rgb(0,0,0)" stroke="rgb(0,0,0)" stroke-width="1" opacity="0" d="M 64 288 L 95.5 288 L 96 288.5 L 96 400 L 64.5 400 L 64 399.5 L 64 288 Z " /><path fill="rgb(0,0,0)" stroke="rgb(0,0,0)" stroke-width="1" opacity="0" d="M 416 288 L 447.5 288 L 448 288.5 L 448 400 L 416.5 400 L 416 399.5 L 416 288 Z " /><path fill="rgb(0,0,0)" stroke="rgb(0,0,0)" stroke-width="1" opacity="0" d="M 250.5 296 L 261.5 296 L 273.5 299 Q 286.1 304.4 294 314.5 Q 304.8 326.2 304 349.5 Q 300.4 371.4 285.5 382 Q 273.8 392.8 250.5 392 Q 228.8 388.2 218 373.5 Q 207.2 361.8 208 338.5 Q 211.9 315.9 227.5 305 L 238.5 299 L 250.5 296 Z " /><path fill="rgb(0,0,0)" stroke="rgb(0,0,0)" stroke-width="1" opacity="0" d="M 32 312 L 47.5 312 L 48 312.5 L 48 376 L 32.5 376 L 32 375.5 L 32 312 Z " /><path fill="rgb(0,0,0)" stroke="rgb(0,0,0)" stroke-width="1" opacity="0" d="M 464 312 L 479.5 312 L 480 312.5 L 480 376 L 464.5 376 L 464 375.5 L 464 312 Z " /><path fill="rgb(0,0,0)" stroke="rgb(0,0,0)" stroke-width="1" opacity="1" d="M 254.5 64 Q 269.1 64.4 275 73.5 L 279 81.5 L 280 96 L 376.5 96 L 383 100.5 L 384 103.5 L 384 136.5 L 379.5 143 L 376.5 144 L 280 144 L 280 159.5 L 280.5 160 L 328.5 160 L 335 164.5 L 336 167.5 L 336 216.5 L 331.5 223 L 328.5 224 L 304 224 L 304 252.5 L 305.5 253 Q 322.1 261.9 334 275.5 L 345 290.5 L 347 296 L 399.5 296 L 400 295.5 L 400 279.5 L 404.5 273 L 407.5 272 L 456.5 272 L 463 276.5 L 464 279.5 L 464 296 L 488.5 296 L 495 300.5 L 496 303.5 L 496 384.5 L 491.5 391 L 488.5 392 L 464 392 L 464 408.5 L 459.5 415 L 456.5 416 L 407.5 416 L 401 411.5 L 400 408.5 L 400 392 L 347.5 392 L 347 393.5 Q 336.8 411.3 321.5 424 Q 305.3 437.3 282.5 444 L 265.5 447 L 245.5 447 L 225.5 443 L 214.5 439 Q 194.3 429.7 180 414.5 Q 170.3 404.9 165 392 L 112.5 392 L 112 392.5 L 112 408.5 L 107.5 415 L 104.5 416 L 55.5 416 L 49 411.5 L 48 408.5 L 48 392 L 23.5 392 L 17 387.5 L 16 384.5 L 16 303.5 L 20.5 297 L 23.5 296 L 48 296 L 48 279.5 L 52.5 273 L 55.5 272 L 104.5 272 L 111 276.5 L 112 279.5 L 112 296 L 164.5 296 L 165 294.5 Q 173.9 277.9 187.5 266 L 202.5 255 L 208 253 L 208 224 L 183.5 224 L 177 219.5 L 176 216.5 L 176 167.5 L 180.5 161 L 183.5 160 L 232 160 L 232 144.5 L 231.5 144 L 135.5 144 L 129 139.5 L 128 136.5 L 128 103.5 L 132.5 97 L 135.5 96 L 232 96 L 232 86.5 L 234 78.5 L 241.5 69 L 246.5 66 L 254.5 64 Z M 253 80 L 248 85 L 248 96 L 264 96 L 264 85 Q 262 78 253 80 Z M 144 112 L 144 128 L 145 128 L 368 128 L 368 113 L 368 112 L 144 112 Z M 248 144 L 248 160 L 264 160 L 264 144 L 248 144 Z M 192 176 L 192 208 L 193 208 L 320 208 L 320 177 L 320 176 L 192 176 Z M 224 224 L 224 258 L 223 261 L 202 274 Q 185 287 176 308 L 170 312 L 112 312 L 112 376 L 170 376 L 173 377 L 183 395 L 193 407 L 209 419 L 218 424 L 231 429 L 245 432 L 268 432 L 282 429 Q 299 423 312 413 Q 328 401 336 381 L 343 376 L 400 376 L 400 312 L 343 312 L 340 311 L 326 290 Q 313 273 293 264 L 288 258 L 288 224 L 224 224 Z M 64 288 L 64 400 L 65 400 L 96 400 L 96 289 L 96 288 L 64 288 Z M 416 288 L 416 400 L 417 400 L 448 400 L 448 289 L 448 288 L 416 288 Z M 32 312 L 32 376 L 33 376 L 48 376 L 48 313 L 48 312 L 32 312 Z M 464 312 L 464 376 L 465 376 L 480 376 L 480 313 L 480 312 L 464 312 Z " /><path fill="rgb(0,0,0)" stroke="rgb(0,0,0)" stroke-width="1" opacity="1" d="M 253.5 280 L 267.5 281 L 278.5 284 Q 296.3 291.3 307 305.5 L 317 324.5 L 319 332.5 L 320 346.5 L 317 363.5 L 311 376.5 Q 304.5 387.5 294.5 395 L 275.5 405 L 267.5 407 L 253.5 408 L 236.5 405 L 223.5 399 Q 212.5 392.5 205 382.5 L 195 363.5 L 193 355.5 L 192 341.5 L 195 324.5 L 201 311.5 Q 207.5 300.5 217.5 293 L 236.5 283 L 253.5 280 Z M 248 296 Q 234 299 226 306 Q 212 316 208 336 Q 206 348 209 357 L 218 375 Q 228 388 248 392 Q 260 394 269 391 L 287 382 Q 300 372 304 353 Q 306 340 303 332 L 294 314 Q 286 304 275 299 L 265 296 L 248 296 Z " /></svg>